<svg xmlns="http://www.w3.org/2000/svg" xmlns:xlink="http://www.w3.org/1999/xlink" width="800" height="700" viewBox="0 0 800 700">
  <defs>
    <clipPath id="clip-Landing_PageDesign">
      <rect width="800" height="700"/>
    </clipPath>
  </defs>
  <g id="Landing_PageDesign" data-name="Landing PageDesign" clip-path="url(#clip-Landing_PageDesign)">
    <g id="Group_14889" data-name="Group 14889" transform="translate(-77.788 -25.161)">
      <g id="Group_14693" data-name="Group 14693" transform="translate(97.877 127.728)">
        <path id="Path_71291" data-name="Path 71291" d="M169.928,366.992s-75.734-1.026-90.212,6.6c-8.8,4.634-15.583,10.071,59.043,20.621s106.982,30.8,185.315,29.455,122.635-19.427,184.008-19.835,196.706-19.015,269.645-18.493,94.2-25.364-52.123-29.973S169.928,366.992,169.928,366.992Z" transform="translate(-74.479 71.135)" fill="#feebe2"/>
        <path id="Path_71305" data-name="Path 71305" d="M327.445,127.185a27.044,27.044,0,1,0,27.043,27.043A27.044,27.044,0,0,0,327.445,127.185Zm0,41.883a14.839,14.839,0,1,1,14.838-14.84A14.839,14.839,0,0,1,327.445,169.068Z" transform="translate(122.59 -127.185)" fill="#fcdccc"/>
        <path id="Path_71306" data-name="Path 71306" d="M128.359,171.45a18.917,18.917,0,1,0,18.916,18.918A18.917,18.917,0,0,0,128.359,171.45Zm0,29.3a10.379,10.379,0,1,1,10.378-10.378A10.378,10.378,0,0,1,128.359,200.746Z" transform="translate(-43.981 -88.573)" fill="#fcdccc"/>
        <path id="Path_71307" data-name="Path 71307" d="M442.691,203.817a18.916,18.916,0,1,0,18.918,18.916A18.916,18.916,0,0,0,442.691,203.817Zm0,29.294a10.378,10.378,0,1,1,10.38-10.378A10.378,10.378,0,0,1,442.691,233.111Z" transform="translate(230.207 -60.34)" fill="#fcdccc"/>
        <path id="Path_71308" data-name="Path 71308" d="M285.943,150.825h-1.614a3.592,3.592,0,0,1-3.591-3.591v-1.616a3.588,3.588,0,0,0-3.589-3.589h0a3.588,3.588,0,0,0-3.589,3.589v1.616a3.592,3.592,0,0,1-3.591,3.591h-1.616a3.589,3.589,0,0,0-3.589,3.589h0A3.589,3.589,0,0,0,268.353,158h1.616a3.592,3.592,0,0,1,3.591,3.591v1.616a3.59,3.59,0,0,0,3.589,3.589h0a3.59,3.59,0,0,0,3.589-3.589v-1.616A3.592,3.592,0,0,1,284.329,158h1.614a3.59,3.59,0,0,0,3.591-3.589h0A3.59,3.59,0,0,0,285.943,150.825Z" transform="translate(91.504 -114.237)" fill="#fcdccc"/>
        <path id="Path_71309" data-name="Path 71309" d="M99.573,321.422H97.958a3.591,3.591,0,0,1-3.589-3.591v-1.614a3.59,3.59,0,0,0-3.589-3.591h0a3.592,3.592,0,0,0-3.591,3.591v1.614a3.59,3.59,0,0,1-3.589,3.591H81.983a3.589,3.589,0,0,0-3.589,3.589h0a3.589,3.589,0,0,0,3.589,3.589H83.6a3.59,3.59,0,0,1,3.589,3.591v1.616a3.59,3.59,0,0,0,3.591,3.589h0a3.589,3.589,0,0,0,3.589-3.589v-1.616a3.591,3.591,0,0,1,3.589-3.591h1.616a3.59,3.59,0,0,0,3.591-3.589h0A3.59,3.59,0,0,0,99.573,321.422Z" transform="translate(-71.064 34.572)" fill="#fcdccc"/>
        <path id="Path_71310" data-name="Path 71310" d="M169.653,153.658h-2.209a4.91,4.91,0,0,1-4.911-4.911V146.54a4.91,4.91,0,0,0-4.909-4.911h0a4.91,4.91,0,0,0-4.909,4.911v2.207a4.91,4.91,0,0,1-4.909,4.911H145.6a4.909,4.909,0,0,0-4.909,4.909h0a4.909,4.909,0,0,0,4.909,4.909h2.209a4.909,4.909,0,0,1,4.909,4.909V170.6a4.909,4.909,0,0,0,4.909,4.909h0a4.909,4.909,0,0,0,4.909-4.909v-2.209a4.91,4.91,0,0,1,4.911-4.909h2.209a4.909,4.909,0,0,0,4.909-4.909h0A4.909,4.909,0,0,0,169.653,153.658Z" transform="translate(-16.727 -114.586)" fill="#fcdccc"/>
        <path id="Path_71311" data-name="Path 71311" d="M486.778,277.386h-2.209a4.909,4.909,0,0,1-4.909-4.909v-2.209a4.909,4.909,0,0,0-4.909-4.909h0a4.909,4.909,0,0,0-4.909,4.909v2.209a4.91,4.91,0,0,1-4.911,4.909h-2.209a4.91,4.91,0,0,0-4.909,4.911h0a4.909,4.909,0,0,0,4.909,4.909h2.209a4.91,4.91,0,0,1,4.911,4.909v2.209a4.909,4.909,0,0,0,4.909,4.909h0a4.909,4.909,0,0,0,4.909-4.909v-2.209a4.909,4.909,0,0,1,4.909-4.909h2.209a4.909,4.909,0,0,0,4.909-4.909h0A4.91,4.91,0,0,0,486.778,277.386Z" transform="translate(259.897 -6.659)" fill="#fcdccc"/>
        <path id="Path_71312" data-name="Path 71312" d="M224.774,154.414a12.385,12.385,0,1,1-12.385-12.385A12.386,12.386,0,0,1,224.774,154.414Z" transform="translate(35.014 -114.237)" fill="#fcdccc"/>
        <path id="Path_71313" data-name="Path 71313" d="M393.493,154.414a12.385,12.385,0,1,1-12.385-12.385A12.385,12.385,0,0,1,393.493,154.414Z" transform="translate(182.186 -114.237)" fill="#fcdccc"/>
      </g>
      <g id="Group_14697" data-name="Group 14697" transform="translate(228.419 202.185)">
        <g id="Group_14694" data-name="Group 14694" transform="translate(0 0)">
          <path id="Rectangle_2125" data-name="Rectangle 2125" d="M18.866,0H344.8a18.866,18.866,0,0,1,18.866,18.866V483.647a18.865,18.865,0,0,1-18.865,18.865H18.865A18.865,18.865,0,0,1,0,483.647V18.866A18.866,18.866,0,0,1,18.866,0Z" transform="translate(502.512 0) rotate(90)" fill="#3f3d56"/>
          <path id="Path_71314" data-name="Path 71314" d="M625.475,187.7V496.282a12.943,12.943,0,0,1-12.938,12.936H165.116a12.945,12.945,0,0,1-12.951-12.936V187.7a12.949,12.949,0,0,1,12.951-12.951H612.538A12.946,12.946,0,0,1,625.475,187.7Z" transform="translate(-137.257 -160.151)" fill="#fef8f4"/>
          <rect id="Rectangle_2126" data-name="Rectangle 2126" width="142.817" height="124.41" rx="4.394" transform="translate(40.35 49.46)" fill="#fcece3"/>
          <path id="Rectangle_2127" data-name="Rectangle 2127" d="M9.55,0h236.76a9.549,9.549,0,0,1,9.549,9.549V155.512a9.549,9.549,0,0,1-9.549,9.549H9.549A9.549,9.549,0,0,1,0,155.512V9.55A9.55,9.55,0,0,1,9.55,0Z" transform="translate(208.652 49.46)" fill="#fcece3"/>
          <path id="Path_71315" data-name="Path 71315" d="M625.308,291.191V394.713a12.943,12.943,0,0,1-12.937,12.936H164.949A12.945,12.945,0,0,1,152,394.713V291.191Z" transform="translate(-137.403 -58.583)" fill="#3f3d56"/>
          <path id="Path_71316" data-name="Path 71316" d="M625.308,187.7v8.075H152V187.7a12.949,12.949,0,0,1,12.951-12.951H612.371A12.946,12.946,0,0,1,625.308,187.7Z" transform="translate(-137.403 -160.151)" fill="#fff"/>
          <path id="Path_71320" data-name="Path 71320" d="M159.314,295.886H186.59V314.9H159.314a1.928,1.928,0,0,1-1.928-1.928V297.813A1.927,1.927,0,0,1,159.314,295.886Z" transform="translate(-132.703 -54.487)" fill="#4f4d67"/>
          <path id="Path_71321" data-name="Path 71321" d="M286.515,297.813v15.156a1.927,1.927,0,0,1-1.927,1.928H174.816V295.886H284.588A1.925,1.925,0,0,1,286.515,297.813Z" transform="translate(-117.499 -54.487)" fill="#4f4d67"/>
          <path id="Path_71322" data-name="Path 71322" d="M159.314,310.454H186.59v19.009H159.314a1.939,1.939,0,0,1-1.928-1.942V312.381A1.927,1.927,0,0,1,159.314,310.454Z" transform="translate(-132.703 -41.78)" fill="#4f4d67"/>
          <path id="Path_71323" data-name="Path 71323" d="M286.515,312.381v15.141a1.938,1.938,0,0,1-1.927,1.942H174.816V310.454H284.588A1.925,1.925,0,0,1,286.515,312.381Z" transform="translate(-117.499 -41.78)" fill="#4f4d67"/>
          <path id="Path_71324" data-name="Path 71324" d="M159.314,325.014H186.59v19.009H159.314a1.926,1.926,0,0,1-1.928-1.927V326.941A1.926,1.926,0,0,1,159.314,325.014Z" transform="translate(-132.703 -29.079)" fill="#4f4d67"/>
          <path id="Path_71325" data-name="Path 71325" d="M286.515,326.941V342.1a1.925,1.925,0,0,1-1.927,1.927H174.816V325.014H284.588A1.925,1.925,0,0,1,286.515,326.941Z" transform="translate(-117.499 -29.079)" fill="#4f4d67"/>
          <path id="Path_71326" data-name="Path 71326" d="M159.314,339.581H186.59v19.011H159.314a1.939,1.939,0,0,1-1.928-1.942V341.509A1.927,1.927,0,0,1,159.314,339.581Z" transform="translate(-132.703 -16.373)" fill="#4f4d67"/>
          <path id="Path_71327" data-name="Path 71327" d="M286.515,341.509v15.141a1.938,1.938,0,0,1-1.927,1.942H174.816V339.581H284.588A1.925,1.925,0,0,1,286.515,341.509Z" transform="translate(-117.499 -16.373)" fill="#4f4d67"/>
          <rect id="Rectangle_2128" data-name="Rectangle 2128" width="15.644" height="12.766" rx="1.357" transform="translate(29.684 244.425)" fill="#c58464"/>
          <rect id="Rectangle_2129" data-name="Rectangle 2129" width="15.644" height="12.766" rx="1.357" transform="translate(29.684 271.79)" fill="#c58464"/>
          <rect id="Rectangle_2130" data-name="Rectangle 2130" width="15.644" height="12.766" rx="1.357" transform="translate(29.684 299.154)" fill="#c58464"/>
          <rect id="Rectangle_2131" data-name="Rectangle 2131" width="15.644" height="12.766" rx="1.357" transform="translate(29.684 326.519)" fill="#c58464"/>
          <rect id="Rectangle_2132" data-name="Rectangle 2132" width="10.951" height="9.23" transform="translate(62.172 245.885)" fill="#56a099"/>
          <rect id="Rectangle_2133" data-name="Rectangle 2133" width="10.951" height="9.23" transform="translate(62.172 273.564)" fill="#ffc869"/>
          <rect id="Rectangle_2134" data-name="Rectangle 2134" width="10.951" height="9.23" transform="translate(62.172 301.242)" fill="#ff8e79"/>
          <rect id="Rectangle_2135" data-name="Rectangle 2135" width="10.951" height="9.23" transform="translate(62.172 328.921)" fill="#ac5f00"/>
          <rect id="Rectangle_2136" data-name="Rectangle 2136" width="2.503" height="116.459" transform="translate(176.112 232.609)" fill="#4f4d67"/>
          <rect id="Rectangle_2137" data-name="Rectangle 2137" width="309.289" height="15.018" transform="translate(178.615 242.131)" fill="#fff" opacity="0.1"/>
          <rect id="Rectangle_2138" data-name="Rectangle 2138" width="309.289" height="15.018" transform="translate(178.615 270.67)" fill="#fff" opacity="0.1"/>
          <rect id="Rectangle_2139" data-name="Rectangle 2139" width="309.289" height="15.018" transform="translate(178.615 297.749)" fill="#fff" opacity="0.1"/>
          <rect id="Rectangle_2140" data-name="Rectangle 2140" width="309.289" height="15.018" transform="translate(178.615 324.827)" fill="#fff" opacity="0.1"/>
          <rect id="Rectangle_2141" data-name="Rectangle 2141" width="2.294" height="5.767" transform="translate(197.597 232.609)" fill="#9c9b9b"/>
          <rect id="Rectangle_2142" data-name="Rectangle 2142" width="2.294" height="5.767" transform="translate(216.996 232.609)" fill="#9c9b9b"/>
          <rect id="Rectangle_2143" data-name="Rectangle 2143" width="2.294" height="5.767" transform="translate(236.394 232.609)" fill="#9c9b9b"/>
          <rect id="Rectangle_2144" data-name="Rectangle 2144" width="2.294" height="5.767" transform="translate(255.793 232.609)" fill="#9c9b9b"/>
          <rect id="Rectangle_2145" data-name="Rectangle 2145" width="2.294" height="5.767" transform="translate(275.191 232.609)" fill="#9c9b9b"/>
          <rect id="Rectangle_2146" data-name="Rectangle 2146" width="2.294" height="5.767" transform="translate(294.59 232.609)" fill="#9c9b9b"/>
          <rect id="Rectangle_2147" data-name="Rectangle 2147" width="2.294" height="5.767" transform="translate(313.989 232.609)" fill="#9c9b9b"/>
          <rect id="Rectangle_2148" data-name="Rectangle 2148" width="2.294" height="5.767" transform="translate(333.387 232.609)" fill="#9c9b9b"/>
          <rect id="Rectangle_2149" data-name="Rectangle 2149" width="2.294" height="5.767" transform="translate(352.786 232.609)" fill="#9c9b9b"/>
          <rect id="Rectangle_2150" data-name="Rectangle 2150" width="2.294" height="5.767" transform="translate(372.185 232.609)" fill="#9c9b9b"/>
          <rect id="Rectangle_2151" data-name="Rectangle 2151" width="2.294" height="5.767" transform="translate(391.583 232.609)" fill="#9c9b9b"/>
          <rect id="Rectangle_2152" data-name="Rectangle 2152" width="2.294" height="5.767" transform="translate(410.982 232.609)" fill="#9c9b9b"/>
          <rect id="Rectangle_2153" data-name="Rectangle 2153" width="2.294" height="5.767" transform="translate(430.381 232.609)" fill="#9c9b9b"/>
          <rect id="Rectangle_2154" data-name="Rectangle 2154" width="2.294" height="5.767" transform="translate(449.779 232.609)" fill="#9c9b9b"/>
          <rect id="Rectangle_2155" data-name="Rectangle 2155" width="2.295" height="5.767" transform="translate(469.178 232.609)" fill="#9c9b9b"/>
          <path id="Path_71328" data-name="Path 71328" d="M252.637,294.272h-4.9v5.215l3.755,3.963V404.963h2.294V303.45l3.755-3.963v-5.215Z" transform="translate(-53.893 -55.895)" fill="#fef8f4"/>
        </g>
        <g id="Group_14696" data-name="Group 14696" transform="translate(66.186 74.433)">
          <g id="Group_14695" data-name="Group 14695" transform="translate(9.695 1.703)">
            <path id="Path_71329" data-name="Path 71329" d="M278.1,265.348h-24.43A23.67,23.67,0,0,1,230.031,241.7V233.04a19.878,19.878,0,0,0-39.756,0v11.739a2.772,2.772,0,1,1-5.544,0V233.04a25.422,25.422,0,0,1,50.844,0V241.7a18.121,18.121,0,0,0,18.1,18.1H278.1a2.772,2.772,0,0,1,0,5.544Z" transform="translate(-184.731 -207.618)" fill="#f37130"/>
          </g>
          <line id="Line_54" data-name="Line 54" x2="63.163" transform="translate(2.945 4.678)" fill="none" stroke="#f37130" stroke-miterlimit="10" stroke-width="1"/>
          <path id="Path_71330" data-name="Path 71330" d="M218.506,210.427a2.45,2.45,0,1,1-2.449-2.449A2.45,2.45,0,0,1,218.506,210.427Z" transform="translate(-149.849 -205.601)" fill="#f37130"/>
          <path id="Path_71331" data-name="Path 71331" d="M184.453,210.427A2.45,2.45,0,1,1,182,207.978,2.451,2.451,0,0,1,184.453,210.427Z" transform="translate(-179.553 -205.601)" fill="#f37130"/>
          <rect id="Rectangle_2156" data-name="Rectangle 2156" width="9.356" height="9.356" transform="translate(29.849)" fill="#fcece3" stroke="#f37130" stroke-linecap="round" stroke-linejoin="round" stroke-width="1"/>
        </g>
        <line id="Line_55" data-name="Line 55" x1="473.31" transform="translate(14.595 232.609)" fill="none" stroke="#9c9b9b" stroke-miterlimit="10" stroke-width="1"/>
      </g>
      <g id="Group_14703" data-name="Group 14703" transform="translate(136.931 267.587)">
        <path id="Rectangle_2157" data-name="Rectangle 2157" d="M13.715,0H117.562a13.715,13.715,0,0,1,13.715,13.715V115.777a7.187,7.187,0,0,1-7.187,7.187H7.187A7.187,7.187,0,0,1,0,115.777V13.715A13.715,13.715,0,0,1,13.715,0Z" transform="translate(0 220.315)" fill="#f16e2d"/>
        <g id="Group_14702" data-name="Group 14702" transform="translate(10.279)">
          <path id="Path_71339" data-name="Path 71339" d="M127.762,334.1s-17.811-13.956-25.336-24.448c0,0,4.975-6.875,9.064-9.717,0,0,12.544,9.869,14.789,12.585,0,0-.041.195-.082.541-.223,1.524-.667,6,.97,9.243a2.631,2.631,0,0,0,.208.418C129.647,326.683,130.742,330.536,127.762,334.1Z" transform="translate(-99.434 -116.36)" fill="#6e0a40"/>
          <path id="Path_71340" data-name="Path 71340" d="M118.99,318.279a5.772,5.772,0,0,1-5.336-2.758c-2.385-3.561-1.788-10.977-1.788-10.977l6.154,4.492C117.8,310.56,117.354,315.036,118.99,318.279Z" transform="translate(-91.258 -112.337)" fill="#6e0a40"/>
          <path id="Path_71341" data-name="Path 71341" d="M105.535,302.159s6.635,4.881,8.753,9.633,1.118,11.11,1.118,11.11l-3.4-3.142a13.466,13.466,0,0,0-.427-7.821c-1.558-3.638-7.508-8.122-7.508-8.122Z" transform="translate(-97.999 -114.418)" fill="#6e0a40"/>
          <path id="Path_71342" data-name="Path 71342" d="M103.82,305.122l25.336,24.448-1.477,1.779a2.214,2.214,0,0,1-3.2.213l-22.936-21.131a2.214,2.214,0,0,1,.017-3.271Z" transform="translate(-100.828 -111.833)" fill="#600b39"/>
          <path id="Path_71343" data-name="Path 71343" d="M132.066,291.6l14.652,14.75-2.889,41.43s5.016,3.22,22.591.844c0,0,4.351-43.461,1.335-51.383s-27.174-31.086-27.174-31.086l-14.257,2.574Z" transform="translate(-78.588 -145.826)" fill="#6e0a40"/>
          <path id="Path_71344" data-name="Path 71344" d="M113.948,255.629a19.509,19.509,0,0,0-3.713,17.672c2.822,10.693,20.938,36.087,20.938,36.087l-17.82,19.9a34.943,34.943,0,0,0,16.04,16.633s24.5-18.564,26.581-29.256S138.3,273.9,138.3,273.9Z" transform="translate(-93.239 -155.005)" fill="#6e0a40"/>
          <path id="Path_71345" data-name="Path 71345" d="M114.469,252.644l-2.58,5.589s2.142,6.443,12.473,13.812,22.8,10.395,22.8,10.395l4.076-6.682Z" transform="translate(-91.18 -157.609)" fill="#fbb49e"/>
          <path id="Path_71346" data-name="Path 71346" d="M144.466,261.538s5.742,21.385,14.256,30.3a77.626,77.626,0,0,0,16.435,13.3l9.109-21.8-15.643-12.3s-11.908-30.711-19.007-36.828C149.615,234.214,141.727,252.956,144.466,261.538Z" transform="translate(-63.267 -173.685)" fill="#ffccbc"/>
          <path id="Path_71347" data-name="Path 71347" d="M160.254,222.006s-6.435-.693-8.91,7.029a16.083,16.083,0,0,0-12.177,6.311c-4.95,6.461-23.662,23.587-25.839,32.6s1.385,12.87,1.385,12.87S126,295.17,141.048,299.328s20.3,1.582,20.3,1.582S176,275.073,177.58,263.29s0-17.028,0-17.028,4.752-6.038,1.979-12.672S160.254,222.006,160.254,222.006Z" transform="translate(-90.54 -184.347)" fill="#ffccbc"/>
          <path id="Path_71348" data-name="Path 71348" d="M141.128,222.581l-1.584,4.454,7.523,12.475a91.7,91.7,0,0,0,5.149-8.465S146.672,222.482,141.128,222.581Z" transform="translate(-67.057 -183.833)" fill="#ff8e79"/>
          <g id="Group_14701" data-name="Group 14701" transform="translate(67.778 42.722)">
            <path id="Path_71349" data-name="Path 71349" d="M238.047,233.832l-4.188-3.153-29.425,39.063a6.134,6.134,0,0,1,.142,7.133c-2.013,2.672-6.158,2.943-9.258.609s-3.982-6.4-1.97-9.068a6.139,6.139,0,0,1,6.9-1.831l29.425-39.063-3.743-2.82-61.473,29.06s1.569,17.965.878,24.411-7.081,14.932-7.081,14.932l15.959,12.022.809.61,15.959,12.022s6.39-8.485,12.4-10.929,23.707-5.892,23.707-5.892Z" transform="translate(-118.518 -224.703)" fill="#f37130"/>
            <rect id="Rectangle_2158" data-name="Rectangle 2158" width="45.541" height="8.588" transform="matrix(0.799, 0.602, -0.602, 0.799, 38.531, 67.498)" fill="#fcece3"/>
            <path id="Rectangle_2159" data-name="Rectangle 2159" d="M0,0H53.841a0,0,0,0,1,0,0V48.419a5.423,5.423,0,0,1-5.423,5.423h-43A5.423,5.423,0,0,1,0,48.419V0A0,0,0,0,1,0,0Z" transform="translate(32.395 68.291) rotate(36.99)" fill="#3f3d56" stroke="#42428c" stroke-linecap="round" stroke-linejoin="round" stroke-width="1"/>
          </g>
          <path id="Path_71350" data-name="Path 71350" d="M178.319,222.015s-.446,17.077-6.98,21.088-17.523,3.267-24.8-8.317c0,0-4.158,1.337-7.573-2.822s-1.93-9.356,1.485-9.949,6.238,3.267,6.238,3.267a16.389,16.389,0,0,1,7.721-12.029c7.128-4.158,15.444-2.674,18.118-.891A12.979,12.979,0,0,1,178.319,222.015Z" transform="translate(-69.251 -194.306)" fill="#ff8e79"/>
          <path id="Path_71351" data-name="Path 71351" d="M158.913,216.784a18.365,18.365,0,0,1-4.553,6.731,8.721,8.721,0,0,0-3.069,5.941h-3.763l-.889-5.1s-5.046-6.287-8.959-1.238c0,0-1.335-3.763,0-11.485Z" transform="translate(-69.201 -193.38)" fill="#440c01" stroke="#440c01" stroke-linecap="round" stroke-linejoin="round" stroke-width="1"/>
          <path id="Path_71352" data-name="Path 71352" d="M179.924,220.14s-9.109-1.09-21.286,5.149c0,0-12.074-.693-21.234-5.149,0,0-.547-12.969,12.224-17.028s24.355,2.969,27.128,6.435S179.924,220.14,179.924,220.14Z" transform="translate(-68.926 -201.885)" fill="#440c01"/>
          <path id="Path_71353" data-name="Path 71353" d="M148.744,217.09s1.487,2.672,10.792,3.761,16.236-.99,17.523-2.574l-7.029-6.336S163.694,208.574,148.744,217.09Z" transform="translate(-59.032 -193.686)" fill="#440c01"/>
          <path id="Path_71354" data-name="Path 71354" d="M129.511,232.874a19.863,19.863,0,0,0-3.793,9.762c-1.223,10.337-4.741,41.49-3.756,49.711,1.189,9.9,18.217,22.374,24.553,25.939a15.822,15.822,0,0,0,12.078,1.584l5.742-7.92s1.981-4.357,0-7.922S143.5,284.822,143.5,284.822s.975-49.55-2.333-54.675C138.687,226.306,133.469,227.684,129.511,232.874Z" transform="translate(-82.543 -179.148)" fill="#ffccbc"/>
          <path id="Path_71355" data-name="Path 71355" d="M147.61,272.1l3.194,3.921-6.016,7.2-4.306-2.228A10.582,10.582,0,0,1,147.61,272.1Z" transform="translate(-66.238 -140.642)" fill="#ffccbc"/>
          <path id="Path_71356" data-name="Path 71356" d="M148.8,274.189a59.09,59.09,0,0,1,9.949,2.526c4.5,1.683,4.059,3.514,3.565,4.677s-6.089.47-6.089.47a44.552,44.552,0,0,0,4.7,5.594c2.574,2.524,3.366,3.119,3.02,4.553s-2.674,2.475-5.345,1.337c0,0-.15.843-1.833,1.485a4.861,4.861,0,0,1-3.267,0s-.494.942-2.623.6-5.3-4.851-6.781-7.723a14.058,14.058,0,0,1-1.312-6.311Z" transform="translate(-64.235 -138.815)" fill="#ff8e79"/>
          <path id="Path_71357" data-name="Path 71357" d="M169.733,330.864s-22.627-.15-35-3.848c0,0-.268-8.483,1.23-13.231,0,0,15.959.137,19.4.912,0,0,.086.18.264.479.758,1.342,3.145,5.154,6.422,6.721a3,3,0,0,0,.419.2C166.689,323.845,169.913,326.224,169.733,330.864Z" transform="translate(-71.268 -104.276)" fill="#6e0a40"/>
          <path id="Path_71358" data-name="Path 71358" d="M155.854,321.249a5.78,5.78,0,0,1-5.909,1.08c-4.065-1.359-8.128-7.592-8.128-7.592l7.615-.21C150.19,315.87,152.577,319.682,155.854,321.249Z" transform="translate(-65.074 -103.628)" fill="#6e0a40"/>
          <path id="Path_71359" data-name="Path 71359" d="M134.9,317.025s8.236-.2,12.818,2.267S155.4,327.4,155.4,327.4l-4.61-.406a13.474,13.474,0,0,0-5.121-5.926c-3.46-1.925-10.908-1.835-10.908-1.835Z" transform="translate(-71.231 -101.454)" fill="#6e0a40"/>
          <path id="Path_71360" data-name="Path 71360" d="M134.995,320.852l35,3.848-.082,2.31a2.211,2.211,0,0,1-2.4,2.127l-31.069-2.692a2.213,2.213,0,0,1-1.986-2.6Z" transform="translate(-71.528 -98.112)" fill="#600b39"/>
          <path id="Path_71361" data-name="Path 71361" d="M135.145,308.783l-.723,8.68a1.712,1.712,0,0,0,1.013,1.715c3.333,1.472,13.63,5.336,23.632,2.033a1.716,1.716,0,0,0,1.144-1.425l.91-7.487a1.718,1.718,0,0,0-1.9-1.91,45.647,45.647,0,0,1-21.72-3.056A1.715,1.715,0,0,0,135.145,308.783Z" transform="translate(-71.529 -110.015)" fill="#ffccbc"/>
          <path id="Path_71362" data-name="Path 71362" d="M116.554,260.6a39.006,39.006,0,0,0,1.52,15.793c2.642,9.026,18.545,29.086,18.545,29.086s-19.668,22.664-22.1,26.98" transform="translate(-88.884 -150.668)" fill="none"/>
          <path id="Path_71363" data-name="Path 71363" d="M113.27,295.3l-5.879,6.426a1.71,1.71,0,0,0-.249,1.975c1.737,3.2,7.523,12.557,17.453,16.062a1.715,1.715,0,0,0,1.779-.429l5.3-5.366a1.718,1.718,0,0,0-.339-2.675,45.673,45.673,0,0,1-15.317-15.7A1.714,1.714,0,0,0,113.27,295.3Z" transform="translate(-95.5 -120.887)" fill="#ffccbc"/>
          <path id="Path_71364" data-name="Path 71364" d="M144.318,292.216l-9.845-8.418s2.73-46.15-2.333-54.674" transform="translate(-73.514 -178.125)" fill="none" stroke="#ffbe9e" stroke-linecap="round" stroke-linejoin="round" stroke-width="1"/>
          <path id="Path_71365" data-name="Path 71365" d="M126.34,234.214c-4.486,16.18-4.482,47.94-4.482,47.94s-1.887,9.051,7.9,17.517,18.161,17.693,28.906,14.735c0,0,2.363-5.13,4.57-6.3" transform="translate(-82.611 -173.685)" fill="none" stroke="#ffbe9e" stroke-linecap="round" stroke-linejoin="round" stroke-width="1"/>
          <path id="Path_71366" data-name="Path 71366" d="M134.417,227.1s6.59,8.772,12.876,12.381" transform="translate(-71.529 -179.89)" fill="none" stroke="#ffbe9e" stroke-linecap="round" stroke-linejoin="round" stroke-width="1"/>
          <line id="Line_56" data-name="Line 56" x1="2.697" transform="translate(82.83 62.268)" fill="none" stroke="#ffbe9e" stroke-linecap="round" stroke-linejoin="round" stroke-width="1"/>
          <path id="Path_71367" data-name="Path 71367" d="M147.223,222.094s0-8.143,5.081-13.625a11.657,11.657,0,0,1,11.367-3.612" transform="translate(-60.358 -199.561)" fill="none" stroke="#ffccbc" stroke-miterlimit="10" stroke-width="1" opacity="0.46"/>
        </g>
        <line id="Line_57" data-name="Line 57" x2="110.701" transform="translate(10.288 239.855)" fill="none" stroke="#fff" stroke-linecap="round" stroke-linejoin="round" stroke-width="1"/>
      </g>
      <g id="Group_14706" data-name="Group 14706" transform="translate(514.351 290.891)">
        <g id="Group_14704" data-name="Group 14704">
          <rect id="Rectangle_2160" data-name="Rectangle 2160" width="97.586" height="77.321" rx="6.25" fill="#f16e2d"/>
          <path id="Path_71368" data-name="Path 71368" d="M314.846,227.713v33.55a3.627,3.627,0,0,0,5.493,3.108l30.936-18.59a3.627,3.627,0,0,0-.29-6.373l-30.934-14.96A3.626,3.626,0,0,0,314.846,227.713Z" transform="translate(-281.285 -205.827)" fill="#fff"/>
        </g>
        <g id="Group_14705" data-name="Group 14705" transform="translate(5.517 46.952)">
          <path id="Path_71369" data-name="Path 71369" d="M367.2,287.252l-11.026-30.245s.483-1.56.762-2.9a5.5,5.5,0,0,0-.056-2.449c.3-1.93-.706-2.3-.706-2.3a3.293,3.293,0,0,0,0-2.6,4.94,4.94,0,0,0-1-2.005,5.792,5.792,0,0,0,.3-3.267,4.192,4.192,0,0,0-1.412-2.078c-.519.816-2.226,5.718-2.226,5.718L347,251.809l-.816.075s.889-4.085,0-4.977-1.412-.816-1.412-.816-2.3,5.718-1.509,8.169a54.115,54.115,0,0,0,1.975,5.042l8.983,30.376Z" transform="translate(-262.155 -239.409)" fill="#ffb9b9"/>
          <path id="Path_71370" data-name="Path 71370" d="M362.015,265.254s2.267,21.069,3.029,31.022l-16-9.287,1.657-21.735A25.982,25.982,0,0,1,362.015,265.254Z" transform="translate(-256.973 -217.411)" fill="#f16e2d"/>
          <path id="Path_71371" data-name="Path 71371" d="M354.7,277.679H335.689s-3.958,13.069-3.365,26.336,11.157,26.532,11.157,26.532-3.039,18.811-2.247,24.948l53.856-10.3-15.444-29.9s2.574-26.731-1.386-35.839Z" transform="translate(-271.608 -206.027)" fill="#f16e2d"/>
          <path id="Path_71372" data-name="Path 71372" d="M364.095,263.969c-5.654-7.543-15.066-9.676-18.67-8.989a14.826,14.826,0,0,0-10.384,7.585s-7.12,18.171-2.026,25.295a18.185,18.185,0,0,0,12.945,7.257l.826,10.078,17.418-4.75-1.393-10.318S369.749,271.511,364.095,263.969Z" transform="translate(-272.555 -225.932)" fill="#ffb9b9"/>
          <path id="Path_71373" data-name="Path 71373" d="M335.537,263.673s1.054,7.188,7.162,9.453c0,0-.788,4.434,1.084,5.615,0,0,1.674-3.054,4.136-3.054s3.25,5.911,1.477,9.26-4.531,2.659-4.531,2.659a9.805,9.805,0,0,0,3.449,7.585s-4.237,8.275-.887,16.549,21.967,6.3,26.991-.592-2.956-24.132-3.546-24.428,3.842-14.087-.985-19.8c0,0-1.569-10.343-14.083-13.1s-19.6,1.97-22.857,6.2-1.97,10.223,0,11.415Z" transform="translate(-272.746 -227.553)" fill="#440c01" stroke="#440c01" stroke-linecap="round" stroke-linejoin="round" stroke-width="1"/>
          <path id="Path_71374" data-name="Path 71374" d="M314.212,277.181s4.752,8.515,15.641,19.4,21.582,14.256,21.582,14.256,5.345-16.632,0-27.324l-22.57-12.531Z" transform="translate(-287.354 -211.865)" fill="#f16e2d"/>
          <path id="Path_71375" data-name="Path 71375" d="M341.377,289.412l-20.2-28.753-.075.036a15.3,15.3,0,0,0-.518-4.589,48.246,48.246,0,0,0-3.366-6.238,1.653,1.653,0,0,0-1.485,1.288c-.4,1.286.792,4.553.792,4.553l-7.425-2.475s-2.87-3.267-4.256-3.366-1.09,1.387-1.09,1.387,2.475,3.565,2.87,3.861c0,0-3.861-3.366-4.653-2.969s-.693,1.485,0,2.674a22.794,22.794,0,0,0,2.674,3.166s-3.069-2.38-3.96-2.279-.792,2.082,1.979,4.16a10.507,10.507,0,0,0-2.479-.792c-.391.1-.788,1.09,1.193,2.475s10.771,4.911,10.771,4.911h0l14.574,29.146A32.492,32.492,0,0,0,341.377,289.412Z" transform="translate(-299.867 -230.291)" fill="#ffb9b9"/>
          <path id="Path_71376" data-name="Path 71376" d="M414.8,389.659l-10.148,6.834-7.077,4.756s-13.668-19-19.3-32.971a151.363,151.363,0,0,1-8.032-29.114l-1.779,2.078-4.625,68.526H345s-6.555-21.209-7.733-39.112c-1.041-15.849,0-46.039,0-46.039,36.547-13.069,53.267-11.477,53.267-11.477,7.208,8.126,8.818,23.366,8.818,23.366l6.628,36.229Z" transform="translate(-267.649 -175.149)" fill="#2e313f"/>
          <path id="Path_71377" data-name="Path 71377" d="M341.179,364.716l3.223,23.5h12.316l3.3-23.5Z" transform="translate(-263.831 -130.106)" fill="#ffb9b9"/>
          <path id="Path_71378" data-name="Path 71378" d="M351.494,376.666a56.808,56.808,0,0,1-8.137,7.457c-3.958,2.76-9.238,3.986-9.678,8.276h31.78s-.345-12.464-2.041-15.733Z" transform="translate(-270.374 -119.682)" fill="#2e313f"/>
          <path id="Path_71379" data-name="Path 71379" d="M333.963,385.069h31.78v3.475l-32.329-1.022A3.055,3.055,0,0,1,333.963,385.069Z" transform="translate(-270.657 -112.352)"/>
          <path id="Path_71380" data-name="Path 71380" d="M369.257,365.564l19.9,20.264,9.206-6.006s-6.237-17.227-11.88-25.839Z" transform="translate(-239.339 -139.469)" fill="#ffb9b9"/>
          <path id="Path_71381" data-name="Path 71381" d="M383.853,373.789v10.625s-8.515,8.712-8.515,11.683,12.078.99,17.721-2.574,7.227-15.84,7.227-15.84l-7.227-9.9Z" transform="translate(-234.035 -127.43)" fill="#2e313f"/>
          <path id="Path_71382" data-name="Path 71382" d="M400.35,373.071a12.34,12.34,0,0,0-5.147,2.177c-2.969,1.979-5.941,8.712-9.109,11.187s-9.979,4.518-10.533,5.576a1.889,1.889,0,0,0-.159,1.751s8.614.711,13.761-.831,11.316-13.494,12.406-16.1A2.827,2.827,0,0,0,400.35,373.071Z" transform="translate(-234.099 -122.818)"/>
          <path id="Path_71383" data-name="Path 71383" d="M339.143,319.541s-.569,20.6.056,41.993a213.713,213.713,0,0,0,6.019,42" transform="translate(-265.814 -169.511)" fill="none" stroke="#3f4253" stroke-linecap="round" stroke-linejoin="round" stroke-width="1"/>
          <line id="Line_58" data-name="Line 58" y1="4.547" x2="11.068" transform="translate(102.797 158.877)" fill="none" stroke="#3f4253" stroke-miterlimit="10" stroke-width="1"/>
          <line id="Line_59" data-name="Line 59" x1="8.146" y2="2.531" transform="translate(130.127 198.587)" fill="none" stroke="#3f4253" stroke-miterlimit="10" stroke-width="1"/>
          <path id="Path_71384" data-name="Path 71384" d="M334.933,278.26s5.33,15.192-.728,25.647" transform="translate(-269.915 -205.52)" fill="none" stroke="#ffb9b9" stroke-linecap="round" stroke-linejoin="round" stroke-width="1"/>
          <path id="Path_71385" data-name="Path 71385" d="M364.534,298.145s-11.234.208-16.851,2.348" transform="translate(-258.158 -188.174)" fill="none" stroke="#ffb9b9" stroke-linecap="round" stroke-linejoin="round" stroke-width="1"/>
        </g>
      </g>
    </g>
  </g>
</svg>
