<svg xmlns="http://www.w3.org/2000/svg" xmlns:xlink="http://www.w3.org/1999/xlink" width="800" height="700" viewBox="0 0 800 700">
  <defs>
    <clipPath id="clip-Android_App_Development">
      <rect width="800" height="700"/>
    </clipPath>
  </defs>
  <g id="Android_App_Development" data-name="Android App Development" clip-path="url(#clip-Android_App_Development)">
    <g id="Group_14365" data-name="Group 14365" transform="translate(-3671.036 -1340.636)">
      <g id="Group_13859" data-name="Group 13859" transform="translate(3794.931 1476.71)">
        <g id="Group_13858" data-name="Group 13858">
          <path id="Path_69480" data-name="Path 69480" d="M3910.04,1683.524h-27.831a10.375,10.375,0,0,1-10.363-10.363v-23.212a75.424,75.424,0,0,1-9.546-3.956l-16.437,16.418a10.379,10.379,0,0,1-14.647,0l-19.687-19.67a10.36,10.36,0,0,1,0-14.658l16.433-16.432a79.072,79.072,0,0,1-3.974-9.546h-23.194a10.374,10.374,0,0,1-10.363-10.362V1563.91a10.374,10.374,0,0,1,10.363-10.362h23.194a78.989,78.989,0,0,1,3.974-9.546l-16.433-16.433a10.36,10.36,0,0,1,0-14.658l19.687-19.67a10.377,10.377,0,0,1,14.647,0l16.437,16.417a75.489,75.489,0,0,1,9.546-3.955V1482.49a10.375,10.375,0,0,1,10.363-10.363h27.831a10.374,10.374,0,0,1,10.362,10.363v23.216a77.476,77.476,0,0,1,9.543,3.955l16.412-16.411a10.374,10.374,0,0,1,14.651,0l19.684,19.666a10.36,10.36,0,0,1,0,14.658L3964.268,1544a73.775,73.775,0,0,1,3.978,9.552h23.215a10.374,10.374,0,0,1,10.363,10.362v27.832a10.375,10.375,0,0,1-10.363,10.362h-23.215a73.7,73.7,0,0,1-3.978,9.551l16.427,16.427a10.36,10.36,0,0,1,0,14.658l-19.684,19.665a10.374,10.374,0,0,1-14.651,0l-16.412-16.411a77.61,77.61,0,0,1-9.543,3.955v23.215A10.374,10.374,0,0,1,3910.04,1683.524Zm-48.533-42.6,1.346.7a70.974,70.974,0,0,0,11.679,4.833l1.459.452v26.25a6.224,6.224,0,0,0,6.217,6.217h27.831a6.224,6.224,0,0,0,6.217-6.217v-26.246l1.455-.453a73.293,73.293,0,0,0,11.688-4.838l1.345-.693,18.542,18.541a6.225,6.225,0,0,0,8.791,0l19.684-19.664a6.218,6.218,0,0,0,0-8.8l-18.577-18.576.713-1.351a69.437,69.437,0,0,0,4.859-11.672l.454-1.455h26.246a6.225,6.225,0,0,0,6.218-6.217V1563.91a6.225,6.225,0,0,0-6.218-6.217h-26.246l-.454-1.455a69.4,69.4,0,0,0-4.859-11.672l-.713-1.351,18.577-18.575a6.217,6.217,0,0,0,0-8.8l-19.684-19.665a6.226,6.226,0,0,0-8.791,0l-18.542,18.542-1.345-.694a73.393,73.393,0,0,0-11.688-4.837l-1.455-.454V1482.49a6.224,6.224,0,0,0-6.217-6.217h-27.831a6.224,6.224,0,0,0-6.217,6.217v26.25l-1.459.452a71.106,71.106,0,0,0-11.679,4.833l-1.346.7-18.574-18.55a6.226,6.226,0,0,0-8.788,0l-19.688,19.668a6.22,6.22,0,0,0,0,8.8l18.569,18.568-.7,1.347a74.784,74.784,0,0,0-4.868,11.7l-.461,1.442h-26.206a6.224,6.224,0,0,0-6.217,6.217v27.832a6.224,6.224,0,0,0,6.217,6.217H3827l.461,1.442a74.734,74.734,0,0,0,4.868,11.7l.7,1.347-18.569,18.569a6.22,6.22,0,0,0,0,8.8l19.688,19.668a6.225,6.225,0,0,0,8.788,0Zm34.617-31.421a31.68,31.68,0,1,1,31.679-31.68A31.716,31.716,0,0,1,3896.125,1609.506Zm0-59.215a27.535,27.535,0,1,0,27.534,27.535A27.567,27.567,0,0,0,3896.125,1550.291Z" transform="translate(-3790.426 -1472.127)" fill="#fce0d1"/>
        </g>
      </g>
      <g id="Group_13861" data-name="Group 13861" transform="translate(4249.225 1589.386)">
        <g id="Group_13860" data-name="Group 13860">
          <path id="Path_69481" data-name="Path 69481" d="M4303.483,1730.223h-20.038a7.469,7.469,0,0,1-7.46-7.461V1706.05a54.3,54.3,0,0,1-6.874-2.849l-11.835,11.82a7.473,7.473,0,0,1-10.546,0l-14.175-14.162a7.461,7.461,0,0,1,0-10.555l11.831-11.831a57.144,57.144,0,0,1-2.861-6.872h-16.7a7.47,7.47,0,0,1-7.46-7.461V1644.1a7.47,7.47,0,0,1,7.46-7.461h16.7a57.166,57.166,0,0,1,2.861-6.873l-11.831-11.832a7.459,7.459,0,0,1,0-10.553l14.175-14.162a7.472,7.472,0,0,1,10.546,0l11.835,11.821a54.359,54.359,0,0,1,6.874-2.849v-16.712a7.469,7.469,0,0,1,7.46-7.462h20.038a7.47,7.47,0,0,1,7.462,7.462v16.714a55.749,55.749,0,0,1,6.871,2.849l11.815-11.816a7.471,7.471,0,0,1,10.549,0l14.172,14.159a7.462,7.462,0,0,1,0,10.555l-11.828,11.826a53.056,53.056,0,0,1,2.863,6.877h16.716a7.469,7.469,0,0,1,7.46,7.461v20.039a7.469,7.469,0,0,1-7.46,7.461h-16.716a52.965,52.965,0,0,1-2.863,6.876l11.828,11.827a7.462,7.462,0,0,1,0,10.555l-14.172,14.159a7.471,7.471,0,0,1-10.549,0l-11.815-11.816a55.986,55.986,0,0,1-6.871,2.847v16.715A7.471,7.471,0,0,1,4303.483,1730.223Zm-34.943-30.67.969.5a51.21,51.21,0,0,0,8.409,3.48l1.05.326v18.9a4.482,4.482,0,0,0,4.478,4.477h20.038a4.482,4.482,0,0,0,4.477-4.477v-18.9l1.046-.327a52.672,52.672,0,0,0,8.416-3.483l.969-.5,13.351,13.35a4.483,4.483,0,0,0,6.33,0l14.173-14.159a4.476,4.476,0,0,0,0-6.333l-13.375-13.375.514-.973a50.022,50.022,0,0,0,3.5-8.4l.327-1.047h18.9a4.481,4.481,0,0,0,4.477-4.477V1644.1a4.481,4.481,0,0,0-4.477-4.477h-18.9l-.327-1.048a50.047,50.047,0,0,0-3.5-8.4l-.514-.972,13.375-13.376a4.476,4.476,0,0,0,0-6.332l-14.173-14.159a4.483,4.483,0,0,0-6.33,0l-13.35,13.35-.97-.5a52.558,52.558,0,0,0-8.416-3.483l-1.046-.328v-18.9a4.481,4.481,0,0,0-4.477-4.477h-20.038a4.482,4.482,0,0,0-4.478,4.477v18.9l-1.05.325a51.3,51.3,0,0,0-8.409,3.48l-.969.5-13.374-13.356a4.484,4.484,0,0,0-6.328,0l-14.175,14.162a4.477,4.477,0,0,0,0,6.332l13.37,13.37-.5.969a53.745,53.745,0,0,0-3.506,8.421l-.332,1.039h-18.869a4.481,4.481,0,0,0-4.476,4.477v20.039a4.481,4.481,0,0,0,4.476,4.477h18.869l.332,1.039a53.722,53.722,0,0,0,3.506,8.42l.5.971-13.37,13.369a4.479,4.479,0,0,0,0,6.334l14.175,14.162a4.485,4.485,0,0,0,6.328,0Zm24.925-22.623a22.81,22.81,0,1,1,22.808-22.81A22.837,22.837,0,0,1,4293.465,1676.93Zm0-42.634a19.825,19.825,0,1,0,19.826,19.825A19.847,19.847,0,0,0,4293.465,1634.3Z" transform="translate(-4217.362 -1578.018)" fill="#fce0d1"/>
        </g>
      </g>
      <g id="Group_13879" data-name="Group 13879" transform="translate(3720.118 1637.371)">
        <g id="Group_13863" data-name="Group 13863" transform="translate(148.335 46.2)">
          <path id="Path_69482" data-name="Path 69482" d="M3872.677,1730.176c-4.456-1.206-8.066-4.583-10.159-9.512a27.579,27.579,0,0,1,8.589-31.189,16.982,16.982,0,0,1,10.028-3.557,13.785,13.785,0,0,1,3.6.476l1.221.33.335-1.214c2.837-10.309,10.986-17.79,19.379-17.79a13.828,13.828,0,0,1,3.6.477c4.459,1.2,8.067,4.583,10.16,9.512a26.178,26.178,0,0,1,.768,16.958l-12.386,45Z" transform="translate(-3859.444 -1666.456)" fill="#fce8de"/>
          <g id="Group_13862" data-name="Group 13862">
            <path id="Path_69483" data-name="Path 69483" d="M3902.962,1666.532h0Z" transform="translate(-3856.737 -1666.532)" fill="#ededf7"/>
            <path id="Path_69484" data-name="Path 69484" d="M3920.675,1677.291c-2.15-5.062-5.977-8.882-11-10.237a15.023,15.023,0,0,0-3.934-.521v2.526h0a12.535,12.535,0,0,1,3.27.432c4.074,1.1,7.386,4.221,9.319,8.773a24.918,24.918,0,0,1,.717,16.144L3907,1738.2l-33.914-9.164c-4.074-1.1-7.386-4.22-9.319-8.772a26.322,26.322,0,0,1,8.166-29.691,15.73,15.73,0,0,1,9.278-3.313,12.544,12.544,0,0,1,3.266.432l2.442.66.668-2.429c2.689-9.769,10.325-16.86,18.156-16.86v-2.526h0c-8.826,0-17.547,7.614-20.6,18.719a15,15,0,0,0-3.93-.52,18.29,18.29,0,0,0-10.788,3.809,28.833,28.833,0,0,0-9,32.692c2.152,5.063,5.978,8.882,11,10.239l36.356,9.823,12.72-46.219A27.5,27.5,0,0,0,3920.675,1677.291Z" transform="translate(-3859.52 -1666.532)" fill="#fff"/>
          </g>
        </g>
        <g id="Group_13865" data-name="Group 13865" transform="translate(99.67 32.409)">
          <g id="Group_13864" data-name="Group 13864">
            <path id="Path_69485" data-name="Path 69485" d="M3817.248,1826.474h-3.462c0-61.763,6.258-105.43,11.507-131.186,5.705-28,11.342-41.17,11.579-41.717l3.18,1.352C3839.823,1655.451,3817.248,1709.017,3817.248,1826.474Z" transform="translate(-3813.786 -1653.571)" fill="#fce0d1"/>
          </g>
        </g>
        <g id="Group_13867" data-name="Group 13867" transform="translate(107.345 48.915)">
          <g id="Group_13866" data-name="Group 13866">
            <path id="Path_69486" data-name="Path 69486" d="M3824.46,1821.914H3821c0-44.715,3.293-82.822,9.525-110.2,5.353-23.516,12.7-38.255,20.7-41.5,14.394-5.838,36.577,12.775,37.514,13.569l-2.251,2.606a87.121,87.121,0,0,0-12.542-8.539c-6.255-3.46-15.047-7.043-21.41-4.463-6.718,2.725-13.683,17.333-18.632,39.077C3827.725,1739.6,3824.46,1777.449,3824.46,1821.914Z" transform="translate(-3820.999 -1669.084)" fill="#fce0d1"/>
          </g>
        </g>
        <g id="Group_13869" data-name="Group 13869" transform="translate(59.663 28.117)">
          <g id="Group_13868" data-name="Group 13868">
            <path id="Path_69487" data-name="Path 69487" d="M3814.627,1826.732h-3.461c0-142.55,0-168.236-17.9-173.114-3.883-1.059-7.048-.822-9.4.71-3.554,2.313-4.247,6.931-4.254,6.977l-3.43-.46c.034-.25.883-6.17,5.75-9.363,3.221-2.112,7.342-2.507,12.247-1.172,11.147,3.038,15.7,12.3,18.038,36.694C3814.627,1712.078,3814.627,1755.234,3814.627,1826.732Z" transform="translate(-3776.188 -1649.538)" fill="#fce0d1"/>
          </g>
        </g>
        <g id="Group_13871" data-name="Group 13871" transform="translate(50.29 94.328)">
          <g id="Group_13870" data-name="Group 13870">
            <path id="Path_69488" data-name="Path 69488" d="M3811.73,1822.747c0-.647-.248-65.02-12.784-92.155-4.009-8.678-8.992-13.743-14.813-15.057-7.691-1.732-14.465,3.757-14.532,3.814l-2.222-2.63c.327-.271,8.107-6.63,17.487-4.534,6.943,1.551,12.738,7.263,17.226,16.98,12.849,27.812,13.095,90.905,13.1,93.577Z" transform="translate(-3767.379 -1711.761)" fill="#fce0d1"/>
          </g>
        </g>
        <g id="Group_13873" data-name="Group 13873" transform="translate(99.535 51.964)">
          <g id="Group_13872" data-name="Group 13872">
            <path id="Path_69489" data-name="Path 69489" d="M3819.226,1816.366h-3.462c0-48.8-2.085-143.393-2.106-144.343l3.459-.074C3817.14,1672.9,3819.226,1767.532,3819.226,1816.366Z" transform="translate(-3813.659 -1671.949)" fill="#fce0d1"/>
          </g>
        </g>
        <g id="Group_13874" data-name="Group 13874" transform="translate(45.039 192.703)">
          <path id="Path_69490" data-name="Path 69490" d="M3878.393,1814.664l-1.868,5.23-3.184,8.917-1.74,4.87-1.09,3.069-13.065,36.6a13.234,13.234,0,0,1-12.486,8.745H3794.9a13.226,13.226,0,0,1-12.581-9.019l-12.071-36.328-1.02-3.069-1.619-4.87-2.968-8.917-1.791-5.393a7.851,7.851,0,0,1,7.518-10.288h100.569A7.849,7.849,0,0,1,3878.393,1814.664Z" transform="translate(-3762.445 -1804.213)" fill="#f9dacb"/>
        </g>
        <path id="Path_69491" data-name="Path 69491" d="M3876.392,1818.95l-3.184,8.917H3767.475l-2.968-8.917Z" transform="translate(-3717.274 -1610.565)" fill="#fff"/>
        <path id="Path_69492" data-name="Path 69492" d="M3871.193,1831.907l-1.09,3.069H3769.838l-1.021-3.069Z" transform="translate(-3716.998 -1609.735)" fill="#fff"/>
        <g id="Group_13875" data-name="Group 13875" transform="translate(101.401)">
          <path id="Path_69493" data-name="Path 69493" d="M3858.073,1667.374a25.209,25.209,0,0,1-11.9-2.755c-3.937-2.14-6.3-5.2-6.635-8.627l-.124-1.255-1.262.122c-.993.1-2,.146-2.982.146-9.921,0-17.884-4.893-18.527-11.382-.338-3.422,1.373-6.881,4.82-9.741a26.308,26.308,0,0,1,14.073-5.421l41.668-4.05,2.736,27.658c.339,3.421-1.372,6.881-4.819,9.742a26.314,26.314,0,0,1-14.073,5.419C3860.06,1667.326,3859.057,1667.374,3858.073,1667.374Z" transform="translate(-3815.336 -1623.031)" fill="#fce8de"/>
          <path id="Path_69494" data-name="Path 69494" d="M3881.285,1652.027l-2.861-28.913-42.929,4.172a27.637,27.637,0,0,0-14.763,5.707c-3.615,3-5.665,6.844-5.27,10.836.72,7.276,9.3,12.522,19.79,12.522q1.529,0,3.106-.151c.394,3.991,3.16,7.368,7.294,9.615a26.638,26.638,0,0,0,12.5,2.907c1.017,0,2.053-.05,3.1-.152a27.628,27.628,0,0,0,14.763-5.707C3879.629,1659.863,3881.679,1656.018,3881.285,1652.027Zm-6.885,8.888a25.033,25.033,0,0,1-13.395,5.141c-.951.093-1.912.139-2.855.139a24.277,24.277,0,0,1-11.285-2.6c-3.562-1.937-5.688-4.651-5.985-7.645l-.248-2.511-2.523.246c-.952.093-1.915.139-2.859.139-9.265,0-16.687-4.4-17.264-10.244-.3-2.993,1.255-6.064,4.359-8.641a25.05,25.05,0,0,1,13.4-5.141l40.406-3.926,2.614,26.4C3879.057,1655.267,3877.505,1658.338,3874.4,1660.915Z" transform="translate(-3815.413 -1623.114)" fill="#fff"/>
        </g>
        <g id="Group_13876" data-name="Group 13876" transform="translate(0 12.402)">
          <path id="Path_69495" data-name="Path 69495" d="M3780.4,1711.893q-.9,0-1.8-.05l-57.227-3.167,2.813-49.9a22.823,22.823,0,0,1,9.1-16.7,30.151,30.151,0,0,1,18.45-6.123q.9,0,1.8.05a30.165,30.165,0,0,1,19.449,8.273,22.767,22.767,0,0,1,7.16,17.594l-.071,1.261,1.267.07a30.035,30.035,0,0,1,19.44,8.277,22.169,22.169,0,0,1-1.929,34.288A30.154,30.154,0,0,1,3780.4,1711.893Z" transform="translate(-3720.038 -1634.693)" fill="#fce8de"/>
          <path id="Path_69496" data-name="Path 69496" d="M3781.5,1662.02a24.1,24.1,0,0,0-7.54-18.567,31.509,31.509,0,0,0-20.266-8.632q-.943-.053-1.874-.052a31.365,31.365,0,0,0-19.236,6.394,24.15,24.15,0,0,0-9.58,17.62l-2.884,51.16,58.495,3.237q.943.052,1.874.052a31.359,31.359,0,0,0,19.235-6.394,24.152,24.152,0,0,0,9.58-17.619C3810.1,1675.093,3797.646,1662.914,3781.5,1662.02Zm25.273,27.056a21.568,21.568,0,0,1-8.607,15.771,28.879,28.879,0,0,1-17.675,5.859c-.573,0-1.157-.016-1.732-.048l-55.961-3.1,2.741-48.638a21.569,21.569,0,0,1,8.608-15.769,28.879,28.879,0,0,1,17.675-5.859c.574,0,1.157.016,1.733.048a28.885,28.885,0,0,1,18.623,7.906,21.527,21.527,0,0,1,6.79,16.629l-.143,2.523,2.535.139a28.775,28.775,0,0,1,18.62,7.918A21.441,21.441,0,0,1,3806.769,1689.076Z" transform="translate(-3720.118 -1634.769)" fill="#fff"/>
        </g>
        <g id="Group_13877" data-name="Group 13877" transform="translate(64.578 45.607)">
          <path id="Path_69497" data-name="Path 69497" d="M3788.078,1701.882a19.961,19.961,0,0,1-.257-28.432,20.338,20.338,0,0,1,14.306-6.024h.124a20.353,20.353,0,0,1,14.281,5.77l.9.879.887-.894a20.439,20.439,0,0,1,28.71-.255,19.961,19.961,0,0,1,.257,28.432l-29.34,29.6Z" transform="translate(-3780.731 -1665.899)" fill="#fce8de"/>
          <path id="Path_69498" data-name="Path 69498" d="M3847.994,1672.1a60.117,60.117,0,0,1-45.668-5.861h-.138a21.664,21.664,0,0,0-15.193,6.4,21.219,21.219,0,0,0,.273,30.222l30.772,29.952,30.226-30.492a21.219,21.219,0,0,0-.272-30.222Zm-1.533,28.447-28.452,28.7-28.968-28.194a18.7,18.7,0,0,1-.24-26.642,19.062,19.062,0,0,1,13.4-5.649h.122a19.089,19.089,0,0,1,13.395,5.411l1.806,1.757,1.774-1.789a19.164,19.164,0,0,1,26.92-.238,18.7,18.7,0,0,1,.24,26.641Z" transform="translate(-3780.808 -1665.975)" fill="#fff"/>
        </g>
        <g id="Group_13878" data-name="Group 13878" transform="translate(11.523 82.829)">
          <path id="Path_69499" data-name="Path 69499" d="M3732.192,1723.65a19.907,19.907,0,0,1,4.9-14.6,20.241,20.241,0,0,1,13.887-6.859c.478-.033.955-.049,1.427-.049a20.5,20.5,0,0,1,13.321,4.938,20.055,20.055,0,0,1,6.951,13.784l.092,1.256,1.261-.087c.48-.033.958-.049,1.431-.049a20.333,20.333,0,0,1,20.268,18.723,19.91,19.91,0,0,1-4.895,14.6,20.245,20.245,0,0,1-13.887,6.859l-41.75,2.881Z" transform="translate(-3730.871 -1700.879)" fill="#fce8de"/>
          <path id="Path_69500" data-name="Path 69500" d="M3797.064,1740.692a21.55,21.55,0,0,0-21.533-19.895q-.753,0-1.517.053a21.368,21.368,0,0,0-7.388-14.65,21.723,21.723,0,0,0-14.149-5.245q-.752,0-1.514.053a21.57,21.57,0,0,0-14.759,7.291,21.224,21.224,0,0,0-5.2,15.518l3.092,42.651,43.01-2.968a21.573,21.573,0,0,0,14.759-7.292A21.223,21.223,0,0,0,3797.064,1740.692Zm-7.11,13.854a18.983,18.983,0,0,1-13.025,6.435l-40.488,2.793-2.908-40.139a18.65,18.65,0,0,1,4.579-13.673,18.984,18.984,0,0,1,13.026-6.436c.445-.031.9-.046,1.339-.046a19.222,19.222,0,0,1,12.485,4.624,18.8,18.8,0,0,1,6.522,12.925l.182,2.512,2.524-.175c.445-.031.9-.046,1.343-.046a19.063,19.063,0,0,1,19,17.55A18.654,18.654,0,0,1,3789.955,1754.546Z" transform="translate(-3730.947 -1700.955)" fill="#fff"/>
        </g>
      </g>
      <g id="Group_13897" data-name="Group 13897" transform="translate(4278.204 1723.959)">
        <g id="Group_13881" data-name="Group 13881" transform="translate(100.868 31.416)">
          <path id="Path_69501" data-name="Path 69501" d="M4348.338,1777.289a10.665,10.665,0,0,1-6.908-6.467,18.754,18.754,0,0,1,5.839-21.209,11.551,11.551,0,0,1,6.82-2.419,9.37,9.37,0,0,1,2.446.324l.83.224.228-.826c1.929-7.01,7.471-12.1,13.178-12.1a9.4,9.4,0,0,1,2.451.325,10.66,10.66,0,0,1,6.909,6.468,17.8,17.8,0,0,1,.521,11.531l-8.422,30.6Z" transform="translate(-4339.34 -1733.96)" fill="#fce8de"/>
          <g id="Group_13880" data-name="Group 13880">
            <path id="Path_69502" data-name="Path 69502" d="M4368.932,1734.012Z" transform="translate(-4337.498 -1734.012)" fill="#ededf7"/>
            <path id="Path_69503" data-name="Path 69503" d="M4380.977,1741.329a11.554,11.554,0,0,0-7.479-6.962,10.211,10.211,0,0,0-2.675-.354v1.718h0a8.493,8.493,0,0,1,2.223.295,9.817,9.817,0,0,1,6.337,5.965,16.95,16.95,0,0,1,.486,10.978l-8.194,29.777-23.062-6.233a9.816,9.816,0,0,1-6.337-5.965,17.9,17.9,0,0,1,5.553-20.19,10.7,10.7,0,0,1,6.31-2.253,8.525,8.525,0,0,1,2.221.294l1.661.449.455-1.652c1.829-6.643,7.021-11.464,12.347-11.465v-1.718h0c-6,0-11.931,5.177-14.009,12.729a10.242,10.242,0,0,0-2.673-.353,12.442,12.442,0,0,0-7.337,2.59,19.607,19.607,0,0,0-6.117,22.231,11.553,11.553,0,0,0,7.478,6.962l24.72,6.68,8.65-31.429A18.7,18.7,0,0,0,4380.977,1741.329Z" transform="translate(-4339.391 -1734.012)" fill="#fff"/>
          </g>
        </g>
        <g id="Group_13883" data-name="Group 13883" transform="translate(67.776 22.038)">
          <g id="Group_13882" data-name="Group 13882">
            <path id="Path_69504" data-name="Path 69504" d="M4310.646,1842.772h-2.354c0-42,4.254-71.692,7.824-89.206,3.88-19.038,7.713-28,7.873-28.367l2.164.919C4326,1726.477,4310.646,1762.9,4310.646,1842.772Z" transform="translate(-4308.292 -1725.199)" fill="#fce0d1"/>
          </g>
        </g>
        <g id="Group_13885" data-name="Group 13885" transform="translate(72.994 33.262)">
          <g id="Group_13884" data-name="Group 13884">
            <path id="Path_69505" data-name="Path 69505" d="M4315.55,1839.671H4313.2c0-30.4,2.24-56.318,6.479-74.937,3.639-15.991,8.637-26.012,14.073-28.217,9.789-3.97,24.872,8.687,25.51,9.228l-1.53,1.772a59.11,59.11,0,0,0-8.53-5.807c-4.251-2.354-10.23-4.789-14.558-3.035-4.568,1.853-9.3,11.787-12.67,26.572C4317.771,1783.7,4315.55,1809.436,4315.55,1839.671Z" transform="translate(-4313.195 -1735.747)" fill="#fce0d1"/>
          </g>
        </g>
        <g id="Group_13887" data-name="Group 13887" transform="translate(40.571 19.119)">
          <g id="Group_13886" data-name="Group 13886">
            <path id="Path_69506" data-name="Path 69506" d="M4308.864,1842.948h-2.354c0-96.934,0-114.4-12.172-117.717-2.641-.72-4.792-.559-6.389.482a7.5,7.5,0,0,0-2.892,4.745l-2.332-.312a9.774,9.774,0,0,1,3.91-6.367c2.19-1.437,4.993-1.7,8.328-.8,7.579,2.066,10.674,8.363,12.265,24.953C4308.864,1764.984,4308.864,1794.329,4308.864,1842.948Z" transform="translate(-4282.725 -1722.456)" fill="#fce0d1"/>
          </g>
        </g>
        <g id="Group_13889" data-name="Group 13889" transform="translate(34.198 64.142)">
          <g id="Group_13888" data-name="Group 13888">
            <path id="Path_69507" data-name="Path 69507" d="M4306.895,1840.239c0-.441-.17-44.214-8.693-62.667-2.726-5.9-6.115-9.344-10.074-10.237-5.23-1.179-9.836,2.555-9.882,2.593l-1.51-1.789c.223-.185,5.513-4.509,11.891-3.084,4.72,1.056,8.662,4.939,11.714,11.547,8.737,18.912,8.9,61.815,8.907,63.633Z" transform="translate(-4276.736 -1764.768)" fill="#fce0d1"/>
          </g>
        </g>
        <g id="Group_13891" data-name="Group 13891" transform="translate(67.684 35.335)">
          <g id="Group_13890" data-name="Group 13890">
            <path id="Path_69508" data-name="Path 69508" d="M4311.991,1835.9h-2.354c0-33.182-1.418-97.508-1.432-98.154l2.353-.051C4310.573,1738.342,4311.991,1802.692,4311.991,1835.9Z" transform="translate(-4308.205 -1737.695)" fill="#fce0d1"/>
          </g>
        </g>
        <g id="Group_13892" data-name="Group 13892" transform="translate(30.626 131.038)">
          <path id="Path_69509" data-name="Path 69509" d="M4352.225,1834.742l-1.271,3.556-2.165,6.064-1.183,3.312-.742,2.087-8.884,24.889a9,9,0,0,1-8.491,5.947h-34.042a8.992,8.992,0,0,1-8.554-6.133l-8.208-24.7-.694-2.087-1.1-3.312-2.019-6.064-1.219-3.667a5.339,5.339,0,0,1,5.113-7h68.385A5.338,5.338,0,0,1,4352.225,1834.742Z" transform="translate(-4273.379 -1827.635)" fill="#f9dacb"/>
        </g>
        <path id="Path_69510" data-name="Path 69510" d="M4350.864,1837.656l-2.165,6.063h-71.9l-2.018-6.063Z" transform="translate(-4242.663 -1695.955)" fill="#fff"/>
        <path id="Path_69511" data-name="Path 69511" d="M4347.329,1846.467l-.742,2.087h-68.18l-.694-2.087Z" transform="translate(-4242.476 -1695.391)" fill="#fff"/>
        <g id="Group_13893" data-name="Group 13893" transform="translate(68.953)">
          <path id="Path_69512" data-name="Path 69512" d="M4338.407,1734.585a17.15,17.15,0,0,1-8.09-1.874c-2.678-1.454-4.281-3.539-4.51-5.866l-.086-.854-.857.084c-.676.066-1.358.1-2.028.1-6.746,0-12.161-3.328-12.6-7.741-.23-2.326.933-4.679,3.278-6.624a17.889,17.889,0,0,1,9.57-3.686l28.335-2.754,1.86,18.807c.23,2.327-.934,4.68-3.277,6.624a17.892,17.892,0,0,1-9.57,3.686C4339.758,1734.552,4339.076,1734.585,4338.407,1734.585Z" transform="translate(-4309.346 -1704.432)" fill="#fce8de"/>
          <path id="Path_69513" data-name="Path 69513" d="M4354.19,1724.149l-1.945-19.661-29.192,2.837a18.8,18.8,0,0,0-10.038,3.881c-2.458,2.04-3.854,4.654-3.583,7.368.489,4.948,6.323,8.516,13.456,8.516.693,0,1.4-.034,2.112-.1.269,2.714,2.15,5.01,4.961,6.538a18.1,18.1,0,0,0,8.5,1.977c.691,0,1.4-.034,2.107-.1a18.788,18.788,0,0,0,10.04-3.881C4353.066,1729.477,4354.459,1726.862,4354.19,1724.149Zm-4.681,6.044a17.027,17.027,0,0,1-9.108,3.5c-.647.063-1.3.095-1.941.095a16.515,16.515,0,0,1-7.674-1.766c-2.423-1.317-3.869-3.164-4.071-5.2l-.167-1.708-1.716.167c-.649.063-1.3.095-1.945.095-6.3,0-11.346-3-11.74-6.966-.2-2.035.855-4.123,2.964-5.875a17.025,17.025,0,0,1,9.11-3.5l27.476-2.67,1.776,17.953C4352.675,1726.352,4351.621,1728.44,4349.51,1730.193Z" transform="translate(-4309.398 -1704.488)" fill="#fff"/>
        </g>
        <g id="Group_13894" data-name="Group 13894" transform="translate(0 8.433)">
          <path id="Path_69514" data-name="Path 69514" d="M4285.592,1764.857c-.406,0-.813-.012-1.226-.034l-38.914-2.154,1.913-33.931a15.522,15.522,0,0,1,6.188-11.354,20.5,20.5,0,0,1,12.546-4.164c.405,0,.815.012,1.226.034a20.512,20.512,0,0,1,13.226,5.627,15.477,15.477,0,0,1,4.869,11.963l-.049.858.862.048a20.427,20.427,0,0,1,13.219,5.628,15.075,15.075,0,0,1-1.313,23.316A20.5,20.5,0,0,1,4285.592,1764.857Z" transform="translate(-4244.542 -1712.361)" fill="#fff"/>
          <path id="Path_69515" data-name="Path 69515" d="M4286.333,1730.944a16.378,16.378,0,0,0-5.126-12.625,21.424,21.424,0,0,0-13.781-5.871q-.642-.035-1.273-.035a21.321,21.321,0,0,0-13.08,4.348,16.421,16.421,0,0,0-6.515,11.981l-1.96,34.789,39.777,2.2q.64.035,1.273.035a21.321,21.321,0,0,0,13.08-4.348,16.427,16.427,0,0,0,6.516-11.981C4305.784,1739.833,4297.317,1731.551,4286.333,1730.944Zm17.187,18.4a14.671,14.671,0,0,1-5.854,10.723,19.638,19.638,0,0,1-12.02,3.985c-.39,0-.787-.011-1.177-.033l-38.054-2.106,1.864-33.074a14.667,14.667,0,0,1,5.852-10.723,19.641,19.641,0,0,1,12.02-3.985c.39,0,.787.011,1.178.033a19.636,19.636,0,0,1,12.663,5.377,14.638,14.638,0,0,1,4.619,11.307l-.1,1.716,1.723.095a19.566,19.566,0,0,1,12.662,5.384A14.582,14.582,0,0,1,4303.521,1749.343Z" transform="translate(-4244.597 -1712.413)" fill="#ededf7"/>
        </g>
        <g id="Group_13895" data-name="Group 13895" transform="translate(43.914 31.013)">
          <path id="Path_69516" data-name="Path 69516" d="M4290.81,1758.05a13.572,13.572,0,0,1-.175-19.333,13.831,13.831,0,0,1,9.728-4.1h.084a13.837,13.837,0,0,1,9.71,3.924l.614.6.6-.609a13.9,13.9,0,0,1,19.522-.173,13.573,13.573,0,0,1,.175,19.334l-19.952,20.126Z" transform="translate(-4285.814 -1733.581)" fill="#fce8de"/>
          <path id="Path_69517" data-name="Path 69517" d="M4331.553,1737.8a40.88,40.88,0,0,1-31.054-3.985h-.094a14.731,14.731,0,0,0-10.331,4.352,14.428,14.428,0,0,0,.187,20.551l20.925,20.367,20.554-20.734a14.43,14.43,0,0,0-.186-20.552Zm-1.042,19.345-19.347,19.518-19.7-19.172a12.716,12.716,0,0,1-.164-18.116,12.965,12.965,0,0,1,9.115-3.842h.082a12.982,12.982,0,0,1,9.109,3.68l1.227,1.195,1.207-1.216a13.033,13.033,0,0,1,18.306-.163,12.717,12.717,0,0,1,.164,18.117Z" transform="translate(-4285.867 -1733.633)" fill="#fff"/>
        </g>
        <g id="Group_13896" data-name="Group 13896" transform="translate(7.836 56.324)">
          <path id="Path_69518" data-name="Path 69518" d="M4252.808,1772.853a13.538,13.538,0,0,1,3.328-9.929,13.768,13.768,0,0,1,9.443-4.664c.325-.022.649-.034.971-.034a13.943,13.943,0,0,1,9.058,3.359,13.633,13.633,0,0,1,4.727,9.373l.062.853.858-.059c.327-.022.651-.033.974-.033a13.824,13.824,0,0,1,13.781,12.73,13.536,13.536,0,0,1-3.327,9.929,13.768,13.768,0,0,1-9.444,4.664l-28.39,1.959Z" transform="translate(-4251.909 -1757.368)" fill="#ededf7"/>
          <path id="Path_69519" data-name="Path 69519" d="M4296.921,1784.44a14.653,14.653,0,0,0-14.642-13.528q-.513,0-1.033.035a14.537,14.537,0,0,0-5.023-9.962,14.775,14.775,0,0,0-9.62-3.566q-.513,0-1.032.035a14.669,14.669,0,0,0-10.035,4.959,14.433,14.433,0,0,0-3.537,10.552l2.1,29,29.248-2.018a14.667,14.667,0,0,0,10.036-4.959A14.427,14.427,0,0,0,4296.921,1784.44Zm-4.834,9.421a12.912,12.912,0,0,1-8.858,4.377l-27.531,1.9-1.979-27.295a12.68,12.68,0,0,1,3.113-9.3,12.912,12.912,0,0,1,8.859-4.377c.3-.02.608-.031.911-.031a13.072,13.072,0,0,1,8.489,3.144,12.79,12.79,0,0,1,4.434,8.789l.124,1.709,1.715-.119c.3-.02.611-.031.914-.031a12.961,12.961,0,0,1,12.922,11.933A12.679,12.679,0,0,1,4292.087,1793.861Z" transform="translate(-4251.961 -1757.42)" fill="#fff"/>
        </g>
      </g>
      <g id="Group_13911" data-name="Group 13911" transform="translate(4071.036 1400.608)">
        <rect id="Rectangle_1902" data-name="Rectangle 1902" width="253.675" height="507.351" rx="40.938" transform="translate(257.903 507.351) rotate(180)" fill="#3f3d56"/>
        <rect id="Rectangle_1903" data-name="Rectangle 1903" width="245.22" height="498.895" rx="38.208" transform="translate(253.675 503.123) rotate(180)" fill="#fff"/>
        <path id="Path_69520" data-name="Path 69520" d="M4296.347,1450.49v408.67a37.536,37.536,0,0,1-37.638,37.432H4101.45a37.536,37.536,0,0,1-37.639-37.432V1450.49a37.535,37.535,0,0,1,37.639-37.431h28.306a29.1,29.1,0,0,1,29.184,29.022v94.544c0,11.789,9.7,21.713,21.554,21.494a21.084,21.084,0,0,0,20.725-21.023v-95.015a29.1,29.1,0,0,1,29.185-29.022h28.307A37.535,37.535,0,0,1,4296.347,1450.49Z" transform="translate(-4049.013 -1399.81)" fill="#f7f4ee"/>
        <path id="Rectangle_1904" data-name="Rectangle 1904" d="M3.973,0h.255a0,0,0,0,1,0,0V42.279a0,0,0,0,1,0,0H3.973A3.973,3.973,0,0,1,0,38.306V3.973A3.973,3.973,0,0,1,3.973,0Z" transform="translate(262.131 156.433) rotate(180)" fill="#3f3d56"/>
        <g id="Group_13898" data-name="Group 13898" transform="translate(0 97.173)">
          <path id="Rectangle_1905" data-name="Rectangle 1905" d="M3.973,0h.255a0,0,0,0,1,0,0V25.368a0,0,0,0,1,0,0H3.973A3.973,3.973,0,0,1,0,21.394V3.973A3.973,3.973,0,0,1,3.973,0Z" transform="translate(0 50.872)" fill="#6b27ff"/>
          <path id="Rectangle_1906" data-name="Rectangle 1906" d="M3.973,0h.255a0,0,0,0,1,0,0V25.368a0,0,0,0,1,0,0H3.973A3.973,3.973,0,0,1,0,21.394V3.973A3.973,3.973,0,0,1,3.973,0Z" fill="#6b27ff"/>
        </g>
        <g id="Group_13901" data-name="Group 13901" transform="translate(115.807 24.907)">
          <g id="Group_13900" data-name="Group 13900" transform="translate(0 0)">
            <g id="Group_13899" data-name="Group 13899" transform="translate(0)">
              <circle id="Ellipse_120" data-name="Ellipse 120" cx="12.684" cy="12.684" r="12.684" transform="translate(0 24.689) rotate(-76.718)" fill="#4c4c78" opacity="0.15"/>
            </g>
          </g>
          <circle id="Ellipse_121" data-name="Ellipse 121" cx="8.456" cy="8.456" r="8.456" transform="translate(6.803 6.803)" fill="#4c4c78"/>
        </g>
        <g id="Group_13904" data-name="Group 13904" transform="translate(115.807 58.73)">
          <g id="Group_13903" data-name="Group 13903" transform="translate(0 0)">
            <g id="Group_13902" data-name="Group 13902" transform="translate(0)">
              <circle id="Ellipse_122" data-name="Ellipse 122" cx="12.684" cy="12.684" r="12.684" transform="translate(0 24.689) rotate(-76.718)" fill="#4c4c78" opacity="0.15"/>
            </g>
          </g>
          <circle id="Ellipse_123" data-name="Ellipse 123" cx="8.456" cy="8.456" r="8.456" transform="translate(5.086 21.545) rotate(-76.718)" fill="#4c4c78"/>
        </g>
        <g id="Group_13907" data-name="Group 13907" transform="translate(119.107 91.625)">
          <g id="Group_13906" data-name="Group 13906" transform="translate(0 0)">
            <g id="Group_13905" data-name="Group 13905">
              <circle id="Ellipse_124" data-name="Ellipse 124" cx="8.456" cy="8.456" r="8.456" transform="translate(0 11.958) rotate(-45)" fill="#4c4c78" opacity="0.15"/>
            </g>
          </g>
          <circle id="Ellipse_125" data-name="Ellipse 125" cx="5.074" cy="5.074" r="5.074" transform="translate(6.885 6.885)" fill="#4c4c78"/>
        </g>
        <g id="Group_13910" data-name="Group 13910" transform="translate(123.79 121.676)">
          <g id="Group_13909" data-name="Group 13909" transform="translate(0 0)">
            <g id="Group_13908" data-name="Group 13908" transform="translate(0)">
              <circle id="Ellipse_126" data-name="Ellipse 126" cx="6.342" cy="6.342" r="6.342" transform="translate(0 12.52) rotate(-80.783)" fill="#4c4c78" opacity="0.15"/>
            </g>
          </g>
          <path id="Path_69521" data-name="Path 69521" d="M4176.663,1522a3.382,3.382,0,1,1-3.382-3.383A3.382,3.382,0,0,1,4176.663,1522Z" transform="translate(-4166.005 -1514.722)" fill="#4c4c78"/>
        </g>
        <path id="Path_69522" data-name="Path 69522" d="M4296.347,1772.662V1860.9a16.908,16.908,0,0,1-16.912,16.912H4080.722a16.908,16.908,0,0,1-16.911-16.912V1713.615a254.089,254.089,0,0,1,232.536,59.048Z" transform="translate(-4049.013 -1381.03)" fill="#f3deb5"/>
      </g>
      <g id="Group_13916" data-name="Group 13916" transform="translate(3897.691 1400.608)">
        <rect id="Rectangle_1907" data-name="Rectangle 1907" width="253.675" height="507.351" rx="40.938" transform="translate(4.228)" fill="#3f3d56"/>
        <rect id="Rectangle_1908" data-name="Rectangle 1908" width="245.22" height="498.895" rx="38.208" transform="translate(8.456 4.228)" fill="#fff"/>
        <g id="Group_13912" data-name="Group 13912" transform="translate(14.797 10.57)">
          <path id="Path_69523" data-name="Path 69523" d="M4133.44,1446.351v414.59a35.811,35.811,0,0,1-35.811,35.812H3917.816a16.905,16.905,0,0,1-16.784-14.849,16.494,16.494,0,0,1-.128-2.063V1446.351a35.811,35.811,0,0,1,35.812-35.811h48.035a36.506,36.506,0,0,1,24.044,9.518,12.667,12.667,0,0,0,16.755,0,36.5,36.5,0,0,1,24.043-9.518h48.036A35.81,35.81,0,0,1,4133.44,1446.351Z" transform="translate(-3900.904 -1410.541)" fill="#f7f4ee"/>
        </g>
        <g id="Group_13914" data-name="Group 13914" transform="translate(126.838 8.455)">
          <g id="Group_13913" data-name="Group 13913">
            <path id="Path_69524" data-name="Path 69524" d="M4014.653,1412.783a4.228,4.228,0,1,1-4.228-4.229A4.228,4.228,0,0,1,4014.653,1412.783Z" transform="translate(-4006.198 -1408.554)" fill="#4c4c78"/>
          </g>
        </g>
        <path id="Rectangle_1909" data-name="Rectangle 1909" d="M3.973,0h.255a0,0,0,0,1,0,0V42.279a0,0,0,0,1,0,0H3.973A3.973,3.973,0,0,1,0,38.306V3.973A3.973,3.973,0,0,1,3.973,0Z" transform="translate(0 114.154)" fill="#3f3d56"/>
        <g id="Group_13915" data-name="Group 13915" transform="translate(257.903 97.174)">
          <path id="Rectangle_1910" data-name="Rectangle 1910" d="M3.973,0h.255a0,0,0,0,1,0,0V25.368a0,0,0,0,1,0,0H3.973A3.973,3.973,0,0,1,0,21.394V3.973A3.973,3.973,0,0,1,3.973,0Z" transform="translate(4.228 76.24) rotate(-180)" fill="#3f3d56"/>
          <path id="Rectangle_1911" data-name="Rectangle 1911" d="M3.973,0h.255a0,0,0,0,1,0,0V25.368a0,0,0,0,1,0,0H3.973A3.973,3.973,0,0,1,0,21.394V3.973A3.973,3.973,0,0,1,3.973,0Z" transform="translate(4.228 25.368) rotate(180)" fill="#3f3d56"/>
        </g>
        <path id="Path_69525" data-name="Path 69525" d="M4133.432,1706.157V1860.9a16.908,16.908,0,0,1-16.911,16.912H3917.809a16.905,16.905,0,0,1-16.785-14.849C3938.821,1771.529,4028.537,1707.01,4133.432,1706.157Z" transform="translate(-3886.099 -1381.029)" fill="#fceccd"/>
        <rect id="Rectangle_1912" data-name="Rectangle 1912" width="132.475" height="132.475" rx="27" transform="translate(69.654 131.625)" fill="#ffd1ba"/>
        <rect id="Rectangle_1913" data-name="Rectangle 1913" width="132.475" height="132.475" rx="20" transform="translate(63.457 125.428)" fill="#f16e2d"/>
        <path id="Path_69526" data-name="Path 69526" d="M4030.394,1613.58l-5.537-12.833h-27.423l-5.538,12.833h-16.261l28.919-61.966h12.832l29.007,61.966Zm-27.774-24.962h17.051l-8.525-19.865Z" transform="translate(-3881.318 -1390.932)" fill="#fff"/>
      </g>
      <g id="Group_13922" data-name="Group 13922" transform="translate(3803.502 1722.731)">
        <g id="Group_13918" data-name="Group 13918" transform="translate(22.433 48.401)">
          <path id="Path_69527" data-name="Path 69527" d="M3920.973,1931.709h5.222l-4.351-72.666h-13.926Z" transform="translate(-3813.902 -1741.757)" fill="#565661"/>
          <path id="Path_69528" data-name="Path 69528" d="M3897.8,1931.709h5.222l-4.352-72.666h-13.925Z" transform="translate(-3815.387 -1741.757)" fill="#565661"/>
          <path id="Path_69529" data-name="Path 69529" d="M3854.206,1931.709h5.222l13.056-72.666h-13.926Z" transform="translate(-3817.343 -1741.757)" fill="#565661"/>
          <path id="Path_69530" data-name="Path 69530" d="M3831.031,1931.709h5.222l13.056-72.666h-13.926Z" transform="translate(-3818.829 -1741.757)" fill="#565661"/>
          <g id="Group_13917" data-name="Group 13917">
            <path id="Path_69531" data-name="Path 69531" d="M3948.906,1785.895l-10.963,65.982a30.615,30.615,0,0,1-30.425,25.277H3854.9c-17.849,0-32.9-13-35.074-30.3h0a34.221,34.221,0,0,1,16-33.262l.069-.043a186.465,186.465,0,0,0,53.713-50.848h0a32.954,32.954,0,0,1,26.989-13.884h0C3936.767,1748.82,3952.135,1766.457,3948.906,1785.895Z" transform="translate(-3819.563 -1748.82)" fill="#f9e4d4"/>
          </g>
          <path id="Path_69532" data-name="Path 69532" d="M3935.008,1782.243l-7.616,45.838a21.267,21.267,0,0,1-21.136,17.56h-65.164c-12.4,0-13.229-7.286-13.128-14.448.129-9.217,20.7-22.186,28.794-27.338,14.661-9.327,27.165-23.631,37.06-37.723h0a22.894,22.894,0,0,1,18.75-9.645h0C3926.576,1756.488,3937.252,1768.74,3935.008,1782.243Z" transform="translate(-3819.025 -1748.329)" fill="#ffd8c5"/>
        </g>
        <g id="Group_13921" data-name="Group 13921">
          <path id="Path_69533" data-name="Path 69533" d="M3856.329,1785.177l-11.719,23.1,9.109,4.685,17.219-17.089S3871.829,1779.648,3856.329,1785.177Z" transform="translate(-3795.526 -1698.163)" fill="#f16e2d"/>
          <path id="Path_69534" data-name="Path 69534" d="M3905,1723.42l-.2,17.836-2.226,12.382-10.948,1.62-7.649-5.816,4.674-6.678h1.912l.85-5.2.434-2.68,10.9-10.986.74-.75.323.06Z" transform="translate(-3793.003 -1702.064)" fill="#f2a6a6"/>
          <path id="Path_69535" data-name="Path 69535" d="M3856.938,1918.18l-11.475,2.154s-19.273-58.14-21.822-67.188,3.047-30.046,14.1-36.939,26.773-15.51,26.773-15.51h40.372l-15.3,33.6-40.8,20.68Z" transform="translate(-3796.908 -1697.095)" fill="#454b69"/>
          <path id="Path_69536" data-name="Path 69536" d="M3901.622,1836.812c-19.967,11.449-51.848,18.236-51.848,18.236l-25.471,63.2-1.791,4.437h-14.871s.4-1.64,1.081-4.437c3.609-14.774,15.106-61.829,17.251-70.524,2.553-10.336,70.969-46.962,70.969-46.962l27.564-1.165S3925.924,1822.877,3901.622,1836.812Z" transform="translate(-3797.894 -1697.165)" fill="#454b69"/>
          <path id="Path_69537" data-name="Path 69537" d="M3874,1822.191l-43.154.264c-1.8.012-2.126-.717-.73-1.627l19.585-12.765a12.557,12.557,0,0,1,5.784-1.666l43.154-.264c1.8-.012,2.126.717.73,1.627l-19.584,12.764A12.558,12.558,0,0,1,3874,1822.191Z" transform="translate(-3796.509 -1696.746)" fill="#fff"/>
          <path id="Path_69538" data-name="Path 69538" d="M3931,1801.231c-2.55,1.293-3.977-3.981-7.166-7.858s-9.136-2.568-9.136-2.568l-4.674,13.769H3863.9v-13.666c-1.921-3.325-8.279-2.921-8.279-2.921,3.553-7.04,11.049-28,15.511-34.681a10.947,10.947,0,0,1,.986-1.266c5.329-6.032,18.35-10.366,18.35-10.366s-.851,7.54,4.887,7.54,11.262-9.048,11.262-9.048c5.474,0,11.958,2.766,17.126,6.824a29.608,29.608,0,0,1,6.612,7.075c5.329,8.289,5.1,27.141,5.312,35.56S3933.546,1799.939,3931,1801.231Z" transform="translate(-3794.82 -1700.973)" fill="#f16e2d"/>
          <path id="Path_69539" data-name="Path 69539" d="M3930.53,1798.027s-2.691-8.032-7.224-10.209-9.491,0-9.491,0-21.531,11.18-24.648,13.047-15.156,1.366-18.273,4.021-1.7,9.766,6.09,9.048,10.482-4.74,10.482-4.74S3924.768,1802.3,3930.53,1798.027Z" transform="translate(-3793.94 -1697.982)" fill="#f2a6a6"/>
          <path id="Path_69540" data-name="Path 69540" d="M3905.792,1720.194c-.056,2.22-1.211,3.991-2.579,3.956s-2.434-1.863-2.377-4.084,1.21-3.991,2.578-3.956S3905.848,1717.974,3905.792,1720.194Z" transform="translate(-3791.923 -1702.515)" fill="#f2a6a6"/>
          <g id="Group_13919" data-name="Group 13919" transform="translate(0 225.525)">
            <path id="Path_69541" data-name="Path 69541" d="M3820.552,1915.278v4.472a6.124,6.124,0,0,1-2.028,4.57,71.737,71.737,0,0,1-12.987,9.053c-4.746,2.352-8.451,2.528-6.545-2.354,1.9-4.856,7.031-8.094,9.236-15.742Z" transform="translate(-3798.481 -1915.278)" fill="#454b69"/>
          </g>
          <g id="Group_13920" data-name="Group 13920" transform="translate(42.521 221.085)">
            <path id="Path_69542" data-name="Path 69542" d="M3844.475,1913.259s-7.791,13.356-5.666,15.654,14.7-10.5,16.574-13.786a5.655,5.655,0,0,0,.567-4.021Z" transform="translate(-3838.442 -1911.105)" fill="#454b69"/>
          </g>
          <path id="Path_69543" data-name="Path 69543" d="M3895.677,1737.79a9.031,9.031,0,0,1-4.709-.276v-2.748l11.339-10.918.578,2.887A9.371,9.371,0,0,1,3895.677,1737.79Z" transform="translate(-3792.555 -1702.019)" fill="#e18181"/>
          <path id="Path_69544" data-name="Path 69544" d="M3896.985,1737.062h0a9.247,9.247,0,0,1-10.9-7.309l-2.06-10.236a9.369,9.369,0,0,1,7.209-11.055h0a9.247,9.247,0,0,1,10.9,7.309l2.061,10.236A9.368,9.368,0,0,1,3896.985,1737.062Z" transform="translate(-3793.012 -1703.017)" fill="#f2a6a6"/>
          <path id="Path_69545" data-name="Path 69545" d="M3889.085,1715.6c3.406-1.252,4.8-3.9,6.708-3.118,1.65.676,4.057,3.907,5.984,10.58l.989-.393s-1.2-4.683,1.174-5.626c.968-.383,2.166.835,2.166.835s.105-11.843-5.886-13.956c-3.952-1.394-10.551-.32-14.275,3.238-1.861,1.778-3.785,4.586-2.65,6.984C3884.307,1716.284,3886.421,1716.578,3889.085,1715.6Z" transform="translate(-3793.069 -1703.333)" fill="#440c01"/>
          <path id="Path_69546" data-name="Path 69546" d="M3927.439,1800.82c-2.55,1.293-3.978-3.981-7.166-7.858s-9.136-2.568-9.136-2.568a27.9,27.9,0,0,1,3.059-8.487s-3.059-22.406,5.993-35.328a29.607,29.607,0,0,1,6.612,7.075c5.329,8.289,5.1,27.141,5.312,35.56S3929.988,1799.529,3927.439,1800.82Z" transform="translate(-3791.262 -1700.563)" fill="#f87d41"/>
          <path id="Path_69547" data-name="Path 69547" d="M3872.137,1771.651c-4.531,7-5.38,24.308-5.38,24.308a10.128,10.128,0,0,0-2.855-3.387v-2.378c-1.921-3.325-8.279-2.921-8.279-2.921,3.553-7.04,11.049-28,15.511-34.682a10.967,10.967,0,0,1,.986-1.266A72.553,72.553,0,0,0,3872.137,1771.651Z" transform="translate(-3794.82 -1700.258)" fill="#f87d41"/>
          <path id="Path_69548" data-name="Path 69548" d="M3874.788,1823.569l-42.093,1.2a4.028,4.028,0,0,1-3.734-3.583l-4.321-28.463c-.307-2.028.865-3.713,2.62-3.762l42.094-1.2a4.029,4.029,0,0,1,3.734,3.583l4.319,28.463C3877.715,1821.835,3876.543,1823.519,3874.788,1823.569Z" transform="translate(-3796.808 -1697.924)" fill="#fff"/>
          <path id="Path_69550" data-name="Path 69550" d="M3824.3,1911.1l-1.791,4.437h-14.871s.4-1.64,1.081-4.437Z" transform="translate(-3797.894 -1690.02)" fill="#f7f1ed"/>
          <path id="Path_69551" data-name="Path 69551" d="M3855.659,1911.375l-.58-4.495-12.1,3,1.207,3.645Z" transform="translate(-3795.63 -1690.291)" fill="#f7f1ed"/>
        </g>
      </g>
      <g id="Group_13933" data-name="Group 13933" transform="translate(4109.692 1714.305)">
        <g id="Group_13923" data-name="Group 13923" transform="translate(5.281 137.681)">
          <rect id="Rectangle_1914" data-name="Rectangle 1914" width="92.246" height="9.191" rx="4.319" fill="#565661"/>
          <path id="Path_69552" data-name="Path 69552" d="M4171.434,1929.194h-69.59l1.07-9.191h67.45Z" transform="translate(-4090.514 -1818.705)" fill="#565661"/>
          <path id="Path_69553" data-name="Path 69553" d="M4165.214,1881.591h-57.856l1.07-9.191h55.717Z" transform="translate(-4090.161 -1821.755)" fill="#565661"/>
          <path id="Path_69554" data-name="Path 69554" d="M4122.929,1833.443l-6.4,41.453-1.421,9.191-6.4,41.462-1.42,9.191-2.8,18.19h-4.612l2.1-18.19,1.07-9.191,4.8-41.462,1.069-9.191,4.8-41.453Z" transform="translate(-4090.641 -1824.251)" fill="#565661"/>
          <path id="Path_69555" data-name="Path 69555" d="M4170.609,1952.93H4166l-2.8-18.19-1.42-9.191-6.4-41.462-1.421-9.191-6.4-41.453h9.225l4.8,41.453,1.07,9.191,4.8,41.462,1.07,9.191Z" transform="translate(-4087.586 -1824.251)" fill="#565661"/>
        </g>
        <g id="Group_13932" data-name="Group 13932">
          <g id="Group_13924" data-name="Group 13924" transform="translate(23.718)">
            <path id="Path_69556" data-name="Path 69556" d="M4136.175,1695.415c8.924,0,13.875,3.186,15.773,7.87,2.751,6.8,1.141,12.483,5.421,14.518s7.562,8.005,6.991,13.161-3.282,13.569-10.7,14.926-32.524,4.067-37.522,1.147-8.562-7-7.391-12.952c1.57-7.974,8.857-8.935,9.57-14.363S4118.834,1695.415,4136.175,1695.415Z" transform="translate(-4108.523 -1695.415)" fill="#440c01"/>
          </g>
          <path id="Path_69557" data-name="Path 69557" d="M4142.122,1739.1a7.107,7.107,0,0,1-14.194,0l1.15-7.282,1.372-8.664h8.979l1.5,9.6,1,6.342Z" transform="translate(-4083.562 -1693.638)" fill="#ffb9b9"/>
          <path id="Path_69558" data-name="Path 69558" d="M4174.719,1817.642h-75.5c-8.748,0-14.98-8.06-12.4-15.989l15.614-47.934c3.03-9.264,12.053-15.581,22.256-15.581h5.907a7.106,7.106,0,0,0,14.193,0h4.434q.72,0,1.439.049a23.1,23.1,0,0,1,20.817,15.532l15.632,47.934C4189.7,1809.581,4183.452,1817.642,4174.719,1817.642Z" transform="translate(-4086.234 -1692.678)" fill="#f16e2d"/>
          <path id="Path_69559" data-name="Path 69559" d="M4168.01,1818.948H4105.9a7.644,7.644,0,0,0-7.7,9.4l4.354,16.409a94.131,94.131,0,0,0,34.4,6.5,104.221,104.221,0,0,0,35.5-6.5l3.354-16.853A7.668,7.668,0,0,0,4168.01,1818.948Z" transform="translate(-4085.482 -1687.5)" fill="#454b69"/>
          <g id="Group_13925" data-name="Group 13925" transform="translate(49.32 218.165)">
            <path id="Path_69560" data-name="Path 69560" d="M4142.973,1937.427h0c-2.867.312-5.54-2.321-5.969-5.88l-4.38-24.34c-.4-3.314,2.242-6.323,5.9-6.721h0c3.658-.4,6.945,1.964,7.345,5.277l1.521,24.652C4147.816,1933.975,4145.84,1937.114,4142.973,1937.427Z" transform="translate(-4132.583 -1900.443)" fill="#454b69"/>
            <path id="Path_69561" data-name="Path 69561" d="M4141.826,1929.122h0c-1.694.185-3.274-1.371-3.527-3.474l-3.389-21.028a3.715,3.715,0,0,1,3.486-3.972h0a3.82,3.82,0,0,1,4.34,3.119l1.7,21.212C4144.689,1927.082,4143.521,1928.938,4141.826,1929.122Z" transform="translate(-4132.436 -1900.431)" fill="#ffb9b9"/>
          </g>
          <g id="Group_13926" data-name="Group 13926" transform="translate(38.666 216.387)">
            <path id="Path_69562" data-name="Path 69562" d="M4127.419,1937.311h0c-2.98-.275-5.137-3.3-4.816-6.749l1.141-26.037A6.542,6.542,0,0,1,4131,1898.8h0a6.531,6.531,0,0,1,6.076,6.955l-3.679,25.8C4133.076,1935.011,4130.4,1937.586,4127.419,1937.311Z" transform="translate(-4122.571 -1898.771)" fill="#454b69"/>
            <path id="Path_69563" data-name="Path 69563" d="M4128,1929.258h0a3.481,3.481,0,0,1-2.846-3.989l1.373-22.913a3.869,3.869,0,0,1,4.289-3.384h0a3.86,3.86,0,0,1,3.591,4.111l-2.874,22.776A3.488,3.488,0,0,1,4128,1929.258Z" transform="translate(-4122.407 -1898.76)" fill="#ffb9b9"/>
          </g>
          <path id="Path_69564" data-name="Path 69564" d="M4135.882,1916.261h-8.8c-.989,0-1.86-1.005-2.113-2.443l-1.041-3.231-23.474-73.1c-2.3-8.429,3.5-16.92,12.541-18.34a16.5,16.5,0,0,1,2.562-.2c7.627,0,14.325,5.353,15.407,12.786l6.916,78.859.169,1.971C4138.232,1914.512,4137.208,1916.261,4135.882,1916.261Z" transform="translate(-4085.355 -1687.5)" fill="#454b69"/>
          <path id="Path_69565" data-name="Path 69565" d="M4171.957,1837.487l-23.068,73.1-1.022,3.231c-.279,1.438-1.218,2.443-2.3,2.443h-10.292a1.65,1.65,0,0,1-.777-.185,3.474,3.474,0,0,1-1.573-3.518l8.514-80.83c1.083-7.432,7.78-12.786,15.416-12.786a16.509,16.509,0,0,1,2.562.2C4168.447,1820.567,4174.248,1829.057,4171.957,1837.487Z" transform="translate(-4083.243 -1687.5)" fill="#454b69"/>
          <path id="Path_69566" data-name="Path 69566" d="M4148.347,1738.186c-.035,6.789-5.822,12.276-12.961,12.276-7.156,0-12.96-5.519-12.96-12.325h5.855a7.106,7.106,0,0,0,14.193,0h4.434Q4147.628,1738.137,4148.347,1738.186Z" transform="translate(-4083.914 -1692.678)" fill="#d96328"/>
          <path id="Path_69567" data-name="Path 69567" d="M4140.863,1732.756a10.2,10.2,0,0,1-11.854-.941l1.372-8.664h8.979Z" transform="translate(-4083.493 -1693.638)" fill="#e29c83"/>
          <path id="Path_69568" data-name="Path 69568" d="M4135.863,1733.276h0a9.626,9.626,0,0,1-9.775-8.57l-1.424-16.667h22.4l-1.424,16.667A9.626,9.626,0,0,1,4135.863,1733.276Z" transform="translate(-4083.771 -1694.606)" fill="#ffb9b9"/>
          <g id="Group_13927" data-name="Group 13927" transform="translate(37.782 10.685)">
            <path id="Path_69569" data-name="Path 69569" d="M4121.74,1720.145s12.162.983,17.722-6.106a8.48,8.48,0,0,0,9.385,6.106l.356-14.247-26.215-.44Z" transform="translate(-4121.74 -1705.457)" fill="#440c01"/>
          </g>
          <g id="Group_13928" data-name="Group 13928" transform="translate(20.923 67.21)">
            <path id="Path_69570" data-name="Path 69570" d="M4106.4,1796.914a.549.549,0,0,1-.152-.021.494.494,0,0,1-.333-.619l12.008-37.349a.51.51,0,0,1,.636-.325.492.492,0,0,1,.333.619l-12.008,37.349A.5.5,0,0,1,4106.4,1796.914Z" transform="translate(-4105.896 -1758.578)" fill="#d96328"/>
          </g>
          <g id="Group_13929" data-name="Group 13929" transform="translate(69.208 67.21)">
            <path id="Path_69571" data-name="Path 69571" d="M4163.789,1796.914a.537.537,0,0,0,.151-.021.492.492,0,0,0,.333-.619l-12.008-37.349a.509.509,0,0,0-.635-.325.492.492,0,0,0-.333.619l12.008,37.349A.5.5,0,0,0,4163.789,1796.914Z" transform="translate(-4151.273 -1758.578)" fill="#d96328"/>
          </g>
          <path id="Path_69572" data-name="Path 69572" d="M4172.5,1780.529h-71.87a4.129,4.129,0,0,0-4.219,4.646l5.377,34.843a1.687,1.687,0,0,0,1.694,1.392h66.165a1.689,1.689,0,0,0,1.694-1.392l5.377-34.843A4.128,4.128,0,0,0,4172.5,1780.529Z" transform="translate(-4085.584 -1689.961)" fill="#fff"/>
          <ellipse id="Ellipse_127" data-name="Ellipse 127" cx="5.464" cy="4.579" rx="5.464" ry="4.579" transform="translate(45.521 106.429)" fill="#fff"/>
          <g id="Group_13930" data-name="Group 13930" transform="translate(50.527 223.088)">
            <path id="Path_69573" data-name="Path 69573" d="M4148.836,1905.069l-1.022,3.23c-.278,1.438-1.219,2.443-2.3,2.443h-11.8a1.573,1.573,0,0,0,.727-.185,3.594,3.594,0,0,0,1.438-3.518l-.169-1.971Z" transform="translate(-4133.718 -1905.069)" fill="#f7f1ed"/>
          </g>
          <g id="Group_13931" data-name="Group 13931" transform="translate(38.57 223.088)">
            <path id="Path_69574" data-name="Path 69574" d="M4134.438,1910.743h-8.8c-.989,0-1.86-1.005-2.113-2.443l-1.041-3.23h13.952l.169,1.971C4136.788,1908.993,4135.765,1910.743,4134.438,1910.743Z" transform="translate(-4122.481 -1905.069)" fill="#f7f1ed"/>
          </g>
        </g>
      </g>
      <g id="Group_13936" data-name="Group 13936" transform="translate(4364.89 1504.192)">
        <g id="Group_13934" data-name="Group 13934">
          <path id="Path_69575" data-name="Path 69575" d="M4360.708,1513.813a13.4,13.4,0,0,0-18.771,0,12.893,12.893,0,0,0-3.894,9.263,13.314,13.314,0,0,0,22.664,9.269,12.977,12.977,0,0,0,0-18.532ZM4358.331,1530a9.943,9.943,0,0,1-16.919-6.922,9.623,9.623,0,0,1,2.9-6.909,10,10,0,0,1,14.016,0,9.691,9.691,0,0,1,0,13.831Zm2.377-16.185a13.4,13.4,0,0,0-18.771,0,12.893,12.893,0,0,0-3.894,9.263,13.314,13.314,0,0,0,22.664,9.269,12.977,12.977,0,0,0,0-18.532ZM4358.331,1530a9.943,9.943,0,0,1-16.919-6.922,9.623,9.623,0,0,1,2.9-6.909,10,10,0,0,1,14.016,0,9.691,9.691,0,0,1,0,13.831Zm10.849-24.735a25.323,25.323,0,0,0-43.117,17.627c0,8.338,8.54,23.705,15.7,35.128.674,1.078,1.341,2.122,1.98,3.119.781,1.21,1.529,2.354,2.229,3.411a6.438,6.438,0,0,0,10.7,0c.712-1.07,1.466-2.234,2.255-3.458.646-1,1.313-2.047,1.987-3.125,7.153-11.417,15.659-26.75,15.659-35.075A24.611,24.611,0,0,0,4369.18,1505.262Zm-12.008,52.357q-1.01,1.587-2.067,3.213c-.41.625-.821,1.257-1.246,1.9a3.048,3.048,0,0,1-5.071,0q-.628-.948-1.234-1.876c-.706-1.083-1.387-2.147-2.06-3.2-10.258-16.139-16.063-28.653-16.063-34.763a21.948,21.948,0,0,1,37.372-15.274,21.324,21.324,0,0,1,6.405,15.274C4373.208,1528.993,4367.416,1541.495,4357.171,1557.619Zm-5.852-47.643a13.267,13.267,0,0,0-9.382,3.837,12.893,12.893,0,0,0-3.894,9.263,13.314,13.314,0,0,0,22.664,9.269,12.977,12.977,0,0,0,0-18.532A13.276,13.276,0,0,0,4351.319,1509.976Zm7.011,20.022a9.943,9.943,0,0,1-16.919-6.922,9.623,9.623,0,0,1,2.9-6.909,10,10,0,0,1,14.016,0,9.691,9.691,0,0,1,0,13.831Z" transform="translate(-4326.063 -1497.954)" fill="#fce0d1"/>
        </g>
        <g id="Group_13935" data-name="Group 13935" transform="translate(0.222 59.665)">
          <path id="Path_69576" data-name="Path 69576" d="M4360.9,1554.372c-1.226-.146-2.478-.258-3.745-.346q-1.01,1.587-2.067,3.213c1.347.06,2.62.146,3.826.259,9.59.912,14.5,3.444,14.5,4.655,0,1.49-7.442,4.986-21.889,4.986s-21.889-3.5-21.889-4.986c0-1.191,4.775-3.671,14.09-4.608,1.2-.127,2.464-.219,3.811-.286-.706-1.083-1.387-2.147-2.06-3.2-1.267.086-2.513.205-3.732.365-8.5,1.044-15.477,3.558-15.477,7.727,0,5.712,13.093,8.312,25.256,8.312s25.257-2.6,25.257-8.312C4376.785,1557.916,4369.592,1555.389,4360.9,1554.372Z" transform="translate(-4326.272 -1554.026)" fill="#fee8dc"/>
        </g>
      </g>
    </g>
  </g>
</svg>
