<svg xmlns="http://www.w3.org/2000/svg" width="800" height="700" viewBox="0 0 800 700">
  <g id="education_new_banner" transform="translate(-13585 185)">
    <rect id="Rectangle_12682" data-name="Rectangle 12682" width="800" height="700" transform="translate(13585 -185)" fill="none"/>
    <g id="Group_32988" data-name="Group 32988" transform="translate(12563 -342)">
      <g id="Group_31797" data-name="Group 31797" transform="translate(1022 226)">
        <g id="Group_31808" data-name="Group 31808" transform="translate(97.509 42.021)">
          <path id="Rectangle_12654" data-name="Rectangle 12654" d="M47.874,0H362.259a47.875,47.875,0,0,1,47.875,47.875v253.87a47.874,47.874,0,0,1-47.874,47.874H47.874A47.874,47.874,0,0,1,0,301.744V47.874A47.874,47.874,0,0,1,47.874,0Z" fill="#fff" opacity="0.6"/>
          <path id="Rectangle_12655" data-name="Rectangle 12655" d="M35.74,0H374.393a35.74,35.74,0,0,1,35.74,35.74v3.055a0,0,0,0,1,0,0H0a0,0,0,0,1,0,0V35.74A35.74,35.74,0,0,1,35.74,0Z" fill="#343030"/>
          <g id="Group_31800" data-name="Group 31800" transform="translate(16.586 14.526)">
            <path id="Path_80133" data-name="Path 80133" d="M915.682,429.938a4.638,4.638,0,1,1,4.638,4.638A4.638,4.638,0,0,1,915.682,429.938Z" transform="translate(-915.682 -425.3)" fill="#fff1e9"/>
            <path id="Path_80134" data-name="Path 80134" d="M971.275,429.938a4.638,4.638,0,1,1,4.638,4.638A4.638,4.638,0,0,1,971.275,429.938Z" transform="translate(-951.808 -425.3)" fill="#fff1e9"/>
            <path id="Path_80135" data-name="Path 80135" d="M1026.869,429.938a4.638,4.638,0,1,1,4.638,4.638A4.638,4.638,0,0,1,1026.869,429.938Z" transform="translate(-987.935 -425.3)" fill="#fff1e9"/>
          </g>
          <rect id="Rectangle_12656" data-name="Rectangle 12656" width="116.259" height="116.259" transform="translate(32.503 69.578)" fill="#f16e2d" opacity="0.2"/>
          <path id="Path_80136" data-name="Path 80136" d="M1467.741,590.955h-92.474a4.394,4.394,0,0,1-4.394-4.394h0a4.394,4.394,0,0,1,4.394-4.394h92.474a4.394,4.394,0,0,1,4.394,4.394h0A4.394,4.394,0,0,1,1467.741,590.955Z" transform="translate(-1194.893 -512.712)" fill="#f16e2d" opacity="0.2"/>
          <path id="Path_80137" data-name="Path 80137" d="M1783.54,574.126h-92.475a4.394,4.394,0,0,1-4.394-4.394h0a4.394,4.394,0,0,1,4.394-4.394h92.475a4.394,4.394,0,0,1,4.394,4.394h0A4.394,4.394,0,0,1,1783.54,574.126Z" transform="translate(-1400.109 -501.775)" fill="#f16e2d" opacity="0.2"/>
          <g id="Group_31801" data-name="Group 31801" transform="translate(175.98 106.372)" opacity="0.2">
            <path id="Path_80138" data-name="Path 80138" d="M1486.047,693.284H1373.721a2.848,2.848,0,0,1-2.848-2.848h0a2.848,2.848,0,0,1,2.848-2.848h112.326a2.848,2.848,0,0,1,2.848,2.848h0A2.848,2.848,0,0,1,1486.047,693.284Z" transform="translate(-1370.873 -687.589)" fill="#f16e2d"/>
            <path id="Path_80139" data-name="Path 80139" d="M1761.416,693.284h-29.651a2.848,2.848,0,0,1-2.848-2.848h0a2.848,2.848,0,0,1,2.848-2.848h29.651a2.847,2.847,0,0,1,2.847,2.848h0A2.847,2.847,0,0,1,1761.416,693.284Z" transform="translate(-1603.541 -687.589)" fill="#f16e2d"/>
            <path id="Path_80140" data-name="Path 80140" d="M1416.1,743.722h-42.382a2.848,2.848,0,0,1-2.848-2.848h0a2.848,2.848,0,0,1,2.848-2.848H1416.1a2.848,2.848,0,0,1,2.848,2.848h0A2.848,2.848,0,0,1,1416.1,743.722Z" transform="translate(-1370.873 -720.365)" fill="#f16e2d"/>
            <path id="Path_80141" data-name="Path 80141" d="M1583.019,743.722h-58.074a2.848,2.848,0,0,1-2.848-2.848h0a2.848,2.848,0,0,1,2.848-2.848h58.074a2.848,2.848,0,0,1,2.848,2.848h0A2.848,2.848,0,0,1,1583.019,743.722Z" transform="translate(-1469.143 -720.365)" fill="#f16e2d"/>
            <path id="Path_80142" data-name="Path 80142" d="M1761.416,743.722h-29.651a2.848,2.848,0,0,1-2.848-2.848h0a2.848,2.848,0,0,1,2.848-2.848h29.651a2.847,2.847,0,0,1,2.847,2.848h0A2.847,2.847,0,0,1,1761.416,743.722Z" transform="translate(-1603.541 -720.365)" fill="#f16e2d"/>
            <path id="Path_80143" data-name="Path 80143" d="M1431.229,787.334h-57.508a2.848,2.848,0,0,1-2.848-2.848h0a2.848,2.848,0,0,1,2.848-2.848h57.508a2.847,2.847,0,0,1,2.848,2.848h0A2.848,2.848,0,0,1,1431.229,787.334Z" transform="translate(-1370.873 -748.705)" fill="#f16e2d"/>
            <path id="Path_80144" data-name="Path 80144" d="M1677.014,787.334H1582.96a2.848,2.848,0,0,1-2.848-2.848h0a2.848,2.848,0,0,1,2.848-2.848h94.054a2.848,2.848,0,0,1,2.847,2.848h0A2.848,2.848,0,0,1,1677.014,787.334Z" transform="translate(-1506.843 -748.705)" fill="#f16e2d"/>
          </g>
          <g id="Group_31802" data-name="Group 31802" transform="translate(175.98 162.48)" opacity="0.2">
            <path id="Path_80145" data-name="Path 80145" d="M1486.047,853.515H1373.721a2.848,2.848,0,0,1-2.848-2.848h0a2.848,2.848,0,0,1,2.848-2.848h112.326a2.848,2.848,0,0,1,2.848,2.848h0A2.848,2.848,0,0,1,1486.047,853.515Z" transform="translate(-1370.873 -847.82)" fill="#f16e2d"/>
            <path id="Path_80146" data-name="Path 80146" d="M1761.416,853.515h-29.651a2.848,2.848,0,0,1-2.848-2.848h0a2.848,2.848,0,0,1,2.848-2.848h29.651a2.847,2.847,0,0,1,2.847,2.848h0A2.847,2.847,0,0,1,1761.416,853.515Z" transform="translate(-1603.541 -847.82)" fill="#f16e2d"/>
            <path id="Path_80147" data-name="Path 80147" d="M1416.1,903.953h-42.382a2.848,2.848,0,0,1-2.848-2.847h0a2.848,2.848,0,0,1,2.848-2.848H1416.1a2.848,2.848,0,0,1,2.848,2.848h0A2.848,2.848,0,0,1,1416.1,903.953Z" transform="translate(-1370.873 -880.596)" fill="#f16e2d"/>
            <path id="Path_80148" data-name="Path 80148" d="M1583.019,903.953h-58.074a2.847,2.847,0,0,1-2.848-2.847h0a2.848,2.848,0,0,1,2.848-2.848h58.074a2.848,2.848,0,0,1,2.848,2.848h0A2.848,2.848,0,0,1,1583.019,903.953Z" transform="translate(-1469.143 -880.596)" fill="#f16e2d"/>
          </g>
          <g id="Group_31803" data-name="Group 31803" transform="translate(52.191 86.908)">
            <path id="Path_80149" data-name="Path 80149" d="M1049.8,632.006h12.007l32.438,74.251h-13.691l-7.478-17.8h-34.861l-7.583,17.8h-13.27Zm18.536,44.972-12.744-29.49-12.638,29.49Z" transform="translate(-1017.361 -632.006)" fill="#f16e2d"/>
          </g>
          <g id="Group_31807" data-name="Group 31807" transform="translate(106.857 275.763)" opacity="0.2">
            <path id="Path_80153" data-name="Path 80153" d="M1211.914,1176.745h-35.733a2.707,2.707,0,0,1-2.708-2.707h0a2.707,2.707,0,0,1,2.708-2.708h35.733a2.707,2.707,0,0,1,2.708,2.708h0A2.707,2.707,0,0,1,1211.914,1176.745Z" transform="translate(-1173.474 -1171.331)" fill="#f16e2d"/>
            <path id="Path_80154" data-name="Path 80154" d="M1199.876,1204h-23.695a2.707,2.707,0,0,1-2.708-2.707h0a2.707,2.707,0,0,1,2.708-2.707h23.695a2.707,2.707,0,0,1,2.707,2.707h0A2.707,2.707,0,0,1,1199.876,1204Z" transform="translate(-1173.474 -1189.041)" fill="#f16e2d"/>
          </g>
        </g>
        <g id="Group_31810" data-name="Group 31810" transform="translate(387.534)">
          <path id="Path_80155" data-name="Path 80155" d="M1879.693,405.147s1.69,20.159-2.9,19.853-13.661-9.18-31.96-7.737-40.689,5.447-54.223-18.5,17.309-30.843,17.309-30.843l71.776,37.229Z" transform="translate(-1755.502 -331.464)" fill="#ed7d2b"/>
          <path id="Path_80156" data-name="Path 80156" d="M1782.016,336.021l92.208,7.583,1.917-4.1-88.4-65.255-89.3-10.432-1.716,3.671,85.291,68.536Z" transform="translate(-1696.725 -263.815)" fill="#f99746"/>
          <g id="Group_31809" data-name="Group 31809" transform="translate(138.566 139.057)">
            <path id="Path_80157" data-name="Path 80157" d="M2106.483,663.52a3.575,3.575,0,1,0-2.454,4.421,3.577,3.577,0,0,0,2.454-4.421Z" transform="translate(-2097.008 -660.928)" fill="#f99746"/>
            <path id="Path_80158" data-name="Path 80158" d="M2098.839,671.161c3.7-.288,4.563,33.363,4.563,33.363s-2.411,1.134-3.6.867-1.792-4.811-1.792-4.811l-.114,4.764s-4.057.141-5.462-.846c0,0,.551-32.882,6.4-33.338Z" transform="translate(-2092.438 -667.577)" fill="#f99746"/>
          </g>
          <path id="Path_80159" data-name="Path 80159" d="M2019.445,470.112l-.668-73.52-.477-.356-48.164-35.629-1.73,2.342,47.684,35.273,1.077,71.764Z" transform="translate(-1873.272 -326.713)" fill="#f99746"/>
        </g>
        <g id="Group_31821" data-name="Group 31821" transform="translate(331.561 316.897)">
          <g id="Group_31812" data-name="Group 31812" transform="translate(50.874 97.814)">
            <g id="Group_31811" data-name="Group 31811">
              <path id="Rectangle_12662" data-name="Rectangle 12662" d="M0,0H194.937a38.05,38.05,0,0,1,38.05,38.05v0a38.913,38.913,0,0,1-38.913,38.913H0a0,0,0,0,1,0,0V0A0,0,0,0,1,0,0Z" transform="translate(10.809 0.001)" fill="#fcecdb"/>
              <path id="Path_80160" data-name="Path 80160" d="M2099.832,1475.752v11.578a35.324,35.324,0,0,1-4.272,16.961c-5.458,10.021-15.61,16.757-27.233,16.757h-381.49a4.737,4.737,0,0,1-4.569-4.887v-1.734a4.736,4.736,0,0,1,4.569-4.887H1919.39a31.89,31.89,0,0,0,3.264-5.249,33.061,33.061,0,0,0,3.409-14.715v-14.718a32.729,32.729,0,0,0-.942-7.833,31.589,31.589,0,0,0-5.393-11.428H1686.837a4.738,4.738,0,0,1-4.569-4.892v-1.729a4.738,4.738,0,0,1,4.569-4.892h383.411c13.511,0,24.907,9.695,28.444,22.94A33.681,33.681,0,0,1,2099.832,1475.752Z" transform="translate(-1682.268 -1444.086)" fill="#f8ad88"/>
              <path id="Path_80161" data-name="Path 80161" d="M2098.692,1467.026H1925.121a31.589,31.589,0,0,0-5.393-11.428H1686.837a4.738,4.738,0,0,1-4.569-4.892v-1.729a4.738,4.738,0,0,1,4.569-4.892h383.411C2083.759,1444.086,2095.155,1453.78,2098.692,1467.026Z" transform="translate(-1682.268 -1444.086)" fill="#fcd7c4"/>
            </g>
            <path id="Path_80162" data-name="Path 80162" d="M1713.135,1553.983l28.247,1.294-28.247.779Z" transform="translate(-1702.327 -1515.501)" fill="#f4d2b8"/>
            <path id="Path_80163" data-name="Path 80163" d="M1713.135,1588.469l67.2,1.294-67.2.779Z" transform="translate(-1702.327 -1537.91)" fill="#f4d2b8"/>
          </g>
          <g id="Group_31816" data-name="Group 31816" transform="translate(3.356 184.642)">
            <g id="Group_31814" data-name="Group 31814" transform="translate(0 0)">
              <g id="Group_31813" data-name="Group 31813">
                <path id="Rectangle_12663" data-name="Rectangle 12663" d="M0,0H196.706a30.873,30.873,0,0,1,30.873,30.873v0a28.991,28.991,0,0,1-28.991,28.991H0a0,0,0,0,1,0,0V0A0,0,0,0,1,0,0Z" transform="translate(227.579 59.864) rotate(180)" fill="#fcd7c4"/>
                <path id="Rectangle_12664" data-name="Rectangle 12664" d="M0,0H224.416a30.268,30.268,0,0,1,30.268,30.268v0a29.6,29.6,0,0,1-29.6,29.6H0a0,0,0,0,1,0,0V0A0,0,0,0,1,0,0Z" transform="translate(444.633 59.864) rotate(180)" fill="#fcecdb"/>
                <rect id="Rectangle_12665" data-name="Rectangle 12665" width="285.637" height="8.953" rx="4.477" transform="translate(456.447 59.864) rotate(180)" fill="#fcd7c4"/>
                <rect id="Rectangle_12666" data-name="Rectangle 12666" width="285.637" height="8.953" rx="4.477" transform="translate(456.447 8.953) rotate(180)" fill="#fcd7c4"/>
              </g>
              <path id="Path_80164" data-name="Path 80164" d="M2759.032,1748.9l-30.877,1.006,30.877.606Z" transform="translate(-2314.398 -1718.963)" fill="#f4d2b8"/>
              <path id="Path_80165" data-name="Path 80165" d="M2680.01,1709.552l-73.459,1.006,73.459.606Z" transform="translate(-2235.377 -1693.396)" fill="#f4d2b8"/>
            </g>
            <g id="Group_31815" data-name="Group 31815" transform="translate(371.93 16.961)">
              <path id="Path_80166" data-name="Path 80166" d="M2608.71,1711.853a13.9,13.9,0,0,1,4.19,6.8,11.144,11.144,0,0,1,.326,2.366c.174,5.617,0,18.331,0,18.331l9.294-6.356,9.27,6.356v-17.231a15.174,15.174,0,0,0-2.272-8.5,3.463,3.463,0,0,0-2.568-1.762Z" transform="translate(-2608.71 -1711.853)" fill="#f99746"/>
              <path id="Path_80167" data-name="Path 80167" d="M2608.71,1711.853a13.9,13.9,0,0,1,4.19,6.8l18.625.252s-.73-6.054-4.574-7.052Z" transform="translate(-2608.71 -1711.853)" fill="#ed7d2b"/>
            </g>
          </g>
          <g id="Group_31820" data-name="Group 31820">
            <g id="Group_31818" data-name="Group 31818">
              <g id="Group_31817" data-name="Group 31817">
                <path id="Rectangle_12667" data-name="Rectangle 12667" d="M0,0H190.836a37.041,37.041,0,0,1,37.041,37.041v0A37.881,37.881,0,0,1,190,74.921H0a0,0,0,0,1,0,0V0A0,0,0,0,1,0,0Z" transform="translate(10.571 13.03)" fill="#fcecdb"/>
                <path id="Path_80168" data-name="Path 80168" d="M1775.542,1227.506v18.929c-.048,8.084-3.8,15.1-9.3,18.849a16.254,16.254,0,0,1-9.173,2.892H1541.556c-2.525,0-4.573,2.446-4.573,5.462v2.233c0,3.016,2.048,5.462,4.573,5.462h372.3c10.684,0,20.123-6.343,25.825-16.05a42.656,42.656,0,0,0,5.706-21.609V1228.74a40.946,40.946,0,0,0-2.94-15.377c-4.788-11.826-14.927-19.981-26.666-19.981H1541.556c-2.525,0-4.573,2.441-4.573,5.458v2.233c0,3.016,2.048,5.462,4.573,5.462h216.171a16.679,16.679,0,0,1,13.109,6.829A23.27,23.27,0,0,1,1775.542,1227.506Z" transform="translate(-1536.983 -1193.381)" fill="#f16e2d" opacity="0.2"/>
                <path id="Path_80169" data-name="Path 80169" d="M1536.983,1407.073v2.233c0,3.016,2.048,5.462,4.573,5.462h372.3c10.684,0,20.123-6.343,25.825-16.05H1766.24a16.256,16.256,0,0,1-9.173,2.892H1541.556C1539.031,1401.611,1536.983,1404.057,1536.983,1407.073Z" transform="translate(-1536.983 -1326.816)" fill="#f16e2d" opacity="0.4"/>
              </g>
              <path id="Path_80170" data-name="Path 80170" d="M1567.17,1318.963l27.627,1.478-27.627.891Z" transform="translate(-1556.599 -1274.988)" fill="#f4d2b8"/>
              <path id="Path_80171" data-name="Path 80171" d="M1567.17,1261.158l65.727,1.479-65.727.891Z" transform="translate(-1556.599 -1237.424)" fill="#f4d2b8"/>
            </g>
            <g id="Group_31819" data-name="Group 31819" transform="translate(43.817 24.918)">
              <path id="Path_80172" data-name="Path 80172" d="M1693.917,1264.541s-4.338,2.789-5.774,7.374a9.689,9.689,0,0,0-.45,2.564c-.239,6.091,0,19.876,0,19.876l-12.807-6.892-12.773,6.892v-18.683a13.927,13.927,0,0,1,3.131-9.22,4.96,4.96,0,0,1,3.538-1.911Z" transform="translate(-1662.113 -1264.541)" fill="#f99746"/>
              <path id="Path_80173" data-name="Path 80173" d="M1694.6,1264.541s-4.338,2.789-5.774,7.374l-25.664.273s1.007-6.564,6.3-7.646Z" transform="translate(-1662.792 -1264.541)" fill="#ed7d2b"/>
            </g>
          </g>
        </g>
        <g id="girl_2" data-name="girl 2" transform="translate(0 342.061)">
          <path id="Path_80174" data-name="Path 80174" d="M803.34,1422.333s40.118,17.479,47.4,17.161,52.155-13.668,52.155-13.668l-1.142,7.719s-34.63,19.917-46.737,21.047c-11.919,1.113-52.676-10.7-56.611-13.191S791.9,1424.857,803.34,1422.333Z" transform="translate(-733.237 -1357.3)" fill="#ed985f"/>
          <path id="Path_80175" data-name="Path 80175" d="M682.559,1237.349s-14.8-2.811-22.171,2.572c-13.352,9.75-14.069,43.367-19.074,48.374s-17.067,2.871-18.141,28.783,4.8,28.078-2.2,39.644,2.961,23.144,2.961,23.144-4.079-6.385-2.331-10.994c0,0,1.7,10.171,8.16,12.555s7.418,4.132,8.45,7.628c0,0,55.126-28.247,55.186-48.282s10.848-39.882,5.551-48.564a19.21,19.21,0,0,1,2.649,7.846,10.33,10.33,0,0,0-2.331-11.76c-5.51-5.67,6.463-17.4,4.69-30.992C702.744,1247.975,696.2,1237.755,682.559,1237.349Z" transform="translate(-618.485 -1236.615)" fill="#343030"/>
          <path id="Path_80176" data-name="Path 80176" d="M748.655,1398.755a38.581,38.581,0,0,1-13.487,5.74c-20.79,4.8-28.757-12.768-31.749-24.829a17.864,17.864,0,0,1,7.044-2.164c1.5-.178,3.083-.3,4.391-.36,2.335-1.788,5.813-9.106,6.583-20.468l.978.262,16.385,4.484s-.751,5.208-1.118,10.131c-.284,3.852-.329,7.534.4,8.434,1.278.278,2.046.459,2.046.459a.049.049,0,0,0,.008.016A105.457,105.457,0,0,1,748.655,1398.755Z" transform="translate(-673.678 -1314.633)" fill="#ffb27d"/>
          <path id="Path_80177" data-name="Path 80177" d="M774.05,1361.917s-.753,5.2-1.118,10.131c-9.283-.929-13.59-9.767-15.267-14.615Z" transform="translate(-708.928 -1315.127)" fill="#ed985f"/>
          <path id="Path_80178" data-name="Path 80178" d="M773.224,1313.995s-22.033-1.216-21.065-14.925-1.223-23.1,12.885-22.9,16.469,5.62,17.259,10.275S778.981,1313.958,773.224,1313.995Z" transform="translate(-705.33 -1262.315)" fill="#ffb27d"/>
          <path id="Path_80179" data-name="Path 80179" d="M769.42,1273.531c-3.106-4.367-5.742-3.647-7.271-2.511-11.555-7.475-20.007,1.746-20.007,1.746a26.252,26.252,0,0,1-9.675,14.856s3.833,2.766,13.251,1.051a15.753,15.753,0,0,0,7.861-4.631,51.479,51.479,0,0,1-9.61,10.158c11.412-4.314,16.95-19.358,17.508-20.951,1.257,1.3,3.717,4.114,4.34,6.74.847,3.57,4.5,9.15,6.611,9.056C772.429,1289.045,774.078,1280.081,769.42,1273.531Z" transform="translate(-692.555 -1257.073)" fill="#343030"/>
          <path id="Path_80180" data-name="Path 80180" d="M662.888,1477.253c-1.99-10.171-8.477-50.809-1.99-63.886,2.33-4.7,11.473-5.122,21.5-4.709,3.121,2.015,15.015,9.63,19.9,8.68.053-.01.148-.033.274-.065,2.3-.575,3.169-2.192,1.25-3.585a43.819,43.819,0,0,1,11.138.682c3.485.656,12.884,5.519,12.884,5.519s-4.733,8.551-11.712,11.5c1.187,10.616-.578,15.3-11.592,39.821-9.307,20.728,1.255,39.389,1.255,39.389s-54.786,44.049-55.091,21.621C650.479,1515.339,665.431,1490.254,662.888,1477.253Z" transform="translate(-639.423 -1348.335)" fill="#f9ddbf"/>
          <path id="Path_80181" data-name="Path 80181" d="M753.435,1613.17a10.186,10.186,0,0,0,7.328-4.461q.4-.593.847-1.276c6.236-9.441,8.663-38.352,22.69-69.152,3.417-7.5,15.681-8.847,19.025-17.324,0,0,8.231-27.474-15.754-28.285s-64.237,76.447-64.873,84.549C722.082,1585.07,706.84,1618.427,753.435,1613.17Z" transform="translate(-684.343 -1403.004)" fill="#dd6d22"/>
          <path id="Path_80182" data-name="Path 80182" d="M1024.017,1802.123H989.878s-1.276-5.445.965-9.15c1.984-3.278,1.224-5.146-.246-7.858a13.262,13.262,0,0,0,5.75,1.083,12.03,12.03,0,0,0,5.077-1.786c1.469,1.675,7.761,8.806,9.727,10.219C1013.382,1796.234,1023.33,1795.662,1024.017,1802.123Z" transform="translate(-859.592 -1592.59)" fill="#343030"/>
          <path id="Path_80183" data-name="Path 80183" d="M905.6,1498.6c2.056,15.411,10.083,64.054,24.244,87.786,4.565,7.651-11.5,11.94-11.589,11.917-2.155-.564-5.745-4-7.4-5.491-11.5-10.361-34.835-39.7-34.835-63.221,0-11.469-.2-33.373,8.139-38.94C889.3,1487.224,904.787,1492.48,905.6,1498.6Z" transform="translate(-785.841 -1400.991)" fill="#ed7d2b"/>
          <path id="Path_80184" data-name="Path 80184" d="M684.765,1609.286s1.265-1.761,3.471-5.1c2.625-3.977,5.531-11.8,9.056-21.834,3.7-10.531,8.1-23.487,13.585-36.967,1.694-4.161,3.493-8.372,5.407-12.578,3.417-7.5,12.816-6.462,16.16-14.939,0,0,13.048-29.386-10.938-30.2s-69.563,78.61-72.182,86.3C646.457,1582.389,632.468,1617.353,684.765,1609.286Z" transform="translate(-636.03 -1399.752)" fill="#f99746"/>
          <path id="Path_80185" data-name="Path 80185" d="M952.451,1802.123H918.312s-1.276-5.445.965-9.15c1.984-3.278,1.224-5.146-.245-7.858a13.261,13.261,0,0,0,5.75,1.083,12.03,12.03,0,0,0,5.077-1.786c1.469,1.675,7.761,8.806,9.727,10.219C941.816,1796.234,951.764,1795.662,952.451,1802.123Z" transform="translate(-813.086 -1592.59)" fill="#343030"/>
          <path id="Path_80186" data-name="Path 80186" d="M787.694,1647.245c3.7-10.531,8.1-23.487,13.585-36.967-1.434-10.213-4.526-19.148-9.726-22.749C791.553,1587.529,778.937,1626.613,787.694,1647.245Z" transform="translate(-726.432 -1464.649)" fill="#ed7d2b"/>
          <path id="Path_80187" data-name="Path 80187" d="M839.17,1498.642c2.056,15.411,4.951,65.146,19.112,88.878,4.566,7.651-11.5,11.94-11.589,11.917-2.155-.564-5.745-4-7.4-5.491-11.5-10.361-34.835-39.7-34.835-63.221,0-11.469,13.459-32.453,21.8-38.02A8.389,8.389,0,0,1,839.17,1498.642Z" transform="translate(-739.336 -1402.125)" fill="#f99746"/>
          <path id="Path_80188" data-name="Path 80188" d="M809.41,1360.764s-2.083-.824-7.944-.349c0,0,.311,2.287,4.634,2.513A3.448,3.448,0,0,0,809.41,1360.764Z" transform="translate(-737.391 -1316.968)" fill="#fff"/>
          <g id="Group_31823" data-name="Group 31823" transform="translate(122.75 39.608)">
            <g id="Group_31822" data-name="Group 31822">
              <path id="Path_80189" data-name="Path 80189" d="M1073.666,1362.494l-7.078-12.77-15.311,42.725,9.033,9.7Z" transform="translate(-1022.477 -1349.724)" fill="#343030"/>
              <path id="Path_80190" data-name="Path 80190" d="M983.263,1393.671l-14.233,40.66,37.833-8.487,13.356-39.652Z" transform="translate(-969.031 -1373.422)" fill="#343030"/>
              <path id="Path_80191" data-name="Path 80191" d="M969.954,1444.251l-.663-1.159,13.468-38.478.674,1.028Z" transform="translate(-969.2 -1385.393)" fill="#efdece"/>
              <path id="Path_80192" data-name="Path 80192" d="M1007.752,1391.661l35.869-6.98,1.762.529-36.956,7.479Z" transform="translate(-994.193 -1372.44)" fill="#fcecdb"/>
            </g>
            <path id="Path_80193" data-name="Path 80193" d="M1091.957,1363.646,1084.3,1351.5l-4.879,13.716,10.771-2.1Z" transform="translate(-1040.768 -1350.876)" fill="#efdece"/>
          </g>
          <path id="Path_80194" data-name="Path 80194" d="M806.245,1413.567c-1.23-.236-3.87-1.232-6.542-1.967a5.483,5.483,0,0,0,1.933-2.161c.477-1.506.794-1.991-.795-1.514s-7.15,3.027-7.15,3.027l.014.007c-3.159.923-6.07,5.389-6.07,5.389s-39.115,13.75-43.821,13.986c-7.28.366-55.735-17.479-55.735-17.479-11.435,2.524-8.87,16.574-4.935,19.068s38.8,15.178,59.465,15.416c10.466.121,48.537-24.348,48.537-24.348s4.45-2.034,7.947-1.4,11.6,0,13.35-2.86S808.31,1413.965,806.245,1413.567Z" transform="translate(-658.337 -1347.823)" fill="#ffb27d"/>
          <path id="Path_80195" data-name="Path 80195" d="M709.808,1429.046s-4.334,13.719-19.217,16.841c0,0-24.578-7.572-12.34-24.317C678.251,1421.57,690.35,1412.579,709.808,1429.046Z" transform="translate(-655.103 -1355.212)" fill="#f9ddbf"/>
          <path id="Path_80196" data-name="Path 80196" d="M1098.667,1414.409l0,0a3.763,3.763,0,0,0-.13-1.115s-3.506-5.546-4.654-5.773c-3.5-.691-3.5,3.914-2.756,6.885a12.074,12.074,0,0,0,2.9,5.128h0l-.139,4.339A9.282,9.282,0,0,0,1098.667,1414.409Z" transform="translate(-925.364 -1347.632)" fill="#ffb27d"/>
        </g>
        <g id="Group_31831" data-name="Group 31831" transform="translate(462.441 229.988)">
          <path id="Path_80211" data-name="Path 80211" d="M2197.531,1397.054c6.429,11.375,14.585,15.805,14.585,15.805l34.058.241S2192.626,1388.377,2197.531,1397.054Z" transform="translate(-2096.881 -1237.625)" fill="#2f2f57"/>
          <g id="Group_31828" data-name="Group 31828">
            <path id="Path_80212" data-name="Path 80212" d="M2218.7,1598.673a3.149,3.149,0,0,1,.538,3.372.026.026,0,0,1-.01.017c-.828,2.239-3.53,4.727-6.665,7.208-.4.319-.757.609-1.067.878-.082.07-.163.141-.24.212-.063.055-.124.112-.185.164-2.926,2.659-1.836,3.281-7.1,8.682-6,6.154-10.1,6.237-11.262,5.664-.983-.489,1.045-3.76,3.292-7.438.109-.177.215-.357.327-.537.3-.489.6-.985.894-1.477,2.635-4.427,1.981-6.518,1.411-13.137-.464-5.379-8.152-30.092-8.152-30.092l11.426-1.885s3.3,19.659,7.063,22.709c2.013,1.626,4.28,1.662,6.218,2.871q.206.126.4.259A14.977,14.977,0,0,1,2218.7,1598.673Z" transform="translate(-2092.506 -1351.407)" fill="#ffb27d"/>
            <path id="Path_80213" data-name="Path 80213" d="M2222.358,1646.143a3.149,3.149,0,0,1,.538,3.371.027.027,0,0,1-.009.017c-1.01,2.236-3.644,4.711-6.675,7.185-.4.324-.746.622-1.057.9-.082.071-.163.141-.24.212-.063.055-.124.112-.185.164-2.926,2.659-1.836,3.281-7.1,8.682-6,6.154-10.1,6.237-11.262,5.664-.984-.488,1.044-3.76,3.292-7.438a25.383,25.383,0,0,0,10.67-7.747c3.618-4.551,6.051-10.413,8.516-13.8.137.084.272.17.4.259A14.976,14.976,0,0,1,2222.358,1646.143Z" transform="translate(-2096.168 -1398.877)" fill="#233862"/>
            <path id="Path_80214" data-name="Path 80214" d="M1944.907,1583.444c-.729,3.518-5.746,2.895-11.346,1.484s-4.279.229-12.256-.712-10.376-3.934-10.611-5.122c-.211-1.055,3.737-1.4,7.972-1.856.533-.056,1.068-.118,1.6-.18,4.782-.565,8.3-3.624,12.659-6.125,4.128-2.37,10.331-12.1,10.331-12.1l10.943.944s-5.807,8.687-8.057,12.465c-1.323,2.222-1.274,5.174-1.128,7.454A14.04,14.04,0,0,1,1944.907,1583.444Z" transform="translate(-1910.686 -1343.955)" fill="#ffb27d"/>
            <path id="Path_80215" data-name="Path 80215" d="M1933.561,1619.078c-5.6-1.41-4.279.229-12.256-.712s-10.376-3.934-10.611-5.123c-.211-1.055,3.737-1.4,7.972-1.856l.039.082a22.509,22.509,0,0,0,11.409,3.635c5.416.17,11.164-1.341,14.9-1.255a14.04,14.04,0,0,1-.111,3.745C1944.178,1621.112,1939.161,1620.489,1933.561,1619.078Z" transform="translate(-1910.686 -1378.105)" fill="#233862"/>
            <path id="Path_80216" data-name="Path 80216" d="M2129.656,1397.641l10.042,27.615,13.11,36.058a21.644,21.644,0,0,0,7.1-.6,30.788,30.788,0,0,0,6.889-3.294s-3.438-38.64-10.2-60.856c-1.734-5.7-3.689-10.318-5.865-12.924C2140.09,1370.884,2129.656,1397.641,2129.656,1397.641Z" transform="translate(-2052.979 -1227.868)" fill="#2f2f57"/>
            <path id="Path_80217" data-name="Path 80217" d="M2046.685,1296.288c6.721-2.115,25.828.8,45.014,4.693l4.069-6.607,41.521-2.948s13.479,30.464,5.846,49.761c-1.122,2.836-3.858,4.016-7.59,4.05l0,.005s-24.767.43-32.787.374c-20.637-.146-43.576-14.495-46.553-15.112-4.871-1.01-6.891,8.733-11.842,18.943s-46.176,45.044-46.176,45.044-6.3.018-8.893-.976a8.765,8.765,0,0,1-3.8-2.439S2031.529,1301.06,2046.685,1296.288Z" transform="translate(-1959.293 -1170.185)" fill="#1b1b43"/>
            <path id="Path_80218" data-name="Path 80218" d="M2282.506,1012.232c14.72,8.241,44.58,25.32,44.736,25.212,0,0,10.99,4.23,17.27.122,10.467-6.846,16.186-25.428-2.755-41.589-9.447-8.06-16.184-10.053-17.119-22.822-.508-6.928-9.812-29.845-25.552-27.843a23.941,23.941,0,0,1-3.965.232,14.718,14.718,0,0,0-7.994,2C2278.191,952.785,2260.375,1008.926,2282.506,1012.232Z" transform="translate(-2145.385 -945.189)" fill="#233862"/>
            <path id="Path_80219" data-name="Path 80219" d="M2334.517,1074.181c-.065.042,7.253,2.6,12.174.46,4.629-2.007,8.178-9.574,8.11-9.579-2.1-.111-4.39-1.963-6.08-14.018l-.9.315-15.067,5.3s1.055,4.83,1.727,9.427C2335.049,1069.946,2335.342,1073.641,2334.517,1074.181Z" transform="translate(-2184.96 -1013.977)" fill="#ffb27d"/>
            <path id="Path_80220" data-name="Path 80220" d="M2332.757,1057.244s.642,3.385,1.534,8.223c8.643-1.493,12.285-8.866,13.534-13.525Z" transform="translate(-2184.96 -1014.56)" fill="#ed975d"/>
            <path id="Path_80221" data-name="Path 80221" d="M2307,1013.676s20.583-2.615,18.757-15.407-.4-21.746-13.617-20.617-15.07,6.373-15.5,10.792S2301.6,1014.027,2307,1013.676Z" transform="translate(-2161.475 -966.222)" fill="#ffb27d"/>
            <path id="Path_80222" data-name="Path 80222" d="M2298.966,979.318s13.083,11.437,22.03,12.414,12.358-1.872,12.358-1.872a34.959,34.959,0,0,1-8.373-11.513,6.3,6.3,0,0,0-5.164-3.748C2313.427,974,2301.309,973.665,2298.966,979.318Z" transform="translate(-2163.002 -964.096)" fill="#233862"/>
            <path id="Path_80223" data-name="Path 80223" d="M2302.676,981.3s-4.434,4.227-5.843,7.375c-1.36,3.038-1.813,10.324-.768,13.227,0,0-6.767-13.389-2.837-19.844C2297.4,975.21,2302.676,981.3,2302.676,981.3Z" transform="translate(-2158.477 -967.032)" fill="#233862"/>
            <path id="Path_80224" data-name="Path 80224" d="M2287.723,1129.445c.328,41.629-.062,32.928,4.464,36.91,1.09.959,4.171,1.547,8.228,1.844,12.758.937,35.209-1.007,36.079-3.36,3-8.141.94-10.691,3.485-23.169.265-1.327.592-2.764.975-4.328,2.109-8.568,4.123-11.473-3.045-25.312-6.5-12.536-13.274-22.72-13.893-22.359-17.456,10.2-18.8,1.513-18.8,1.513S2287.562,1109.14,2287.723,1129.445Z" transform="translate(-2155.695 -1039.073)" fill="#f9ddbf"/>
            <path id="Path_80225" data-name="Path 80225" d="M2158.332,1455.637l13.11,36.058a21.643,21.643,0,0,0,7.1-.6,30.787,30.787,0,0,0,6.89-3.294s-3.438-38.64-10.2-60.855Z" transform="translate(-2071.614 -1258.25)" fill="#1b1b43"/>
            <path id="Path_80226" data-name="Path 80226" d="M2272.925,1094s-17.908,2.907-20.063,10.593-14.835,52.875-14.835,52.875,9.082,1.7,13.312-2.473,14.892-38.87,14.892-38.87Z" transform="translate(-2123.402 -1041.893)" fill="#f9ddbf"/>
            <path id="Path_80227" data-name="Path 80227" d="M2323.97,1232.462c12.758.938,35.209-1.007,36.079-3.36,3-8.141.94-10.691,3.485-23.169l-6.033-17.379s.881,19.31-4.847,24.348-23.377,9.636-26.175,13.859A15.522,15.522,0,0,0,2323.97,1232.462Z" transform="translate(-2179.25 -1103.336)" fill="#f2ccaa"/>
            <path id="Path_80228" data-name="Path 80228" d="M2324.456,1287.266s-12.573-2.893-14.612-1.79-7.034,5.138-7.666,6.55,4.531-1.043,6.208-1.48c1.086-.283,3.932.728,5.341,1.209,5.929,2.023,9.577,1.03,9.577,1.03Z" transform="translate(-2165.054 -1166.155)" fill="#ffb27d"/>
            <path id="Path_80229" data-name="Path 80229" d="M2371.008,1089.663s16.9,1.161,22.7,9.366c8.158,11.55,24.157,60.639,14.744,67.105-10.6,7.281-48.024,1.585-48.024,1.585s-1.206-5.836.549-8.642,29.974-7.161,31.284-8.453-16.083-25.483-16.055-29.385S2371.008,1089.663,2371.008,1089.663Z" transform="translate(-2202.677 -1039.073)" fill="#f9ddbf"/>
            <path id="Path_80230" data-name="Path 80230" d="M2313.16,1295.939s-2.662,3.384-3.531,3.785a2.574,2.574,0,0,1-1.425.295l1.8-3.188Z" transform="translate(-2169.005 -1173.117)" fill="#ffb27d"/>
            <path id="Path_80231" data-name="Path 80231" d="M2309.885,1285.942l-7.7,3.671a1.367,1.367,0,0,0,1.267.5,18.294,18.294,0,0,0,3.333-.891Z" transform="translate(-2165.095 -1166.621)" fill="#ffb27d"/>
          </g>
          <g id="Group_31830" data-name="Group 31830" transform="translate(63.654 86.152)">
            <g id="Group_31829" data-name="Group 31829">
              <path id="Path_80232" data-name="Path 80232" d="M2171.078,1237.166l-60.679-.428-17.933-45.52,60.585.428Z" transform="translate(-2092.467 -1191.219)" fill="#f99746"/>
              <path id="Path_80233" data-name="Path 80233" d="M2141.683,1316.146l80.127.566-.012,1.768-79.416-.56Z" transform="translate(-2124.449 -1272.4)" fill="#ed7d2b"/>
            </g>
            <path id="Path_80234" data-name="Path 80234" d="M2187.672,1251.373a2.1,2.1,0,0,1,2.081-2.874,4.139,4.139,0,0,1,3.7,2.915,2.1,2.1,0,0,1-2.081,2.875A4.141,4.141,0,0,1,2187.672,1251.373Z" transform="translate(-2154.261 -1228.441)" fill="#fff"/>
          </g>
        </g>
      </g>
      <g id="Group_31832" data-name="Group 31832" transform="translate(1224.165 484.02)">
        <path id="Path_78143" data-name="Path 78143" d="M4842.941,2381.75s.827,13.337,3.407,13.529c.343.025,13.087.025,13.087.025h16.287s-.125-4.014-4.881-4.843-12.714-4.17-15.595-10.455C4852.215,2373.394,4842.941,2381.75,4842.941,2381.75Z" transform="translate(-4764.586 -2096.935)" fill="#ed7d2b"/>
        <path id="Path_78144" data-name="Path 78144" d="M4604.908,1940.781a111.921,111.921,0,0,0,7.777,12.409c8.557,12.046,17.871,21.979,19.494,31.368a46.5,46.5,0,0,0,1.5,6.009c.678,2.151,1.516,4.412,2.482,6.75a214.843,214.843,0,0,0,14.483,27.611c9.373,15.487,18.186,28.411,18.186,28.411l16.162-.768c-.647-1.806-7.7-23.191-17.126-49.324-3.83-10.609-7.9-21.893-11.83-32.775q-.786-2.18-1.565-4.336c-1.2-3.33-2.383-6.608-3.538-9.8-8.854-24.539-15.908-44.078-15.908-44.078s-35.39-14.951-39.064-5.263C4592.936,1914.983,4595.4,1922.808,4604.908,1940.781Z" transform="translate(-4590.984 -1765.583)" fill="#272424"/>
        <path id="Path_78145" data-name="Path 78145" d="M4716.042,2337.59s-5.92,5.487-4.765,9.385,6.5,6.5,7.218,11.261,3.61,7.364,6.208,7.364h12.39s1.914-3.353-2.708-4.364-6.361-6.609-6.073-11.807a93.056,93.056,0,0,0-.433-12.127l-9.818-2.311Z" transform="translate(-4672.39 -2067.229)" fill="#ed7d2b"/>
        <path id="Path_78146" data-name="Path 78146" d="M4644.033,1925.984s37.24,60.407,37.24,65.212c0,10.63-28.137,71.835-28.137,71.835s-14.936-7.891-14.336-13.43c0,0,8.961-42.965,11.567-49.871s-47.066-32.925-49.67-64.361Z" transform="translate(-4595.147 -1781.149)" fill="#343030"/>
        <path id="Path_78147" data-name="Path 78147" d="M4798.945,1822.632s7.681,4.367,9.83,4.366,10.589-1.631,12.942-.429,6.609,6.038,7.409,7.618c1.437,2.841-5.784,1.586-9.2-.834a2.153,2.153,0,0,0-1.706-.352c-1.768.385-5.44,1.053-7.212.4-2.385-.883-14.944-1.863-14.944-1.863Z" transform="translate(-4731.801 -1708.86)" fill="#e49963"/>
        <path id="Path_78148" data-name="Path 78148" d="M4611.225,1606.347s7.962,56.586,21.144,61.654c6.505,2.5,35.254,8.17,43.757,8.739,0,0,2.083-1.689,1.576-8.568,0,0-30.119-11.058-34.4-17.072-6.367-8.95,3.953-36.562-4.038-44.968S4617.817,1594.114,4611.225,1606.347Z" transform="translate(-4602.512 -1552.054)" fill="#ed7d2b"/>
        <path id="Path_78149" data-name="Path 78149" d="M4648.959,1555.724c-10.641,2.751-28.284-7.109-28.284-7.109a26.123,26.123,0,0,0,9.39-14.718q.193-.765.348-1.568l5.466-1.159,8.128,7.282a69.9,69.9,0,0,1-1.2,8.222q-.264,1.36-.611,2.916A25.065,25.065,0,0,1,4648.959,1555.724Z" transform="translate(-4609.122 -1504.998)" fill="#ffb27d"/>
        <path id="Path_78150" data-name="Path 78150" d="M4582.521,1630.63c1.523,20.5-.481,51.683,1.248,57.083,1.494,4.659,18.5,1.89,25.285.334,2.512-.576,5.554-1.4,8.7-2.371,8.766-2.714,18.319-6.591,19.344-9.468a2.333,2.333,0,0,0,.095-.332,2.622,2.622,0,0,0-.019-1.206c-.341-1.466-1.658-3.053-1.812-6.685-.174-4.055-.148-8.829-.3-13.964-.007-.578-.016-1.209-.079-1.785l0-.21c0-.11-.006-.218-.008-.328-.148-5.726-.446-11.746-.794-17.717-.221-3.75-.476-7.463-.77-11.021-.765-9.184-1.794-17.352-3.159-22.515-2.228-8.416-7.143-13.906-11.615-17.929l-3.235-2.775a18.7,18.7,0,0,1-11.737-1.564c-4.179-1.984-5.621-3.406-6.35-2.87C4587.661,1582.755,4580.72,1605.566,4582.521,1630.63Z" transform="translate(-4582.235 -1535.79)" fill="#f99746"/>
        <path id="Path_78151" data-name="Path 78151" d="M4642.353,1758.644c8.766-2.715,18.318-6.591,19.343-9.468a2.476,2.476,0,0,0,.095-.331q-.008-.6-.018-1.206c-.342-1.466-1.659-3.053-1.813-6.685-.173-4.055-.147-8.829-.3-13.964-.008-.578-.016-1.209-.078-1.785l0-.21c0-.11-.006-.218-.008-.328l-35.439-45.15S4600.309,1729.123,4642.353,1758.644Z" transform="translate(-4606.838 -1608.758)" fill="#ed7d2b"/>
        <path id="Path_78152" data-name="Path 78152" d="M4665.858,1538.453a69.85,69.85,0,0,1-1.2,8.222c-7.938-2.565-11.538-9.736-12.739-12.777.129-.51.243-1.032.348-1.568l5.465-1.159Z" transform="translate(-4630.975 -1504.998)" fill="#ed985f"/>
        <path id="Path_78153" data-name="Path 78153" d="M4665.783,1499.014s-17.31-2.889-15.345-13.641,1.055-18.367,12.189-16.977,12.527,5.884,12.744,9.633S4670.336,1499.487,4665.783,1499.014Z" transform="translate(-4629.831 -1460.975)" fill="#ffb27d"/>
        <g id="Group_28991" data-name="Group 28991" transform="translate(61.523 90.067)">
          <rect id="Rectangle_12520" data-name="Rectangle 12520" width="1.605" height="42.029" transform="translate(44.09 40.466) rotate(-161.989)" fill="#343030"/>
          <rect id="Rectangle_12521" data-name="Rectangle 12521" width="44.104" height="2.639" transform="translate(44.094 40.467) rotate(-178.777)" fill="#343030"/>
        </g>
        <path id="Path_78154" data-name="Path 78154" d="M4789.874,1863.615s14.167,3.735,19.48,3.343,9.732-2.919,10.4-4.238,2.072-3.659-1.545-3.227-8.555,1.2-8.708.506,2.949-.629,2.949-.629.938-1.363-.242-1.412-4.625-.984-5.9-.344-2.46,3-3.395,2.9-11.855-4.919-11.855-4.919Z" transform="translate(-4727.468 -1731.916)" fill="#e49963"/>
        <path id="Path_78155" data-name="Path 78155" d="M4622.915,1617.124s1.675,57.119,14.219,63.609c6.189,3.2,34.137,12.006,42.526,13.51,0,0,2.257-1.45,2.512-8.343,0,0-28.717-14.311-32.308-20.76-5.342-9.6,7.96-35.9.946-45.139S4630.816,1605.692,4622.915,1617.124Z" transform="translate(-4610.689 -1560.509)" fill="#f99746"/>
        <path id="Path_78156" data-name="Path 78156" d="M4643.425,1472.986s-.2-3.689,2.077-5.8c0,0-.792-3.7.67-4.308s1.768,2.5,2.439,2.012a14.957,14.957,0,0,0,4.938-6.219c1.28-3.414,13,.721,14.364,1.336s5.756-1.641,6.609-3.47a25.65,25.65,0,0,1-3.536-3.414c-1.1-1.464-8.78-11.34-19.51-8.536s-12.193,7.926-11.583,12.315S4639.031,1471.513,4643.425,1472.986Z" transform="translate(-4622.482 -1444.086)" fill="#343030"/>
      </g>
    </g>
  </g>
</svg>
