<svg xmlns="http://www.w3.org/2000/svg" xmlns:xlink="http://www.w3.org/1999/xlink" width="800" height="700" viewBox="0 0 800 700">
  <defs>
    <clipPath id="clip-_1_HTML_Development">
      <rect width="800" height="700"/>
    </clipPath>
  </defs>
  <g id="_1_HTML_Development" data-name="1 HTML Development" clip-path="url(#clip-_1_HTML_Development)">
    <rect width="800" height="700" fill="rgba(255,255,255,0)"/>
    <g id="Group_16427" data-name="Group 16427" transform="translate(-956 -265.439)">      
      <g id="Group_16292" data-name="Group 16292" transform="translate(964 383.438)">
        <g id="Background_Complete" data-name="Background Complete" transform="translate(0 0)">
          <g id="Group_16296" data-name="Group 16296">
            <path id="Path_71078" data-name="Path 71078" d="M697.181,306.308l-15.464.329-7.848.132c-2.623.055-5.258.044-7.888.065l-.522,0,0-.53-.064-13.183,0-.591.591,0,15.6.074c5.2.006,10.4.132,15.6.193l.325,0,0,.318c-.022,2.236-.1,4.461-.154,6.66Zm0,0-.167-6.66c-.053-2.2-.132-4.365-.154-6.523l.322.32c-5.2.061-10.4.187-15.6.193l-15.6.074.589-.588-.064,13.183-.525-.524c2.571.02,5.135.009,7.713.065l7.751.132Z" transform="translate(68.681 -7.587)" fill="#ffd1ba"/>
            <path id="Path_71079" data-name="Path 71079" d="M682.409,320.418l-15.464.329-7.848.132c-2.622.055-5.258.044-7.887.065l-.523,0,0-.529-.064-13.184,0-.592.591,0,15.6.074c5.2.006,10.4.132,15.6.192l.325,0,0,.317c-.022,2.237-.1,4.462-.154,6.662Zm0,0-.167-6.662c-.053-2.194-.132-4.364-.154-6.523l.322.322c-5.2.06-10.4.187-15.6.193l-15.6.074.588-.589-.064,13.184-.524-.525c2.571.021,5.135.009,7.711.065l7.753.132Z" transform="translate(66.049 -5.072)" fill="#ffd1ba"/>
            <path id="Path_71080" data-name="Path 71080" d="M711.953,320.418l-15.464.329-7.848.132c-2.623.055-5.258.044-7.888.065l-.522,0,0-.529-.062-13.184,0-.592.591,0,15.6.074c5.2.006,10.4.132,15.6.192l.324,0,0,.317c-.022,2.237-.1,4.462-.154,6.662Zm0,0-.167-6.662c-.053-2.194-.133-4.364-.154-6.523l.322.322c-5.2.06-10.4.187-15.6.193l-15.6.074.589-.589-.064,13.184-.525-.525c2.571.021,5.135.009,7.713.065l7.752.132Z" transform="translate(71.314 -5.072)" fill="#ffd1ba"/>
            <path id="Path_71081" data-name="Path 71081" d="M319.6,173.151l-15.464.329-7.848.132c-2.622.055-5.258.044-7.887.065l-.523,0,0-.529-.064-13.184,0-.591.591,0,15.6.074c5.2.006,10.4.132,15.6.192l.325,0,0,.317c-.022,2.237-.1,4.462-.154,6.662Zm0,0-.167-6.662c-.053-2.194-.132-4.365-.154-6.523l.322.322c-5.2.06-10.4.187-15.6.193l-15.6.074.588-.589-.064,13.184-.524-.525c2.571.021,5.135.009,7.711.065l7.753.132Z" transform="translate(1.39 -31.318)" fill="#ebebeb"/>
            <path id="Path_71082" data-name="Path 71082" d="M304.83,187.261l-15.464.329-7.848.132c-2.623.055-5.258.044-7.888.065l-.523,0,0-.529-.062-13.184,0-.591.591,0,15.6.073c5.2.006,10.4.133,15.6.193l.325,0,0,.318c-.021,2.237-.1,4.462-.153,6.662Zm0,0-.167-6.662c-.054-2.2-.133-4.365-.154-6.523l.32.322c-5.2.06-10.4.187-15.6.193l-15.6.073.588-.588-.062,13.184-.525-.525c2.571.021,5.135.009,7.713.065l7.752.132Z" transform="translate(-1.243 -28.803)" fill="#ebebeb"/>
            <path id="Path_71083" data-name="Path 71083" d="M334.373,187.261l-15.464.329-7.848.132c-2.621.055-5.258.044-7.887.065l-.523,0,0-.529-.064-13.184,0-.591.591,0,15.6.073c5.2.006,10.4.133,15.6.193l.325,0,0,.318c-.022,2.237-.1,4.462-.154,6.662Zm0,0-.167-6.662c-.053-2.2-.132-4.365-.154-6.523l.322.322c-5.2.06-10.4.187-15.6.193l-15.6.073.588-.588-.064,13.184-.524-.525c2.57.021,5.133.009,7.711.065l7.751.132Z" transform="translate(4.022 -28.803)" fill="#ebebeb"/>
            <path id="Path_71084" data-name="Path 71084" d="M103.689,247.191l-15.463.328-7.848.132c-2.623.055-5.258.045-7.888.065l-.523,0,0-.529L71.9,234.007l0-.591.591,0,15.6.074c5.2.006,10.4.133,15.6.193l.325,0,0,.318c-.021,2.237-.1,4.462-.154,6.662Zm0,0-.167-6.662c-.053-2.2-.132-4.365-.154-6.523l.322.322c-5.2.06-10.4.187-15.6.193l-15.6.073.588-.588-.062,13.184-.525-.525c2.571.021,5.135.009,7.711.065l7.753.132Z" transform="translate(-37.09 -18.123)" fill="#ffd1ba"/>
            <path id="Path_71085" data-name="Path 71085" d="M542.671,173.143l-15.464.329-7.848.132c-2.623.055-5.258.044-7.888.065l-.522,0,0-.529-.064-13.184,0-.591.591,0,15.6.074c5.2.006,10.4.132,15.6.192l.325,0,0,.317c-.022,2.237-.1,4.462-.154,6.662Zm0,0-.167-6.662c-.053-2.2-.132-4.365-.154-6.523l.322.322c-5.2.06-10.4.187-15.6.193l-15.6.074.589-.589L512,173.143l-.525-.525c2.571.021,5.135.009,7.713.065l7.751.132Z" transform="translate(41.145 -31.319)" fill="#ffd1ba"/>
            <path id="Path_71086" data-name="Path 71086" d="M695.65,64.464l-15.464.328-7.848.132c-2.623.055-5.258.045-7.888.065l-.523,0,0-.53-.062-13.183,0-.591.591,0,15.6.074c5.2.006,10.4.133,15.6.193l.325,0,0,.318c-.021,2.236-.1,4.461-.153,6.66Zm0,0-.167-6.662c-.054-2.2-.133-4.365-.154-6.523l.32.322c-5.2.06-10.4.186-15.6.192l-15.6.074.588-.588-.062,13.183-.526-.524c2.571.02,5.135.009,7.713.065l7.752.132Z" transform="translate(68.408 -50.688)" fill="#ffd1ba"/>
            <path id="Path_71087" data-name="Path 71087" d="M710.421,78.573l-15.464.329-7.848.132c-2.621.055-5.258.044-7.887.065l-.523,0,0-.53-.064-13.183,0-.591.591,0,15.6.074c5.2.006,10.4.132,15.6.193l.325,0,0,.318c-.022,2.236-.1,4.461-.154,6.66Zm0,0-.167-6.66c-.053-2.2-.132-4.365-.154-6.523l.322.32c-5.2.061-10.4.187-15.6.193l-15.6.074.588-.588-.063,13.183-.524-.524c2.571.02,5.135.008,7.711.065l7.753.132Z" transform="translate(71.041 -48.173)" fill="#ffd1ba"/>
            <path id="Path_71088" data-name="Path 71088" d="M74.146,64.475,58.682,64.8l-7.848.132c-2.623.055-5.258.045-7.888.065l-.522,0,0-.53-.064-13.183,0-.591.59,0,15.6.074c5.2.006,10.4.133,15.6.193l.325,0,0,.318c-.022,2.236-.1,4.461-.154,6.66Zm0,0-.167-6.66c-.053-2.2-.132-4.365-.154-6.523l.322.322c-5.2.06-10.4.186-15.6.192l-15.6.074.589-.588-.064,13.183-.525-.524c2.571.02,5.135.009,7.713.065l7.751.132Z" transform="translate(-42.355 -50.686)" fill="#ffd1ba"/>
          </g>
          <g id="Group_16300" data-name="Group 16300" transform="translate(159.768 2.393)">
            <g id="Group_16298" data-name="Group 16298" transform="translate(0)">
              <g id="Group_16297" data-name="Group 16297">
                <rect id="Rectangle_10985" data-name="Rectangle 10985" width="139.662" height="94.115" transform="translate(0.589 0.589)" fill="#ffd1ba"/>
                <path id="Path_71089" data-name="Path 71089" d="M318.8,148.012H177.956V52.719H318.8Zm-139.661-1.178H317.617V53.9H179.134Z" transform="translate(-177.956 -52.719)" fill="#3f3d56"/>
              </g>
            </g>
            <g id="Group_16299" data-name="Group 16299" transform="translate(7.653 4.494)">
              <path id="Path_71090" data-name="Path 71090" d="M190.883,59.75a3.216,3.216,0,1,1-3.217-3.217A3.217,3.217,0,0,1,190.883,59.75Z" transform="translate(-184.451 -56.533)" fill="#f66014"/>
              <path id="Path_71091" data-name="Path 71091" d="M202.03,59.75a3.217,3.217,0,1,1-3.217-3.217A3.217,3.217,0,0,1,202.03,59.75Z" transform="translate(-182.465 -56.533)" fill="#f66014"/>
              <path id="Path_71092" data-name="Path 71092" d="M213.177,59.75a3.217,3.217,0,1,1-3.217-3.217A3.217,3.217,0,0,1,213.177,59.75Z" transform="translate(-180.478 -56.533)" fill="#f66014"/>
            </g>
            <rect id="Rectangle_10986" data-name="Rectangle 10986" width="139.661" height="1.178" transform="translate(0.589 14.178)" fill="#3f3d56"/>
          </g>
          <g id="Group_16301" data-name="Group 16301" transform="translate(171.715 63.209)">
            <path id="Path_71093" data-name="Path 71093" d="M202.126,168.251c0-1.472.2-5.4.2-7.063,0-7.162-2.551-10.4-9.222-10.6-3.141-.2-5-2.06-5-4.708s1.863-4.514,5-4.709c6.671-.295,9.222-3.434,9.222-10.7,0-1.667-.2-5.591-.2-7.062,0-9.519,4.021-15.6,19.229-18.936,3.041-.687,5.4,1.178,5.4,4.022A4.126,4.126,0,0,1,224,112.523c-9.516,2.943-10.891,5.985-10.891,12.656,0,1.963.2,5.2.2,7.26,0,7.653-3.729,11.382-10.206,13.442,6.576,2.157,10.206,5.787,10.206,13.44,0,2.062-.2,5.3-.2,7.261,0,6.671,1.375,9.713,10.891,12.656a4.127,4.127,0,0,1,2.746,4.022c0,2.847-2.355,4.709-5.4,4.024C206.148,183.949,202.126,177.866,202.126,168.251Z" transform="translate(-188.096 -104.336)" fill="#fce8de"/>
            <path id="Path_71094" data-name="Path 71094" d="M252.525,123.415c0,1.472-.2,5.4-.2,7.062,0,7.261,2.649,10.4,9.321,10.7,3.041.2,4.906,2.058,4.906,4.709s-1.865,4.513-4.906,4.708c-6.672.2-9.321,3.435-9.321,10.6,0,1.667.2,5.592.2,7.063,0,9.615-4.022,15.7-19.23,19.035-3.041.686-5.4-1.177-5.4-4.024a4.076,4.076,0,0,1,2.845-4.022c9.42-2.943,10.794-5.985,10.794-12.656,0-1.963-.2-5.2-.2-7.261,0-7.653,3.729-11.38,10.2-13.44-6.574-2.159-10.2-5.79-10.2-13.442,0-2.061.2-5.3.2-7.26,0-6.671-1.374-9.713-10.794-12.656A4.076,4.076,0,0,1,227.9,108.5c0-2.844,2.355-4.709,5.4-4.022C248.5,107.814,252.525,113.9,252.525,123.415Z" transform="translate(-181.002 -104.336)" fill="#fce8de"/>
          </g>
          <g id="Group_16302" data-name="Group 16302" transform="translate(649.469 151.486)">
            <path id="Path_71095" data-name="Path 71095" d="M618.316,216.421a4,4,0,0,1-2.79,6.849,4.231,4.231,0,0,1-2.917-1.142l-17.819-18.074c-.191-.064-.253-.19-.318-.381a.889.889,0,0,0-.19-.127,1.711,1.711,0,0,1-.191-.507.343.343,0,0,1-.19-.253c-.062-.127-.062-.318-.126-.381,0-.191-.127-.255-.127-.318v-.443c0-.127-.062-.191-.062-.382,0-.062.062-.252.062-.316V200.5c0-.127.127-.191.127-.254.064-.19.064-.316.126-.507,0-.064.065-.064.065-.126a4.439,4.439,0,0,1,.316-.571.125.125,0,0,1,.127-.127,1.181,1.181,0,0,1,.381-.443L612.609,180.4a4.139,4.139,0,0,1,5.707,0,4.02,4.02,0,0,1,0,5.707l-15.029,15.155Z" transform="translate(-593.585 -179.26)" fill="#fce8de"/>
            <path id="Path_71096" data-name="Path 71096" d="M628.342,218.435l15.536-36.971a3.519,3.519,0,0,1,4.63-1.838,3.422,3.422,0,0,1,1.776,4.5l-15.537,37.035a3.515,3.515,0,0,1-3.234,2.093,3.02,3.02,0,0,1-1.267-.253A3.426,3.426,0,0,1,628.342,218.435Z" transform="translate(-587.441 -179.245)" fill="#fce8de"/>
            <path id="Path_71097" data-name="Path 71097" d="M676.786,203.547a.062.062,0,0,1-.062.064,2.975,2.975,0,0,1-.444.444L658.46,222.128a4.137,4.137,0,0,1-5.707,0,4.02,4.02,0,0,1,0-5.707l15.029-15.158-15.029-15.155a4.02,4.02,0,0,1,0-5.707,4.139,4.139,0,0,1,5.707,0l17.819,18.074a3.026,3.026,0,0,1,.444.443c.062,0,.062.127.062.127a5.347,5.347,0,0,1,.317.571c0,.062.065.062.065.126a2.955,2.955,0,0,0,.191.57c0,.064.063.064.063.191v.444c0,.064.062.253.062.316s-.062.254-.062.318v.507c0,.064-.062.064-.062.127a5.751,5.751,0,0,0-.191.571c0,.064-.065.064-.065.19C677.041,203.1,676.913,203.293,676.786,203.547Z" transform="translate(-583.252 -179.26)" fill="#fce8de"/>
          </g>
          <path id="Path_71098" data-name="Path 71098" d="M604.358,140.833A15.207,15.207,0,0,1,590.284,156v.042H504.166a17.873,17.873,0,0,1-1.671-35.667,30.111,30.111,0,0,1,58.356-9.417,17.648,17.648,0,0,1,7.991-1.89,17.866,17.866,0,0,1,17.838,16.766,14.826,14.826,0,0,1,2.472-.2A15.209,15.209,0,0,1,604.358,140.833Z" transform="translate(36.763 -43.462)" fill="#fce8de"/>
          <g id="Group_16303" data-name="Group 16303" transform="translate(48.345 42.406)">
            <path id="Path_71099" data-name="Path 71099" d="M666.353,317.831l9.771-15.752-4.853-3.007a4.389,4.389,0,0,1-2.015-4.144,25.549,25.549,0,0,0,.087-2.705,4.447,4.447,0,0,1,2.3-4.05l5-2.682-8.764-16.342-5,2.682a4.328,4.328,0,0,1-4.529-.245,25.927,25.927,0,0,0-2.51-1.554,4.334,4.334,0,0,1-2.244-3.955l.18-5.672-18.528-.575-.172,5.692a4.348,4.348,0,0,1-2.514,3.8q-.65.3-1.288.646t-1.25.715a4.332,4.332,0,0,1-4.539,0l-4.859-3.01-9.771,15.752,4.866,3.021a4.382,4.382,0,0,1,2.008,4.139,25.762,25.762,0,0,0-.091,2.7,4.448,4.448,0,0,1-2.3,4.046l-5,2.683,8.764,16.341,5-2.683a4.448,4.448,0,0,1,4.641.324,25.512,25.512,0,0,0,2.3,1.416,4.382,4.382,0,0,1,2.339,3.962l-.176,5.726,18.526.575.177-5.687a4.4,4.4,0,0,1,2.574-3.821q.619-.292,1.231-.62t1.188-.677a4.416,4.416,0,0,1,4.623-.031Zm-14-12.745a15.188,15.188,0,1,1,5.355-17.7A15.185,15.185,0,0,1,652.351,305.086Z" transform="translate(10.525 -55.821)" fill="#fce8de"/>
            <path id="Path_71100" data-name="Path 71100" d="M575.377,347.82l11.247-6.49-1.989-3.443a3.087,3.087,0,0,1,.11-3.237,18.02,18.02,0,0,0,.972-1.681,3.087,3.087,0,0,1,2.744-1.708h3.975v-12.99h-3.975a3.085,3.085,0,0,1-2.744-1.707,18.026,18.026,0,0,0-.972-1.682,3.089,3.089,0,0,1-.11-3.237l1.989-3.442-11.247-6.491-1.991,3.458a3.087,3.087,0,0,1-2.864,1.512q-.475-.023-.957-.024c-.319,0-.639.008-.956.024a3.077,3.077,0,0,1-2.853-1.5l-2-3.467L552.5,308.2l1.991,3.451a3.084,3.084,0,0,1-.114,3.238,18.566,18.566,0,0,0-.97,1.674,3.084,3.084,0,0,1-2.743,1.7h-3.975v12.99h3.975a3.085,3.085,0,0,1,2.743,1.706,18.38,18.38,0,0,0,.97,1.673,3.087,3.087,0,0,1,.114,3.238l-1.991,3.452,11.248,6.49,1.991-3.452a3.086,3.086,0,0,1,2.857-1.507c.318.016.64.025.963.025s.64-.008.957-.025a3.093,3.093,0,0,1,2.867,1.512ZM569.564,335.4a10.637,10.637,0,1,1,10.643-10.632A10.63,10.63,0,0,1,569.564,335.4Z" transform="translate(-0.817 -48.357)" fill="#fce8de"/>
            <path id="Path_71101" data-name="Path 71101" d="M86.834,105.728a3.093,3.093,0,0,1,1.512,2.867c-.016.318-.025.636-.025.957s.008.644.025.963a3.083,3.083,0,0,1-1.506,2.856l-3.453,1.992,6.49,11.248,3.452-1.991a3.089,3.089,0,0,1,3.238.114,18.244,18.244,0,0,0,1.674.97,3.086,3.086,0,0,1,1.7,2.743v3.975h12.99v-3.975a3.084,3.084,0,0,1,1.7-2.743,18.566,18.566,0,0,0,1.674-.97,3.087,3.087,0,0,1,3.238-.114L123,126.611l6.49-11.248-3.467-2a3.077,3.077,0,0,1-1.5-2.852c.015-.317.024-.636.024-.956s-.008-.639-.024-.957a3.09,3.09,0,0,1,1.512-2.864l3.458-1.991L123,92.492l-3.443,1.989a3.089,3.089,0,0,1-3.237-.11,18.024,18.024,0,0,0-1.682-.972,3.084,3.084,0,0,1-1.707-2.744V86.68H99.946v3.975A3.086,3.086,0,0,1,98.237,93.4a18.005,18.005,0,0,0-1.681.972,3.091,3.091,0,0,1-3.238.11l-3.442-1.989-6.49,11.247Zm19.6-6.82A10.638,10.638,0,1,1,95.8,109.552,10.647,10.647,0,0,1,106.435,98.909Z" transform="translate(-83.387 -86.68)" fill="#fce8de"/>
          </g>
        </g>
        <g id="Chair_2" data-name="Chair 2" transform="translate(400.503 280.672)">
          <g id="Group_16304" data-name="Group 16304">
            <path id="Path_71102" data-name="Path 71102" d="M382.277,441.9H514.186l-26.3-152.993H389.247Z" transform="translate(-382.277 -288.906)" fill="#ffd8c5"/>
            <path id="Path_71103" data-name="Path 71103" d="M382.277,441.9h11.566l6.491-152.993H389.247Z" transform="translate(-382.277 -288.906)" fill="#565661"/>
          </g>
        </g>
        <g id="Chair_1" data-name="Chair 1" transform="translate(254.006 280.672)">
          <g id="Group_16305" data-name="Group 16305">
            <path id="Path_71104" data-name="Path 71104" d="M389.848,441.9H257.94l26.3-152.993h98.637Z" transform="translate(-257.94 -288.906)" fill="#ffd8c5"/>
            <path id="Path_71105" data-name="Path 71105" d="M372.626,441.9H361.061L354.57,288.906h11.087Z" transform="translate(-240.718 -288.906)" fill="#565661"/>
          </g>
        </g>
        <g id="Windows" transform="translate(63.431 14.904)">
          <g id="Group_16311" data-name="Group 16311" transform="translate(511.684 178.432)">
            <g id="Group_16308" data-name="Group 16308">
              <g id="Group_16306" data-name="Group 16306">
                <rect id="Rectangle_10987" data-name="Rectangle 10987" width="121.47" height="77.486" transform="translate(0.768 0.767)" fill="#ffd1ba"/>
                <path id="Path_71106" data-name="Path 71106" d="M653.483,293.8H530.477V214.78H653.483Zm-121.471-1.536H651.948v-75.95H532.012Z" transform="translate(-530.477 -214.78)" fill="#3f3d56"/>
              </g>
              <g id="Group_16307" data-name="Group 16307">
                <rect id="Rectangle_10988" data-name="Rectangle 10988" width="121.47" height="14.654" transform="translate(0.768 0.767)" fill="#ffd1ba"/>
                <path id="Path_71107" data-name="Path 71107" d="M653.483,230.969H530.477V214.78H653.483Zm-121.471-1.535H651.948V216.315H532.012Z" transform="translate(-530.477 -214.78)" fill="#3f3d56"/>
              </g>
            </g>
            <g id="Group_16309" data-name="Group 16309" transform="translate(7.147 4.513)">
              <path id="Path_71108" data-name="Path 71108" d="M543.92,222.3a3.688,3.688,0,1,1-3.688-3.688A3.688,3.688,0,0,1,543.92,222.3Z" transform="translate(-536.543 -218.61)" fill="#f66014"/>
              <path id="Path_71109" data-name="Path 71109" d="M556.7,222.3a3.688,3.688,0,1,1-3.689-3.688A3.688,3.688,0,0,1,556.7,222.3Z" transform="translate(-534.265 -218.61)" fill="#f66014"/>
              <path id="Path_71110" data-name="Path 71110" d="M569.483,222.3a3.688,3.688,0,1,1-3.688-3.688A3.687,3.687,0,0,1,569.483,222.3Z" transform="translate(-531.987 -218.61)" fill="#f66014"/>
            </g>
            <g id="Group_16310" data-name="Group 16310" transform="translate(21.732 29.703)">
              <path id="Path_71111" data-name="Path 71111" d="M548.922,254.682A14.984,14.984,0,0,1,563.9,239.99a15.269,15.269,0,0,1,9.428,3.184,2.414,2.414,0,0,1,.408,3.265,2.389,2.389,0,0,1-3.264.449,10.177,10.177,0,0,0-6.572-2.245,10.8,10.8,0,0,0-7.346,2.937,10.07,10.07,0,0,0-2.979,7.1,9.922,9.922,0,0,0,2.979,7.1,10.8,10.8,0,0,0,7.346,2.938,10.256,10.256,0,0,0,6.572-2.244,2.474,2.474,0,0,1,3.264.449,2.408,2.408,0,0,1-.408,3.265,15.269,15.269,0,0,1-9.428,3.184A14.93,14.93,0,0,1,548.922,254.682Z" transform="translate(-548.922 -239.99)" fill="#fff"/>
              <path id="Path_71112" data-name="Path 71112" d="M576.007,262.274a2.128,2.128,0,0,1,2.98-.285c1.8,1.469,4.9,3.182,7.794,3.141a8.8,8.8,0,0,0,5.1-1.509,3.676,3.676,0,0,0,1.754-2.938,2.316,2.316,0,0,0-.368-1.305,3.827,3.827,0,0,0-1.223-1.224,16.329,16.329,0,0,0-5.592-1.919h-.082a22.06,22.06,0,0,1-5.264-1.592,8.767,8.767,0,0,1-3.8-3.182,6.256,6.256,0,0,1-.939-3.347,7.537,7.537,0,0,1,3.265-5.958,12.062,12.062,0,0,1,7.061-2.163c3.918,0,6.816,1.918,8.9,3.265a2.1,2.1,0,0,1,.571,2.9,2.062,2.062,0,0,1-2.9.613c-2.081-1.387-4.081-2.612-6.57-2.612a7.809,7.809,0,0,0-4.573,1.387,3.253,3.253,0,0,0-1.551,2.572,1.983,1.983,0,0,0,.286,1.143,3.926,3.926,0,0,0,1.1,1.062,14.057,14.057,0,0,0,5.1,1.8h.081a23.992,23.992,0,0,1,5.633,1.713,9.528,9.528,0,0,1,4.08,3.389,6.6,6.6,0,0,1,.98,3.469,7.9,7.9,0,0,1-3.51,6.326,12.767,12.767,0,0,1-7.551,2.327,17.6,17.6,0,0,1-10.447-4.081A2.172,2.172,0,0,1,576.007,262.274Z" transform="translate(-544.174 -239.99)" fill="#fff"/>
              <path id="Path_71113" data-name="Path 71113" d="M598.766,262.274a2.126,2.126,0,0,1,2.979-.285c1.8,1.469,4.9,3.182,7.794,3.141a8.8,8.8,0,0,0,5.1-1.509,3.673,3.673,0,0,0,1.754-2.938,2.318,2.318,0,0,0-.368-1.305,3.826,3.826,0,0,0-1.223-1.224,16.319,16.319,0,0,0-5.592-1.919h-.082a22.076,22.076,0,0,1-5.264-1.592,8.767,8.767,0,0,1-3.795-3.182,6.265,6.265,0,0,1-.939-3.347,7.54,7.54,0,0,1,3.265-5.958,12.065,12.065,0,0,1,7.061-2.163c3.918,0,6.816,1.918,8.9,3.265a2.1,2.1,0,0,1,.57,2.9,2.062,2.062,0,0,1-2.9.613c-2.081-1.387-4.081-2.612-6.57-2.612a7.809,7.809,0,0,0-4.573,1.387,3.251,3.251,0,0,0-1.549,2.572,1.983,1.983,0,0,0,.286,1.143,3.937,3.937,0,0,0,1.1,1.062,14.056,14.056,0,0,0,5.1,1.8h.08a24,24,0,0,1,5.634,1.713,9.525,9.525,0,0,1,4.079,3.389,6.6,6.6,0,0,1,.981,3.469,7.9,7.9,0,0,1-3.511,6.326,12.764,12.764,0,0,1-7.551,2.327,17.6,17.6,0,0,1-10.447-4.081A2.172,2.172,0,0,1,598.766,262.274Z" transform="translate(-540.118 -239.99)" fill="#fff"/>
            </g>
          </g>
          <g id="Group_16317" data-name="Group 16317" transform="translate(0 186.265)">
            <g id="Group_16314" data-name="Group 16314">
              <g id="Group_16312" data-name="Group 16312">
                <rect id="Rectangle_10989" data-name="Rectangle 10989" width="121.47" height="77.486" transform="translate(0.767 0.767)" fill="#ffd1ba"/>
                <path id="Path_71114" data-name="Path 71114" d="M219.2,300.449h-123V221.428h123Zm-121.47-1.535H217.661v-75.95H97.726Z" transform="translate(-96.191 -221.428)" fill="#3f3d56"/>
              </g>
              <g id="Group_16313" data-name="Group 16313">
                <rect id="Rectangle_10990" data-name="Rectangle 10990" width="121.47" height="14.654" transform="translate(0.767 0.767)" fill="#ffd1ba"/>
                <path id="Path_71115" data-name="Path 71115" d="M219.2,237.616h-123V221.428h123ZM97.726,236.08H217.661V222.963H97.726Z" transform="translate(-96.191 -221.428)" fill="#3f3d56"/>
              </g>
            </g>
            <g id="Group_16315" data-name="Group 16315" transform="translate(7.146 4.513)">
              <path id="Path_71116" data-name="Path 71116" d="M109.633,228.946a3.688,3.688,0,1,1-3.688-3.688A3.688,3.688,0,0,1,109.633,228.946Z" transform="translate(-102.256 -225.258)" fill="#f66014"/>
              <path id="Path_71117" data-name="Path 71117" d="M122.415,228.946a3.688,3.688,0,1,1-3.689-3.688A3.688,3.688,0,0,1,122.415,228.946Z" transform="translate(-99.978 -225.258)" fill="#f66014"/>
              <path id="Path_71118" data-name="Path 71118" d="M135.2,228.946a3.688,3.688,0,1,1-3.689-3.688A3.688,3.688,0,0,1,135.2,228.946Z" transform="translate(-97.7 -225.258)" fill="#f66014"/>
            </g>
            <g id="Group_16316" data-name="Group 16316" transform="translate(23.447 29.703)">
              <path id="Path_71119" data-name="Path 71119" d="M116.091,261.33a14.981,14.981,0,0,1,14.978-14.692,15.277,15.277,0,0,1,9.429,3.184,2.343,2.343,0,0,1-2.858,3.714,10.169,10.169,0,0,0-6.571-2.245,10.8,10.8,0,0,0-7.346,2.938,10.07,10.07,0,0,0-2.979,7.1,9.932,9.932,0,0,0,2.979,7.1,10.808,10.808,0,0,0,7.346,2.937,10.253,10.253,0,0,0,6.571-2.244,2.477,2.477,0,0,1,3.266.449,2.411,2.411,0,0,1-.408,3.265,15.27,15.27,0,0,1-9.429,3.184A14.928,14.928,0,0,1,116.091,261.33Z" transform="translate(-116.091 -246.638)" fill="#fff"/>
              <path id="Path_71120" data-name="Path 71120" d="M150.524,263.179h-5.8a2.239,2.239,0,0,1-2.245-2.245,2.265,2.265,0,0,1,2.245-2.245h5.8v-5.673a2.3,2.3,0,0,1,2.327-2.327,2.326,2.326,0,0,1,2.326,2.327v5.673h5.8a2.265,2.265,0,0,1,2.245,2.245,2.238,2.238,0,0,1-2.245,2.245h-5.8v5.673a2.325,2.325,0,0,1-2.326,2.327,2.3,2.3,0,0,1-2.327-2.327Z" transform="translate(-111.387 -245.916)" fill="#fff"/>
              <path id="Path_71121" data-name="Path 71121" d="M172,263.179H166.2a2.237,2.237,0,0,1-2.245-2.245,2.264,2.264,0,0,1,2.245-2.245H172v-5.673a2.3,2.3,0,0,1,2.326-2.327,2.328,2.328,0,0,1,2.328,2.327v5.673h5.794a2.265,2.265,0,0,1,2.244,2.245,2.238,2.238,0,0,1-2.244,2.245h-5.794v5.673a2.327,2.327,0,0,1-2.328,2.327A2.3,2.3,0,0,1,172,268.852Z" transform="translate(-107.56 -245.916)" fill="#fff"/>
            </g>
          </g>
          <g id="Group_16324" data-name="Group 16324" transform="translate(196.197)">
            <g id="Group_16320" data-name="Group 16320">
              <g id="Group_16318" data-name="Group 16318">
                <rect id="Rectangle_10991" data-name="Rectangle 10991" width="263.692" height="166.368" transform="translate(0.768 0.767)" fill="#f7f4ee"/>
                <path id="Path_71122" data-name="Path 71122" d="M527.939,231.24H262.711V63.338H527.939ZM264.247,229.7H526.4V64.873H264.247Z" transform="translate(-262.711 -63.338)" fill="#3f3d56"/>
              </g>
              <g id="Group_16319" data-name="Group 16319">
                <rect id="Rectangle_10992" data-name="Rectangle 10992" width="263.692" height="14.653" transform="translate(0.768 0.767)" fill="#ffd1ba"/>
                <path id="Path_71123" data-name="Path 71123" d="M527.939,79.527H262.711V63.338H527.939ZM264.247,77.992H526.4V64.873H264.247Z" transform="translate(-262.711 -63.338)" fill="#3f3d56"/>
              </g>
            </g>
            <g id="Group_16321" data-name="Group 16321" transform="translate(7.147 4.513)">
              <path id="Path_71124" data-name="Path 71124" d="M276.153,70.856a3.688,3.688,0,1,1-3.688-3.688A3.687,3.687,0,0,1,276.153,70.856Z" transform="translate(-268.777 -67.168)" fill="#f66014"/>
              <path id="Path_71125" data-name="Path 71125" d="M288.935,70.856a3.688,3.688,0,1,1-3.688-3.688A3.687,3.687,0,0,1,288.935,70.856Z" transform="translate(-266.499 -67.168)" fill="#f66014"/>
              <path id="Path_71126" data-name="Path 71126" d="M301.717,70.856a3.688,3.688,0,1,1-3.688-3.688A3.687,3.687,0,0,1,301.717,70.856Z" transform="translate(-264.221 -67.168)" fill="#f66014"/>
            </g>
            <g id="Group_16323" data-name="Group 16323" transform="translate(16.488 30.734)">
              <g id="Group_16424" data-name="Group 16424" transform="translate(0 13.838)">
                <rect id="Rectangle_10997" data-name="Rectangle 10997" width="50.17" height="2.862" transform="translate(163.011)" fill="#f9c1a5"/>
                <rect id="Rectangle_10999" data-name="Rectangle 10999" width="58.977" height="2.862" transform="translate(21.182 7.659)" fill="#f9c1a5"/>
                <rect id="Rectangle_11001" data-name="Rectangle 11001" width="56.332" height="2.862" transform="translate(13.544 30.635)" fill="#f9c1a5"/>
                <rect id="Rectangle_11003" data-name="Rectangle 11003" width="39.519" height="2.862" transform="translate(154.846 22.977)" fill="#f9c1a5"/>
                <rect id="Rectangle_11004" data-name="Rectangle 11004" width="99.777" height="2.862" transform="translate(65.086 15.318)" fill="#f9c1a5"/>
                <rect id="Rectangle_11010" data-name="Rectangle 11010" width="7.835" height="2.862" transform="translate(0 22.977)" fill="#f9c1a5"/>
                <rect id="Rectangle_11016" data-name="Rectangle 11016" width="13.406" height="2.862" transform="translate(21.182 53.612)" fill="#f9c1a5"/>
                <rect id="Rectangle_11022" data-name="Rectangle 11022" width="7.834" height="2.862" transform="translate(7.835 45.953)" fill="#f9c1a5"/>
                <rect id="Rectangle_11027" data-name="Rectangle 11027" width="58.977" height="2.862" transform="translate(21.182 67.685)" fill="#f9c1a5"/>
                <rect id="Rectangle_11028" data-name="Rectangle 11028" width="56.332" height="2.862" transform="translate(13.544 90.662)" fill="#f9c1a5"/>
                <rect id="Rectangle_11030" data-name="Rectangle 11030" width="99.777" height="2.862" transform="translate(65.086 75.344)" fill="#f9c1a5"/>
                <rect id="Rectangle_11055" data-name="Rectangle 11055" width="22.309" height="2.861" transform="translate(142.866 38.294)" fill="#f9c1a5"/>
                <rect id="Rectangle_11056" data-name="Rectangle 11056" width="7.835" height="2.862" transform="translate(0 83.003)" fill="#f9c1a5"/>
              </g>
              <g id="Group_16425" data-name="Group 16425" transform="translate(13.544 13.838)">
                <rect id="Rectangle_10995" data-name="Rectangle 10995" width="14.881" height="2.862" transform="translate(131.35)" fill="#f66014"/>
                <rect id="Rectangle_11002" data-name="Rectangle 11002" width="39.519" height="2.862" transform="translate(7.638 15.318)" fill="#f66014"/>
                <rect id="Rectangle_11005" data-name="Rectangle 11005" width="124.222" height="2.861" transform="translate(0 38.294)" fill="#f66014"/>
                <rect id="Rectangle_11006" data-name="Rectangle 11006" width="65.27" height="2.862" transform="translate(147.807 7.659)" fill="#f66014"/>
                <rect id="Rectangle_11013" data-name="Rectangle 11013" width="59.646" height="2.862" transform="translate(130.642 53.612)" fill="#f66014"/>
                <rect id="Rectangle_11014" data-name="Rectangle 11014" width="83.1" height="2.862" transform="translate(57.698 45.953)" fill="#f66014"/>
                <rect id="Rectangle_11018" data-name="Rectangle 11018" width="56.287" height="2.862" transform="translate(149.466 30.635)" fill="#f66014"/>
                <rect id="Rectangle_11019" data-name="Rectangle 11019" width="86.651" height="2.862" transform="translate(51.008 22.977)" fill="#f66014"/>
                <rect id="Rectangle_11029" data-name="Rectangle 11029" width="39.519" height="2.862" transform="translate(7.638 75.344)" fill="#f66014"/>
                <rect id="Rectangle_11031" data-name="Rectangle 11031" width="124.222" height="2.862" transform="translate(0 98.321)" fill="#f66014"/>
                <rect id="Rectangle_11032" data-name="Rectangle 11032" width="65.27" height="2.862" transform="translate(147.807 67.685)" fill="#f66014"/>
                <rect id="Rectangle_11039" data-name="Rectangle 11039" width="86.651" height="2.862" transform="translate(51.008 83.003)" fill="#f66014"/>
              </g>
              <g id="Group_16426" data-name="Group 16426" transform="translate(0 13.838)">
                <rect id="Rectangle_10993" data-name="Rectangle 10993" width="7.835" height="2.862" fill="#3f3d56"/>
                <rect id="Rectangle_10994" data-name="Rectangle 10994" width="126.536" height="2.862" transform="translate(13.544)" fill="#3f3d56"/>
                <rect id="Rectangle_10996" data-name="Rectangle 10996" width="14.881" height="2.861" transform="translate(168.71 38.294)" fill="#3f3d56"/>
                <rect id="Rectangle_10998" data-name="Rectangle 10998" width="7.834" height="2.862" transform="translate(7.835 7.659)" fill="#3f3d56"/>
                <rect id="Rectangle_11007" data-name="Rectangle 11007" width="74.254" height="2.862" transform="translate(83.862 7.659)" fill="#3f3d56"/>
                <rect id="Rectangle_11008" data-name="Rectangle 11008" width="25.364" height="2.862" transform="translate(192.274 15.318)" fill="#3f3d56"/>
                <rect id="Rectangle_11009" data-name="Rectangle 11009" width="7.834" height="2.862" transform="translate(7.835 15.318)" fill="#3f3d56"/>
                <rect id="Rectangle_11011" data-name="Rectangle 11011" width="46.302" height="2.862" transform="translate(13.544 22.977)" fill="#3f3d56"/>
                <rect id="Rectangle_11012" data-name="Rectangle 11012" width="46.302" height="2.862" transform="translate(21.182 45.953)" fill="#3f3d56"/>
                <rect id="Rectangle_11015" data-name="Rectangle 11015" width="77.085" height="2.862" transform="translate(63.053 53.612)" fill="#3f3d56"/>
                <rect id="Rectangle_11017" data-name="Rectangle 11017" width="86.712" height="2.862" transform="translate(73.064 30.635)" fill="#3f3d56"/>
                <rect id="Rectangle_11020" data-name="Rectangle 11020" width="7.835" height="2.862" transform="translate(0 30.635)" fill="#3f3d56"/>
                <rect id="Rectangle_11021" data-name="Rectangle 11021" width="7.835" height="2.861" transform="translate(0 38.294)" fill="#3f3d56"/>
                <rect id="Rectangle_11023" data-name="Rectangle 11023" width="7.834" height="2.862" transform="translate(7.835 53.612)" fill="#3f3d56"/>
                <rect id="Rectangle_11024" data-name="Rectangle 11024" width="7.835" height="2.862" transform="translate(0 60.026)" fill="#3f3d56"/>
                <rect id="Rectangle_11025" data-name="Rectangle 11025" width="91.863" height="2.862" transform="translate(13.544 60.026)" fill="#3f3d56"/>
                <rect id="Rectangle_11026" data-name="Rectangle 11026" width="7.834" height="2.862" transform="translate(7.835 67.685)" fill="#3f3d56"/>
                <rect id="Rectangle_11033" data-name="Rectangle 11033" width="74.254" height="2.862" transform="translate(83.862 67.685)" fill="#3f3d56"/>
                <rect id="Rectangle_11034" data-name="Rectangle 11034" width="25.364" height="2.862" transform="translate(192.274 75.344)" fill="#3f3d56"/>
                <rect id="Rectangle_11035" data-name="Rectangle 11035" width="7.834" height="2.862" transform="translate(7.835 75.344)" fill="#3f3d56"/>
                <rect id="Rectangle_11037" data-name="Rectangle 11037" width="46.302" height="2.862" transform="translate(13.544 83.003)" fill="#3f3d56"/>
                <rect id="Rectangle_11038" data-name="Rectangle 11038" width="86.712" height="2.862" transform="translate(73.064 90.662)" fill="#3f3d56"/>
                <rect id="Rectangle_11040" data-name="Rectangle 11040" width="7.835" height="2.862" transform="translate(0 90.662)" fill="#3f3d56"/>
              </g>
              <g id="Group_16322" data-name="Group 16322" transform="translate(0.646)">
                <path id="Path_71127" data-name="Path 71127" d="M281.446,95.724a.677.677,0,0,1-.473,1.162.722.722,0,0,1-.495-.193l-3.021-3.066c-.033-.011-.044-.032-.054-.064a.128.128,0,0,0-.033-.022.283.283,0,0,1-.032-.086.056.056,0,0,1-.033-.042c-.011-.022-.011-.054-.02-.065,0-.032-.024-.042-.024-.054v-.075c0-.021-.009-.032-.009-.064,0-.012.009-.044.009-.054v-.075c0-.021.024-.032.024-.042.009-.033.009-.054.02-.087,0-.011.011-.011.011-.021a.977.977,0,0,1,.054-.1.021.021,0,0,1,.022-.021.187.187,0,0,1,.065-.075l3.021-3.065a.7.7,0,0,1,.967,0,.679.679,0,0,1,0,.967L278.9,93.154Z" transform="translate(-277.253 -89.423)" fill="#f66014"/>
                <path id="Path_71128" data-name="Path 71128" d="M283.144,96.066l2.634-6.269a.6.6,0,0,1,.785-.311.579.579,0,0,1,.3.762l-2.634,6.281a.6.6,0,0,1-.549.355.516.516,0,0,1-.214-.042A.582.582,0,0,1,283.144,96.066Z" transform="translate(-276.212 -89.42)" fill="#f66014"/>
                <path id="Path_71129" data-name="Path 71129" d="M291.358,93.541a.01.01,0,0,1-.011.011.511.511,0,0,1-.077.075l-3.022,3.066a.7.7,0,0,1-.966,0,.681.681,0,0,1,0-.968l2.547-2.57-2.547-2.571a.679.679,0,0,1,0-.967.7.7,0,0,1,.966,0l3.022,3.065a.461.461,0,0,1,.077.075c.011,0,.011.021.011.021.02.044.041.065.053.1,0,.011.011.011.011.021a.51.51,0,0,0,.032.1c0,.011.011.011.011.032V93.1c0,.011.012.042.012.054s-.012.042-.012.053v.086c0,.012-.011.012-.011.022a.869.869,0,0,0-.032.1c0,.011-.011.011-.011.032S291.378,93.5,291.358,93.541Z" transform="translate(-275.502 -89.423)" fill="#f66014"/>
              </g>
            </g>
          </g>
          <g id="Group_16326" data-name="Group 16326" transform="translate(448.127 125.124)">
            <rect id="Rectangle_11041" data-name="Rectangle 11041" width="82.752" height="30.637" fill="#ff725e"/>
            <g id="Group_16325" data-name="Group 16325" transform="translate(11.94 6.82)">
              <path id="Path_71130" data-name="Path 71130" d="M486.668,190.179V176.591a1.249,1.249,0,0,1,1.268-1.267,1.267,1.267,0,0,1,1.289,1.267v5.528h5.965v-5.528a1.248,1.248,0,0,1,1.267-1.267,1.268,1.268,0,0,1,1.29,1.267v13.588a1.268,1.268,0,0,1-1.29,1.267,1.249,1.249,0,0,1-1.267-1.267v-5.527h-5.965v5.527a1.267,1.267,0,0,1-1.289,1.267A1.249,1.249,0,0,1,486.668,190.179Z" transform="translate(-486.668 -175.324)" fill="#fff"/>
              <path id="Path_71131" data-name="Path 71131" d="M510.573,177.881h-3.662v12.3a1.25,1.25,0,0,1-1.268,1.267,1.262,1.262,0,0,1-1.265-1.267v-12.3H500.74a1.283,1.283,0,0,1-1.268-1.29,1.249,1.249,0,0,1,1.268-1.267h9.833a1.263,1.263,0,0,1,1.267,1.267A1.3,1.3,0,0,1,510.573,177.881Z" transform="translate(-484.386 -175.324)" fill="#fff"/>
              <path id="Path_71132" data-name="Path 71132" d="M527.059,176.591v13.588a1.3,1.3,0,0,1-1.29,1.267,1.262,1.262,0,0,1-1.267-1.267v-9.7l-3.317,4.606a1.257,1.257,0,0,1-1.036.529H520.1a1.3,1.3,0,0,1-1.058-.529l-3.294-4.606v9.7a1.278,1.278,0,0,1-2.557,0V176.591a1.278,1.278,0,0,1,1.267-1.267h.07a1.248,1.248,0,0,1,1.013.53l4.584,6.356,4.582-6.356a1.258,1.258,0,0,1,1.036-.53h.024A1.315,1.315,0,0,1,527.059,176.591Z" transform="translate(-481.941 -175.324)" fill="#fff"/>
              <path id="Path_71133" data-name="Path 71133" d="M529.692,190.179V176.591a1.264,1.264,0,0,1,1.268-1.267,1.283,1.283,0,0,1,1.289,1.267v12.3h6.242a1.278,1.278,0,0,1,0,2.557H530.96A1.264,1.264,0,0,1,529.692,190.179Z" transform="translate(-479 -175.324)" fill="#fff"/>
            </g>
          </g>
          <g id="Group_16328" data-name="Group 16328" transform="translate(89.767 135.644)">
            <rect id="Rectangle_11042" data-name="Rectangle 11042" width="68.194" height="30.637" fill="#ff725e"/>
            <g id="Group_16327" data-name="Group 16327" transform="translate(14.899 6.821)">
              <path id="Path_71134" data-name="Path 71134" d="M190.414,194.111h-2.831v5a1.279,1.279,0,0,1-2.558,0V185.519a1.263,1.263,0,0,1,1.269-1.265h4.12a4.929,4.929,0,1,1,0,9.857Zm-2.831-2.557h2.831a2.372,2.372,0,1,0,0-4.745h-2.831Z" transform="translate(-185.025 -184.254)" fill="#fff"/>
              <path id="Path_71135" data-name="Path 71135" d="M196.423,199.108V185.519a1.247,1.247,0,0,1,1.265-1.265,1.267,1.267,0,0,1,1.29,1.265v5.528h5.964v-5.528a1.249,1.249,0,0,1,1.269-1.265,1.266,1.266,0,0,1,1.289,1.265v13.588a1.267,1.267,0,0,1-1.289,1.267,1.25,1.25,0,0,1-1.269-1.267v-5.527h-5.964v5.527a1.268,1.268,0,0,1-1.29,1.267A1.248,1.248,0,0,1,196.423,199.108Z" transform="translate(-182.994 -184.254)" fill="#fff"/>
              <path id="Path_71136" data-name="Path 71136" d="M215.671,194.111h-2.835v5a1.277,1.277,0,0,1-2.554,0V185.519a1.262,1.262,0,0,1,1.265-1.265h4.124a4.929,4.929,0,1,1,0,9.857Zm-2.835-2.557h2.835a2.372,2.372,0,1,0,0-4.745h-2.835Z" transform="translate(-180.524 -184.254)" fill="#fff"/>
            </g>
          </g>
          <g id="Group_16330" data-name="Group 16330" transform="translate(575.372 235.93)">
            <path id="Path_71137" data-name="Path 71137" d="M604.93,296.36l5.175,12.495-5.167,2.139-5.2-12.579-8.54,6.626v-35.2l24.639,24.891Z" transform="translate(-583.345 -262.465)" fill="#f66014"/>
            <g id="Group_16329" data-name="Group 16329">
              <path id="Path_71138" data-name="Path 71138" d="M591.241,267.12a5.172,5.172,0,0,1,0-3.539,5.152,5.152,0,0,1,0,3.539Z" transform="translate(-583.392 -263.581)" fill="#f66014"/>
              <path id="Path_71139" data-name="Path 71139" d="M588.986,268.036A4.662,4.662,0,0,1,587.514,267a4.6,4.6,0,0,1-1.031-1.472,5.155,5.155,0,0,1,2.5,2.5Z" transform="translate(-584.184 -263.233)" fill="#f66014"/>
              <path id="Path_71140" data-name="Path 71140" d="M588.072,270.291a4.682,4.682,0,0,1-1.77.312,4.612,4.612,0,0,1-1.77-.312,4.613,4.613,0,0,1,1.77-.313A4.659,4.659,0,0,1,588.072,270.291Z" transform="translate(-584.532 -262.441)" fill="#f66014"/>
              <path id="Path_71141" data-name="Path 71141" d="M588.986,272.831a5.155,5.155,0,0,1-2.5,2.5,4.616,4.616,0,0,1,1.031-1.473A4.677,4.677,0,0,1,588.986,272.831Z" transform="translate(-584.184 -261.933)" fill="#f66014"/>
              <path id="Path_71142" data-name="Path 71142" d="M594.853,270.291a5.153,5.153,0,0,1,3.539,0,4.613,4.613,0,0,1-1.77.312A4.681,4.681,0,0,1,594.853,270.291Z" transform="translate(-582.693 -262.441)" fill="#f66014"/>
              <path id="Path_71143" data-name="Path 71143" d="M593.781,268.036a4.664,4.664,0,0,1,1.031-1.473,4.6,4.6,0,0,1,1.473-1.03A4.6,4.6,0,0,1,595.254,267,4.654,4.654,0,0,1,593.781,268.036Z" transform="translate(-582.884 -263.233)" fill="#f66014"/>
            </g>
          </g>
        </g>
        <g id="Character_2" data-name="Character 2" transform="translate(407.272 203.823)">
          <g id="Group_16366" data-name="Group 16366">
            <g id="Group_16331" data-name="Group 16331" transform="translate(9.038 1.136)">
              <path id="Path_71144" data-name="Path 71144" d="M452.5,229.615c-16.221,13.907-11.7,34.187-18.48,45.187-4.143,6.726-17.636,13.831-20.317,21.584-4.409,12.735,6.389,17.309,3.974,24.231-3.42,9.807-16.552,9.045-18.916,25.089s15.287,33.11,57.184,37.732,64.913-10.716,66.415-24.328-12.435-18.142-13.385-28.309c-.607-6.5,8-11.017,8.435-22.973s-11.214-15.842-12.883-25.994c-1.677-10.2,3.7-34.826-11.214-47.422S460.5,222.753,452.5,229.615Z" transform="translate(-395.185 -224.644)" fill="#440c01"/>
              <path id="Path_71145" data-name="Path 71145" d="M454.887,229.176A34.549,34.549,0,0,0,444.118,241.6a75.6,75.6,0,0,0-5.989,16.468,45.7,45.7,0,0,1-3.253,9.862,25.267,25.267,0,0,1-5.625,6.941c-4.531,4.1-9.942,7.214-14.011,11.82-3.855,4.363-6.855,10.2-5.316,16.144.838,3.233,2.97,5.871,4.293,8.89,1.255,2.858,1.761,6.412-.692,8.787-2.1,2.029-5.132,2.96-7.511,4.622a26.449,26.449,0,0,0-6.114,5.928,20.5,20.5,0,0,0-3.858,16.113c2.466,13.033,14.694,20.446,25.982,25.113,1.574.652,3.156,1.284,4.739,1.915.244.1.453-.254.2-.366-11.33-5.07-24.477-11.022-28.83-23.688a19.119,19.119,0,0,1,1.953-16.817,24.218,24.218,0,0,1,5.985-6.3c2.279-1.684,4.91-2.715,7.227-4.313a7.7,7.7,0,0,0,3.562-6.884c-.144-3.059-1.639-5.732-3.118-8.329-1.566-2.75-2.895-5.528-2.673-8.775a16.877,16.877,0,0,1,3.352-8.372c3.524-4.994,8.747-8.272,13.427-12.053,4.711-3.8,8.477-8.192,10.2-14.1.868-2.988,1.408-6.063,2.159-9.082a79.879,79.879,0,0,1,2.5-8.281,39.521,39.521,0,0,1,8.857-14.6,22.684,22.684,0,0,1,3.462-2.842C455.165,229.305,455.024,229.079,454.887,229.176Z" transform="translate(-395.694 -223.841)" fill="#440c01"/>
              <path id="Path_71146" data-name="Path 71146" d="M509.332,346.718a15.669,15.669,0,0,0-2.9-6.1c-1.457-1.846-3.219-3.407-4.833-5.109a11.91,11.91,0,0,1-3.425-5.658c-.536-2.678.588-5.247,1.844-7.549a56.918,56.918,0,0,0,3.751-7.3,26.63,26.63,0,0,0,1.6-7.81,26.912,26.912,0,0,0-4.216-15.58c-1.429-2.34-3.037-4.563-4.483-6.893a33.541,33.541,0,0,1-3.714-8.138c-1.886-6.308-2.294-12.963-3.836-19.357a99.922,99.922,0,0,0-6.8-19c-.072-.152-.295-.014-.223.137a87.1,87.1,0,0,1,5.95,17.165c1.33,5.607,1.844,11.319,2.834,16.983A42.857,42.857,0,0,0,493,280.676a43.919,43.919,0,0,0,3.637,7c2.83,4.615,5.756,9.171,6.537,14.644a25.619,25.619,0,0,1-2.7,15.683c-2.2,4.165-5.288,8.757-3.361,13.634,1.629,4.127,5.567,6.6,8.182,10.024a16.556,16.556,0,0,1,2.834,13.242c-2.255,11.732-14.011,17.551-25.018,18.132a.268.268,0,0,0,.013.535c9.569-.113,19.98-4.319,24.467-13.277A20.273,20.273,0,0,0,509.332,346.718Z" transform="translate(-380.299 -222.236)" fill="#440c01"/>
            </g>
            <g id="Group_16341" data-name="Group 16341" transform="translate(78.803 88.105)">
              <g id="Group_16334" data-name="Group 16334" transform="translate(0.604 2.466)">
                <path id="Path_71147" data-name="Path 71147" d="M456.859,321.908c10.612,42.147,21.1,74.39,33.113,82.282,9.691,6.371,23.3,10.838,37.3,13.969a348.86,348.86,0,0,0,45.361,6.481c4.7.392,8.606.636,11.379.832,6.863.439,18.1-44.881,13.24-50.408-1.12-1.262-5.642-2.241-11.985-3.046-21.36-2.679-63.42-3.306-65.927-5.7-2.6-2.5-24.045-32.525-42.43-56.115C464.217,293.9,450.974,298.54,456.859,321.908Z" transform="translate(-455.419 -300.552)" fill="#ffb9b9"/>
                <g id="Group_16333" data-name="Group 16333" transform="translate(114.823 70.697)">
                  <path id="Path_71148" data-name="Path 71148" d="M552.874,410.207c.854.394,12.969,5.654,20.408,7.517,5.55,1.389,21.636,4.959,23.772-1,1.462-4.062-7.749-7.276-14.213-9.693-3.4-1.274-7.667-4.632-6.757-6.823,1.588-3.833,10.36-.366,16.159,2.723,11.212,5.975,26.259,16.916,32.759,11.1,2.454-2.2-.629-5.924-5.075-9.525,7.15,4.124,14.734,7.442,17.557,5.108,1.622-1.33,1.635-3.074.633-5.029,2.183.622,4.085.415,5.362-1.039,2.184-2.461.947-5.928-1.671-9.433a2.711,2.711,0,0,0,2.013-1.432c4.538-7.51-20.309-27.675-28.706-29.338-24.707-4.919-50.685-1.836-50.685-1.836C555.1,369.552,552.854,410.191,552.874,410.207Z" transform="translate(-552.874 -360.555)" fill="#ffb9b9"/>
                  <g id="Group_16332" data-name="Group 16332" transform="translate(35.115 5.587)">
                    <path id="Path_71149" data-name="Path 71149" d="M582.736,382.189a39.964,39.964,0,0,1,16.568,5.686c5.862,3.714,10.6,8.908,16.044,13.152.147.116-.044.345-.186.224-2.566-2.2-5.374-4.158-8.031-6.259-2.592-2.05-5.141-4.2-7.87-6.063a39.629,39.629,0,0,0-16.542-6.64C582.654,382.28,582.671,382.182,582.736,382.189Z" transform="translate(-582.678 -362.286)" fill="#ffb9b9"/>
                    <path id="Path_71150" data-name="Path 71150" d="M586.285,373.226c6.5,1.522,13.163,3.059,19.25,5.883,6.662,3.092,11.979,8.335,17.2,13.376q4.706,4.542,9.207,9.289c.126.133-.049.357-.185.224q-7.956-7.819-16.376-15.15a52.4,52.4,0,0,0-17.737-10.286c-3.736-1.267-7.561-2.247-11.38-3.222C586.193,373.323,586.212,373.209,586.285,373.226Z" transform="translate(-582.046 -363.884)" fill="#ffb9b9"/>
                    <path id="Path_71151" data-name="Path 71151" d="M591.831,365.3c6.3,1.053,11.8,1.951,17.46,5.1,7.495,4.166,14.848,11.38,17.429,13.94,2.851,2.827,5.6,5.745,8.315,8.707.111.12-.1.315-.211.2a207.707,207.707,0,0,0-19.776-18.19,41.32,41.32,0,0,0-10.923-6.544,74.57,74.57,0,0,0-12.3-3.164A.022.022,0,0,1,591.831,365.3Z" transform="translate(-581.051 -365.297)" fill="#ffb9b9"/>
                  </g>
                </g>
              </g>
              <g id="Group_16340" data-name="Group 16340">
                <g id="Group_16335" data-name="Group 16335">
                  <path id="Path_71152" data-name="Path 71152" d="M464.728,364.763,502.6,342.431s-16.165-26.113-29.979-38.441-19.383-2.656-17.286,15.257S464.728,364.763,464.728,364.763Z" transform="translate(-454.906 -298.459)" fill="#f16d2d"/>
                </g>
                <g id="Group_16339" data-name="Group 16339" transform="translate(9.706 38.29)">
                  <g id="Group_16338" data-name="Group 16338">
                    <g id="Group_16337" data-name="Group 16337">
                      <g id="Group_16336" data-name="Group 16336">
                        <path id="Path_71153" data-name="Path 71153" d="M495.165,330.963c-6.069,3.1-22.273,12.017-32.008,19.253-.058.044.086.3.151.264,9.036-4.728,26.312-15.5,32.072-19.139C495.489,331.273,495.279,330.905,495.165,330.963Z" transform="translate(-463.144 -330.957)" fill="#e15e1d"/>
                      </g>
                    </g>
                  </g>
                </g>
                <path id="Path_71154" data-name="Path 71154" d="M499.482,344.263l-34.749,20.486s-7.3-27.6-9.4-45.518c-1.344-11.562.489-19.69,5.684-20.68Z" transform="translate(-454.906 -298.442)" fill="#e15e1d"/>
              </g>
            </g>
            <g id="Group_16343" data-name="Group 16343" transform="translate(0 85.005)">
              <path id="Path_71155" data-name="Path 71155" d="M513.232,440.53H388.023S415.218,335.5,440.389,305.937c.562-.683,1.144-1.326,1.726-1.928.121-.14.221-.24.342-.362a26.879,26.879,0,0,1,6.724-5.2c.442-.24.884-.462,1.345-.662,9.7-4.456,19.932-.764,27.319,5.56,2.348,2.008,28.885,36.533,31.233,49.7,2.028,11.622-5.82,24.108-5.82,24.108Z" transform="translate(-388.023 -295.828)" fill="#f16d2d"/>
              <g id="Group_16342" data-name="Group 16342" transform="translate(65.054 76.828)">
                <path id="Path_71156" data-name="Path 71156" d="M474.626,361.036a108.552,108.552,0,0,0-15.815,2.744c-2.573.683-5.1,1.481-7.62,2.336-1.257.427-2.52.808-3.792,1.185a17.074,17.074,0,0,1-4.073.806.1.1,0,0,0,0,.191,29.167,29.167,0,0,0,3.929-.107,28.143,28.143,0,0,0,3.74-.74c2.617-.668,5.2-1.457,7.812-2.153,5.265-1.4,10.53-2.8,15.885-3.823C474.943,361.429,474.878,361.008,474.626,361.036Z" transform="translate(-443.237 -361.035)" fill="#e15e1d"/>
                <path id="Path_71157" data-name="Path 71157" d="M485.114,365.031a117.1,117.1,0,0,0-13.237-.52c-2.211.046-4.4.219-6.6.451-1.05.111-2.1.242-3.144.384-1.151.157-2.283.468-3.435.608-.12.014-.119.2,0,.191,1.091-.1,2.2-.019,3.3-.054s2.2-.08,3.3-.117c2.2-.073,4.406-.121,6.609-.216,4.41-.187,8.8-.33,13.216-.365C485.362,365.391,485.34,365.052,485.114,365.031Z" transform="translate(-440.497 -360.419)" fill="#e15e1d"/>
              </g>
            </g>
            <g id="Group_16353" data-name="Group 16353" transform="translate(2.484 89.425)">
              <g id="Group_16346" data-name="Group 16346" transform="translate(0 1.343)">
                <path id="Path_71158" data-name="Path 71158" d="M432.867,311.157c-23.573,33.172-54.149,90.695-38.421,101.276,25.858,17.4,97,22.079,113.266,22.486,7.019.176,16.6-46.493,11.415-51.917s-79.666-2.53-80.618-7.027c-.54-2.549,8.575-26.06,13.2-54.269C457.037,289.181,439.511,301.807,432.867,311.157Z" transform="translate(-390.131 -300.719)" fill="#ffb9b9"/>
                <g id="Group_16345" data-name="Group 16345" transform="translate(106.359 75.356)">
                  <path id="Path_71159" data-name="Path 71159" d="M490.545,368.831s21.245-2.182,35.2-2.956c7.788-.432,21.207.019,27.073,2.319,8.775,3.44,43.28,23.432,38.613,31.9-4.225,7.668-31.687-13.273-31.687-13.273s29.579,18.679,22.8,26.976-34.667-19.489-34.667-19.489,29.961,19.875,21.612,27.324c-6.311,5.629-32.982-18.113-32.982-18.113s25.634,17.261,19.395,23.329c-6.895,6.706-32.889-13.664-32.889-13.664-18.457,12.755-32.464,11.279-42.3,9.043C478.327,421.69,490.545,368.831,490.545,368.831Z" transform="translate(-480.402 -364.488)" fill="#ffb9b9"/>
                  <g id="Group_16344" data-name="Group 16344" transform="translate(6.931)">
                    <path id="Path_71160" data-name="Path 71160" d="M539.434,377.595c3.554,2.069,7.165,4.138,10.523,6.516s6.636,4.874,9.757,7.554c7.656,6.571,11.423,11.883,11.154,11.581-6.347-7.161-18.237-15.858-21.6-18.235s-6.583-4.914-9.934-7.29C539.254,377.66,539.35,377.545,539.434,377.595Z" transform="translate(-476.834 -362.376)" fill="#263238"/>
                    <path id="Path_71257" data-name="Path 71257" d="M539.434,377.595c3.554,2.069,7.165,4.138,10.523,6.516s6.636,4.874,9.757,7.554c7.656,6.571,11.423,11.883,11.154,11.581-6.347-7.161-18.237-15.858-21.6-18.235s-6.583-4.914-9.934-7.29C539.254,377.66,539.35,377.545,539.434,377.595Z" transform="translate(-476.834 -362.376)" fill="#f99f9f"/>
                    <path id="Path_71161" data-name="Path 71161" d="M531.958,387.754c4.423,2.837,8.919,5.492,13.219,8.527,4.279,3.019,10.134,7.453,14.193,10.759.313.253.078.811-.246.568-4.189-3.141-10.366-7.39-14.591-10.481-4.21-3.081-8.332-6.349-12.651-9.274C531.814,387.808,531.89,387.71,531.958,387.754Z" transform="translate(-478.162 -360.565)" fill="#263238"/>
                    <path id="Path_71258" data-name="Path 71258" d="M531.958,387.754c4.423,2.837,8.919,5.492,13.219,8.527,4.279,3.019,10.134,7.453,14.193,10.759.313.253.078.811-.246.568-4.189-3.141-10.366-7.39-14.591-10.481-4.21-3.081-8.332-6.349-12.651-9.274C531.814,387.808,531.89,387.71,531.958,387.754Z" transform="translate(-478.162 -360.565)" fill="#f99f9f"/>
                    <path id="Path_71162" data-name="Path 71162" d="M523.99,395.32c6.982,3.991,13.221,9.264,19.216,14.584.3.265-.024.34-.344.087-6.3-4.969-11.2-8.912-19.012-14.428C523.727,395.476,523.843,395.236,523.99,395.32Z" transform="translate(-479.598 -359.218)" fill="#263238"/>
                    <path id="Path_71259" data-name="Path 71259" d="M523.99,395.32c6.982,3.991,13.221,9.264,19.216,14.584.3.265-.024.34-.344.087-6.3-4.969-11.2-8.912-19.012-14.428C523.727,395.476,523.843,395.236,523.99,395.32Z" transform="translate(-479.598 -359.218)" fill="#f99f9f"/>
                    <path id="Path_71163" data-name="Path 71163" d="M486.442,368.637c9.694-.99,38.177-3.773,47.921-3.948,8.592-.154,15.858,1.018,23.5,5.088,16.381,8.725,27.452,19.754,30.257,23.081,1.7,2.016,4.206,5.244,2.444,7.83-2.143,3.146-11.357,1.151-21.6-6.486-.369-.275-.173-.488.2-.238,14.261,9.472,19.418,7.73,20.625,5.763.78-1.272-.277-3.245-1.229-4.74a30.642,30.642,0,0,0-5.284-5.792,131.811,131.811,0,0,0-21.7-15.656,51.6,51.6,0,0,0-27.752-7.51c-9.985.13-37.393,3-47.38,2.981C486.229,369.01,486.233,368.658,486.442,368.637Z" transform="translate(-486.284 -364.676)" fill="#f99f9f"/>
                    <path id="Path_71164" data-name="Path 71164" d="M570.925,404.895c-.8-2.6-2.937-4.83-4.653-6.873a49.506,49.506,0,0,0-7-7.032c-.115-.091-.279.053-.169.165a77.542,77.542,0,0,1,6.249,6.814,42.809,42.809,0,0,1,2.875,4.132c.839,1.376,1.817,2.973,1.613,4.653-.388,3.219-4.395,3.523-6.844,2.9a27.061,27.061,0,0,1-4.619-1.725,44.557,44.557,0,0,1-5.8-3.568c-.159-.119-.53-.032-.369.1,3.849,3.031,11.2,9.388,16.416,6.3A4.956,4.956,0,0,0,570.925,404.895Z" transform="translate(-474.542 -359.991)" fill="#263238"/>
                    <path id="Path_71256" data-name="Path 71256" d="M570.925,404.895c-.8-2.6-2.937-4.83-4.653-6.873a49.506,49.506,0,0,0-7-7.032c-.115-.091-.279.053-.169.165a77.542,77.542,0,0,1,6.249,6.814,42.809,42.809,0,0,1,2.875,4.132c.839,1.376,1.817,2.973,1.613,4.653-.388,3.219-4.395,3.523-6.844,2.9a27.061,27.061,0,0,1-4.619-1.725,44.557,44.557,0,0,1-5.8-3.568c-.159-.119-.53-.032-.369.1,3.849,3.031,11.2,9.388,16.416,6.3A4.956,4.956,0,0,0,570.925,404.895Z" transform="translate(-474.542 -359.991)" fill="#f99f9f"/>
                  </g>
                </g>
              </g>
              <g id="Group_16352" data-name="Group 16352" transform="translate(13.346)">
                <g id="Group_16347" data-name="Group 16347">
                  <path id="Path_71165" data-name="Path 71165" d="M401.458,345.915l41.364,14.9s9.785-29.111,10.459-47.613-10.326-16.615-22.777-3.57S401.458,345.915,401.458,345.915Z" transform="translate(-401.458 -299.579)" fill="#f16d2d"/>
                </g>
                <g id="Group_16351" data-name="Group 16351" transform="translate(6.547 31.832)">
                  <g id="Group_16350" data-name="Group 16350" transform="translate(0 8.836)">
                    <g id="Group_16349" data-name="Group 16349">
                      <g id="Group_16348" data-name="Group 16348">
                        <path id="Path_71166" data-name="Path 71166" d="M442.393,346.449c-6.261-2.692-23.466-9.478-35.25-12.352-.071-.018-.174.256-.107.284,9.407,3.939,28.724,10.365,35.2,12.476C442.362,346.9,442.511,346.5,442.393,346.449Z" transform="translate(-407.015 -334.095)" fill="#e15e1d"/>
                      </g>
                    </g>
                  </g>
                  <path id="Path_71167" data-name="Path 71167" d="M445.654,332.115c.017-.061-.077-.091-.1-.035-.745,1.428-1.406,2.872-2.035,4.354q1.082-4.851,1.933-9.732a.091.091,0,0,0-.178-.035c-2.776,9.539-5.784,19.025-8.357,28.621-1.057-.051-2.12-.121-3.167-.264a.14.14,0,0,0-.054.275c1.141.277,2.27.64,3.38,1.02a.546.546,0,0,0,.718-.238,141.322,141.322,0,0,0,5.037-16.678c.435-.862.86-1.731,1.23-2.617A34.369,34.369,0,0,0,445.654,332.115Z" transform="translate(-402.28 -326.596)" fill="#e15e1d"/>
                </g>
              </g>
            </g>
            <g id="Group_16365" data-name="Group 16365" transform="translate(61.141)">
              <path id="Path_71168" data-name="Path 71168" d="M451.467,294.242c-9.389,1.732-9.48,12.1-6.789,19.66s8.594,16.606,13.518,16.838,7.045-11.968,7.045-11.968,6.225,8.325,10.14,6.027-2.035-17.064-6.817-21.941C461.623,295.78,456.455,293.322,451.467,294.242Z" transform="translate(-439.338 -211.138)" fill="#e15e1d"/>
              <g id="Group_16364" data-name="Group 16364">
                <g id="Group_16354" data-name="Group 16354" transform="translate(6.542 51.81)">
                  <path id="Path_71169" data-name="Path 71169" d="M445.47,304.267c.2,2.24,8.519,17.783,18.486,18.737,3.246.306,5.7-17.341,5.7-17.341l.48-1.261,6.7-17.66-19.461-16.824-2.836-2.265s-1.513,4.952-3.336,11.138c-.086.286-.172.574-.26.881-.112.346-.223.674-.312,1-.284.92-.57,1.862-.835,2.8-.205.718-.408,1.414-.6,2.175-.207.759-.393,1.5-.6,2.257C446.71,295.435,445.4,303.319,445.47,304.267Z" transform="translate(-445.468 -267.654)" fill="#ffb9b9"/>
                  <path id="Path_71170" data-name="Path 71170" d="M450.338,278.792A37.886,37.886,0,0,0,469.273,304.4l6.7-17.66L456.51,269.919l-2.836-2.265S452.161,272.606,450.338,278.792Z" transform="translate(-444.6 -267.654)" fill="#f99f9f"/>
                </g>
                <g id="Group_16363" data-name="Group 16363">
                  <path id="Path_71171" data-name="Path 71171" d="M505.68,268.6c-1.707,33.1-21.727,35.817-28.865,35.441-6.479-.342-28.5-2.328-30.22-35.429s14.21-42.773,29.07-42.775S507.388,235.5,505.68,268.6Z" transform="translate(-438.748 -223.296)" fill="#ffb9b9"/>
                  <path id="Path_71182" data-name="Path 71182" d="M449.551,270.343c8.1.78,13.716-23.692,14.372-26.7-.315,1.918-1.944,12.085-1.218,12.594a7.858,7.858,0,0,0,2.593-.144h.021a24.279,24.279,0,0,1,.774-3.61c.14-.557.052,1.256.07,3.5.473-.066.987-.152,1.544-.218a29.577,29.577,0,0,1,1.793-7.656c.363-.93.047,3.439.469,7.35,5.762-.767,14.055-1.677,21.6-.932,2.021.19,3.753.443,5.278.72.409-3.01.487-6.266.616-5.546a29.452,29.452,0,0,1,.518,5.764c.826.158,1.588.316,2.269.476.771-4.229-.356-11.285.189-10.156a30.2,30.2,0,0,1,2.723,11.019c2.829.946,3.556,1.62,3.735.877.319-1.341.231-13.465-7.888-23.418-8.824-10.818-28.611-15.86-41.874-2.738,0,0-10.137,4.858-12.9,14.478C441.464,255.6,444.872,269.886,449.551,270.343Z" transform="translate(-439.324 -223.681)" fill="#440c01"/>
                  <g id="Group_16362" data-name="Group 16362" transform="translate(0 36.108)">
                    <g id="Group_16361" data-name="Group 16361">
                      <path id="Path_71183" data-name="Path 71183" d="M453.133,263.88s-5.74-11.244-10.745-9.335-1.682,17.513,3.495,20.3a5.606,5.606,0,0,0,7.854-1.951Z" transform="translate(-439.915 -254.327)" fill="#ffb9b9"/>
                    </g>
                  </g>
                </g>
              </g>
            </g>
          </g>
        </g>
        <g id="Character_1" data-name="Character 1" transform="translate(88.442 192.91)">
          <g id="Group_16398" data-name="Group 16398" transform="translate(0)">
            <g id="Group_16397" data-name="Group 16397">
              <g id="Group_16371" data-name="Group 16371" transform="translate(0 90.876)">
                <g id="Group_16369" data-name="Group 16369" transform="translate(0 0.994)">
                  <path id="Path_71185" data-name="Path 71185" d="M307.765,309.391c-8.4,36.566-25.393,82.864-38.525,92.2-10.592,7.536-66.159,20.807-69.258,21.142-7.671.775-22.821-53.416-14.869-55.618,10.021-2.775,57.641-4.256,60.351-7.038,2.811-2.909,20.142-26.377,39.763-53.564C298.767,287.729,312.975,286.7,307.765,309.391Z" transform="translate(-105.755 -292.392)" fill="#ffb9b9"/>
                  <g id="Group_16368" data-name="Group 16368" transform="translate(0 74.725)">
                    <path id="Path_71186" data-name="Path 71186" d="M217.8,408.456c-.913.463-13.889,6.988-21.911,9.314-5.987,1.736-23.351,6.268-25.915-.133-1.756-4.363,8.143-8.23,15.08-11.121,3.655-1.522,8.159-5.348,7.082-7.7-1.884-4.107-11.293.019-17.48,3.614-11.965,6.953-27.9,19.467-35.213,13.4-2.759-2.3.448-6.473,5.142-10.57-7.616,4.774-15.739,8.692-18.9,6.263-1.819-1.382-1.9-3.28-.891-5.447-2.352.763-4.43.615-5.878-.917-2.477-2.591-1.269-6.415,1.44-10.334a2.958,2.958,0,0,1-2.249-1.477c-5.242-7.992,20.995-30.939,30.068-33.087,26.7-6.346,55.095-4.033,55.095-4.033C213.754,364.6,217.824,408.437,217.8,408.456Z" transform="translate(-117.419 -355.814)" fill="#ffb9b9"/>
                    <g id="Group_16367" data-name="Group 16367" transform="translate(2.715 6.832)">
                      <path id="Path_71187" data-name="Path 71187" d="M174.565,379.635a45.3,45.3,0,0,0-17.806,6.854c-6.768,4.467-11.257,9.7-16.936,14.961-.148.138.061.375.211.236,2.706-2.5,13.917-11.912,16.814-14.05a43.156,43.156,0,0,1,17.74-7.892C174.658,379.731,174.634,379.625,174.565,379.635Z" transform="translate(-116.151 -358.401)" fill="#263238"/>
                      <path id="Path_71188" data-name="Path 71188" d="M172.431,370.021c-7.016,1.918-14.206,3.858-20.718,7.177-7.126,3.631-12.7,9.553-18.187,15.25q-4.94,5.134-9.648,10.481c-.131.15.07.386.211.236q8.345-8.83,17.216-17.147a57.073,57.073,0,0,1,18.9-11.908c4.014-1.529,8.139-2.749,12.257-3.965C172.534,370.123,172.51,370,172.431,370.021Z" transform="translate(-118.991 -360.115)" fill="#263238"/>
                      <path id="Path_71189" data-name="Path 71189" d="M165.668,361.613c-6.816,1.4-12.764,2.6-18.8,6.25-7.992,4.835-15.706,12.984-18.413,15.873-2.989,3.191-5.87,6.478-8.7,9.811-.115.135.118.339.237.2a226.616,226.616,0,0,1,20.8-20.6,45.044,45.044,0,0,1,11.628-7.561,81.1,81.1,0,0,1,13.263-3.936A.024.024,0,0,0,165.668,361.613Z" transform="translate(-119.724 -361.613)" fill="#263238"/>
                    </g>
                  </g>
                </g>
                <g id="Group_16370" data-name="Group 16370" transform="translate(140.119)">
                  <path id="Path_71190" data-name="Path 71190" d="M236.343,354.9l51.218-2.173s9.3-25.379,12.722-47.91-15.773-14.443-34.787,9.823S236.343,354.9,236.343,354.9Z" transform="translate(-236.343 -291.549)" fill="#f16d2d"/>
                  <path id="Path_71191" data-name="Path 71191" d="M287.758,334.048c-11.076-.283-22.189.209-33.263.919q-4.7.3-9.383.822c-.087.009-.1.14,0,.14,5.535.024,11.068-.178,16.6-.348s11.106-.385,16.652-.71c3.132-.184,6.26-.365,9.388-.613C287.886,334.247,287.9,334.052,287.758,334.048Z" transform="translate(-234.793 -283.989)" fill="#e15e1d"/>
                </g>
              </g>
              <g id="Group_16372" data-name="Group 16372" transform="translate(153.072 87.764)">
                <path id="Path_71193" data-name="Path 71193" d="M247.337,441.9H378.064c1.441-2.642-19.985-117.153-64.073-149.4-9.782-7.153-27.134-2.553-31.96,4.4C257.77,331.866,247.337,441.9,247.337,441.9Z" transform="translate(-247.337 -288.907)" fill="#f16d2d"/>
                <path id="Path_71195" data-name="Path 71195" d="M267.409,321.571q-1.8,6.52-3.486,13.059c.146-1.9.353-3.8.6-5.694.014-.112-.157-.159-.18-.044a40.966,40.966,0,0,0-.781,7.133c-1.341,5.26-2.613,10.536-3.782,15.842-2.24,10.17-4.231,20.414-5.88,30.69-.93,5.794-1.651,11.629-2.643,17.412-.018.108.153.151.172.041.908-5.13,2.116-10.232,3.234-15.324q1.667-7.589,3.238-15.2c2.113-10.2,4.349-20.369,6.45-30.568,1.183-5.746,2.286-11.508,3.472-17.253A.212.212,0,0,0,267.409,321.571Z" transform="translate(-246.639 -283.112)" fill="#e15e1d"/>
              </g>
              <g id="Group_16382" data-name="Group 16382" transform="translate(82.303 92.799)">
                <g id="Group_16379" data-name="Group 16379" transform="translate(0 0.359)">
                  <path id="Path_71196" data-name="Path 71196" d="M329.938,303c21.107,22.608,71.316,107.444,55.038,123.087-16.395,15.754-106.622-5.414-132-17.5-7.549-3.6,21.137-50.661,30.009-51.759,7.387-.915,45.152,16.36,46.244,14.186,1.234-2.454-7.343-18.213-16.428-51.022C302.326,282.156,320.613,293.012,329.938,303Z" transform="translate(-175.787 -293.486)" fill="#ffb9b9"/>
                  <g id="Group_16378" data-name="Group 16378" transform="translate(0.536 33.762)">
                    <path id="Path_71197" data-name="Path 71197" d="M254.276,336.525c-18.346-2.556-23.449-.395-37.788-10.775-9.409-6.81-17.8-3.726-12.428,7.1,8.78,17.7,31.759,25.969,40.551,26.542Z" transform="translate(-185.117 -322.141)" fill="#ffb9b9"/>
                    <g id="Group_16373" data-name="Group 16373" transform="translate(0 13.783)">
                      <path id="Path_71198" data-name="Path 71198" d="M305.621,352.1s-20.614-11.448-39.9-16.105C252.39,332.776,222.6,329,194.1,358.4c-6.762,6.971-11.45,21.7,3.728,14.325C208.6,367.482,213.857,360.9,220.683,359c0,0-3.741,19.443,3.509,25.943a179.193,179.193,0,0,0,20.153,15.637,37.77,37.77,0,0,0,3.264-3.509s7.345,5.433,21.171,4.116Z" transform="translate(-187.728 -333.839)" fill="#ffb9b9"/>
                    </g>
                    <g id="Group_16377" data-name="Group 16377" transform="translate(16.039 14.898)">
                      <path id="Path_71199" data-name="Path 71199" d="M250.08,334.786c-6.375,3.325-19.768,10.6-28.655,20.356-9.872,10.841-25.967,34.383-17.889,41.588,5.923,5.283,12.858-3.166,12.858-3.166s-4.6,11.133,1.793,14.736c5.826,3.281,10.8-3.576,10.8-3.576s-1.631,7.233,4.59,9.314c7.484,2.5,9.672-13.066,19.442-17.081C255.212,396.056,250.08,334.786,250.08,334.786Z" transform="translate(-201.341 -334.786)" fill="#ffb9b9"/>
                      <g id="Group_16376" data-name="Group 16376" transform="translate(14.942 28.862)">
                        <g id="Group_16374" data-name="Group 16374">
                          <path id="Path_71200" data-name="Path 71200" d="M232.359,359.3c-5.483,4.108-15.541,16.636-18.324,29.613-.062.293.125.5.24.243a143.926,143.926,0,0,1,18.185-29.764C232.512,359.327,232.42,359.25,232.359,359.3Z" transform="translate(-214.022 -359.283)" fill="#f99f9f"/>
                        </g>
                        <g id="Group_16375" data-name="Group 16375" transform="translate(12.456 10.279)">
                          <path id="Path_71201" data-name="Path 71201" d="M241.127,368.025c-4.366,4.032-14.156,17.407-16.523,30.654-.053.3.15.489.253.229a154.181,154.181,0,0,1,16.378-30.8C241.282,368.046,241.183,367.973,241.127,368.025Z" transform="translate(-224.595 -368.007)" fill="#f99f9f"/>
                        </g>
                      </g>
                    </g>
                  </g>
                  <path id="Path_71202" data-name="Path 71202" d="M220.76,355.089c-5.978,1.76-9.868,4.694-14.914,8.2a81.959,81.959,0,0,1-7.7,4.878c-2.437,1.317-6.028,3.307-8.622,1.245-1.443-1.149-1.422-3.238-1.1-4.885a13.188,13.188,0,0,1,2.167-5.164c.055-.078-.079-.178-.137-.1a17.751,17.751,0,0,0-2.473,4.419,7.963,7.963,0,0,0-.54,4.667c.879,3.3,4.766,3.73,7.519,2.823a26.014,26.014,0,0,0,4.706-2.277c1.45-.832,2.858-1.732,4.244-2.667,2.842-1.921,5.571-4,8.39-5.955a78,78,0,0,1,8.553-4.982C220.963,355.229,220.879,355.055,220.76,355.089Z" transform="translate(-187.273 -282.508)" fill="#f99f9f"/>
                  <path id="Path_71203" data-name="Path 71203" d="M205.838,376.124c1.547-3.409,9.926-17.608,12.643-20.893a.085.085,0,0,0-.124-.118c-4.66,4.418-12.15,16.151-13.895,19.911-1.725,3.715-3.711,8.463-3.713,12.6,0,6.248,4.143,7.431,5.675,7.736a8.094,8.094,0,0,0,5.316-.87,16.308,16.308,0,0,0,4.819-4.529c.065-.085-.049-.2-.124-.117-2.164,2.46-5.76,4.89-9.156,4.443a5.682,5.682,0,0,1-3.863-2.084,7.359,7.359,0,0,1-1-5.031C202.745,383.305,204.249,379.627,205.838,376.124Z" transform="translate(-184.871 -282.507)" fill="#f99f9f"/>
                  <path id="Path_71204" data-name="Path 71204" d="M226.771,395.716c-.87.745-2.663,3.334-5.508,3.888a6.435,6.435,0,0,1-5.858-1.308,8.118,8.118,0,0,1-2.249-5.681,52.148,52.148,0,0,1,1.308-7.862c.032-.121-.12-.177-.158-.061-.9,2.756-1.875,5.757-1.876,8.457a8.51,8.51,0,0,0,2.392,6.227,6.387,6.387,0,0,0,6.539,1.358c1.112-.417,4.628-2.67,5.65-4.893C227.033,395.793,226.809,395.683,226.771,395.716Z" transform="translate(-182.79 -277.243)" fill="#f99f9f"/>
                  <path id="Path_71205" data-name="Path 71205" d="M248.314,386.6a15.155,15.155,0,0,0-2.649,2.233c-.877.844-1.724,1.723-2.548,2.617a35.408,35.408,0,0,0-4.323,5.919c-1.261,2.12-2.424,4.482-4.482,5.956a5.849,5.849,0,0,1-6.837.17,5.722,5.722,0,0,1-2.137-3.169,11.17,11.17,0,0,1-.4-4.262.085.085,0,1,0-.167-.018,19.658,19.658,0,0,0-.306,3.872,6.806,6.806,0,0,0,1.224,3.29,6.518,6.518,0,0,0,6.378,2.384c2.61-.48,4.524-2.442,5.942-4.563,1.578-2.364,2.877-4.883,4.562-7.18.887-1.208,1.758-2.427,2.73-3.57,1.011-1.189,2.224-2.253,3.156-3.5C248.532,386.682,248.434,386.532,248.314,386.6Z" transform="translate(-180.651 -276.894)" fill="#f99f9f"/>
                  <path id="Path_71206" data-name="Path 71206" d="M252.455,391.44a53.82,53.82,0,0,1-10.062-2.087c-.1-.034-.251.26-.156.313A23.787,23.787,0,0,0,247.2,391.3a17.786,17.786,0,0,0,5.229.319C252.525,391.613,252.569,391.449,252.455,391.44Z" transform="translate(-177.483 -276.401)" fill="#f99f9f"/>
                  <path id="Path_71207" data-name="Path 71207" d="M353.268,376.2a132.152,132.152,0,0,0-16.608-9.491,128.509,128.509,0,0,0-17.627-6.829c-3.433-1.089-6.908-2.009-10.382-2.954a.085.085,0,0,0-.041.165,165.267,165.267,0,0,1,17.8,6.685q8.679,3.743,17.207,7.8c3.218,1.532,6.364,3.214,9.527,4.852A.128.128,0,0,0,353.268,376.2Z" transform="translate(-165.66 -282.18)" fill="#f99f9f"/>
                </g>
                <g id="Group_16381" data-name="Group 16381" transform="translate(132.516)">
                  <path id="Path_71208" data-name="Path 71208" d="M364.611,356.372l-51.237-1.7s-9.537-25.292-13.168-47.789,14.8-15.631,34.036,8.456S364.611,356.372,364.611,356.372Z" transform="translate(-299.745 -293.181)" fill="#f16d2d"/>
                  <g id="Group_16380" data-name="Group 16380" transform="translate(4.408 33.476)">
                    <path id="Path_71210" data-name="Path 71210" d="M314.815,349.439c-.276,0-2.078-.316-2.087-.316-.127-.673-3.05-11.244-3.819-13.544-1.566-4.686-3.406-9.295-5.182-13.9a.123.123,0,0,0-.236.072c1.157,3.965,2.241,7.958,3.429,11.915-.358-.561-.712-1.125-1.05-1.7-.694-1.175-1.3-2.394-1.948-3.592-.058-.107-.227-.027-.192.086a20.2,20.2,0,0,0,2.257,4.714,17.027,17.027,0,0,0,1.333,1.81c.1.329.2.66.3.989.727,2.313,4.48,13.757,4.672,13.769.046,0,1.9.044,2.471.048C314.905,349.788,314.957,349.44,314.815,349.439Z" transform="translate(-303.486 -321.593)" fill="#e15e1d"/>
                    <path id="Path_71211" data-name="Path 71211" d="M354.227,338.514c-11.049-.826-22.173-.88-33.268-.714q-4.71.071-9.413.362c-.087.006-.1.135-.011.14,5.526.3,11.062.365,16.6.468s11.111.159,16.666.106c3.136-.031,6.271-.058,9.407-.152C354.345,338.72,354.366,338.524,354.227,338.514Z" transform="translate(-302.063 -318.718)" fill="#e15e1d"/>
                  </g>
                </g>
              </g>
              <path id="Path_71212" data-name="Path 71212" d="M278.377,293.749c-3.4,2.845-6.816,13.492-4.941,20.526s5.6,11.559,12,10.99,18.685-5.456,26.7-19.808S295.128,279.739,278.377,293.749Z" transform="translate(-89.709 -201.419)" fill="#e15e1d"/>
              <g id="Group_16396" data-name="Group 16396" transform="translate(168.471)">
                <g id="Group_16384" data-name="Group 16384" transform="translate(18.118 65.859)">
                  <g id="Group_16383" data-name="Group 16383" transform="translate(0 0.003)">
                    <path id="Path_71213" data-name="Path 71213" d="M282.481,320.421c7.564,2.223,21.345-8.775,27.05-17.984.388-.633-.912-26.8-.632-32.011.064-1.069-33.115,6.181-33.115,6.181s2.625,11.1,2.08,20.18C277.811,297.547,275.17,318.266,282.481,320.421Z" transform="translate(-275.784 -270.318)" fill="#ffb9b9"/>
                  </g>
                  <path id="Path_71214" data-name="Path 71214" d="M309.495,295.777c-17.431,2.579-26.888-2.638-31.864-7.642a96.86,96.86,0,0,0-1.844-11.535s33.169-7.245,33.117-6.179C308.711,274.011,309.258,287.495,309.495,295.777Z" transform="translate(-275.784 -270.315)" fill="#f99f9f"/>
                </g>
                <g id="Group_16395" data-name="Group 16395">
                  <g id="Group_16385" data-name="Group 16385" transform="translate(7.452 8.262)">
                    <path id="Path_71215" data-name="Path 71215" d="M269.289,237.141c-4.84,11.128-2.569,45.139,4.782,53.506,10.656,12.13,30,15.391,40.791,2.147,10.456-12.838,6.711-57.109-1.677-64.909C300.831,216.4,276.439,220.7,269.289,237.141Z" transform="translate(-266.732 -221.43)" fill="#ffb9b9"/>
                  </g>
                  <g id="Group_16392" data-name="Group 16392" transform="translate(0.055)">
                    <path id="Path_71226" data-name="Path 71226" d="M269.334,264.589c8.662.376,11.082-15.265,11.082-15.265s14.985-1.738,17.672-12.83c0,0,13.69,9.674,24.976,6.17s9.546-16.163,8.443-18.9-7.489,1.953-7.489,1.953-.37-7.134-2.234-7.947-4.127,3.389-4.127,3.389-14.07-5.468-27.061-5.708-20.026,12.533-20.026,12.533-7.006,1.146-9.482,5.9S263.814,264.349,269.334,264.589Z" transform="translate(-260.454 -214.236)" fill="#440c01"/>
                    <path id="Path_71227" data-name="Path 71227" d="M295.224,231.478a18.47,18.47,0,0,1-1.667,6.58,12.258,12.258,0,0,1-4.333,4.9,17.874,17.874,0,0,1-6.273,2.2c-1.117.164-2.259.22-3.4.316-1.144.008-2.293-.022-3.459.019,1.136.212,2.289.352,3.447.531,1.163.015,2.34.055,3.513-.009a15.784,15.784,0,0,0,6.775-2.113,11.736,11.736,0,0,0,4.515-5.5A14.338,14.338,0,0,0,295.224,231.478Z" transform="translate(-257.667 -211.378)" fill="#440c01"/>
                    <path id="Path_71228" data-name="Path 71228" d="M268.9,229.929a21.347,21.347,0,0,1,5.559-9.518,17.006,17.006,0,0,1,9.7-4.641,19.732,19.732,0,0,1,2.733-.275l2.765.078c1.839.143,3.663.551,5.493.86,1.785.525,3.615.94,5.381,1.56,1.758.647,3.506,1.329,5.293,1.95-1.678-.851-3.393-1.639-5.1-2.464-1.743-.73-3.572-1.248-5.363-1.884-3.677-.882-7.526-1.561-11.37-.933a17.4,17.4,0,0,0-10.144,5.145A19.135,19.135,0,0,0,268.9,229.929Z" transform="translate(-258.949 -214.418)" fill="#440c01"/>
                  </g>
                  <g id="Group_16393" data-name="Group 16393" transform="translate(1.19 38.597)">
                    <path id="Path_71229" data-name="Path 71229" d="M292.036,267.169a9.827,9.827,0,1,1,10.729-11.212h0a9.829,9.829,0,0,1-10.729,11.211Zm1.88-18.245a8.513,8.513,0,1,0,7.549,7.225A8.457,8.457,0,0,0,293.917,248.925Z" transform="translate(-257.532 -247.108)" fill="#440c01"/>
                    <path id="Path_71230" data-name="Path 71230" d="M310.87,266.8c-3.741-.386-6.738-4.567-6.812-9.693a11.742,11.742,0,0,1,1.979-6.9,6.122,6.122,0,0,1,10.479-.148,11.735,11.735,0,0,1,2.173,6.84c.075,5.417-3.144,9.872-7.175,9.93A5.823,5.823,0,0,1,310.87,266.8Zm.881-18.287a4.374,4.374,0,0,0-.5-.022,5.241,5.241,0,0,0-4.144,2.473,10.441,10.441,0,0,0-1.74,6.123c.068,4.694,2.8,8.477,6.124,8.428s5.945-3.9,5.88-8.6a10.423,10.423,0,0,0-1.912-6.073A5.409,5.409,0,0,0,311.751,248.514Z" transform="translate(-253.818 -247.177)" fill="#440c01"/>
                    <path id="Path_71231" data-name="Path 71231" d="M299.672,256.076l-.859-.994c1.473-1.272,4.894-3,7.33-.47l-.946.91C303.018,253.249,299.807,255.961,299.672,256.076Z" transform="translate(-254.752 -246.084)" fill="#440c01"/>
                    <path id="Path_71232" data-name="Path 71232" d="M262.592,259.324l-1.175-.587c.275-.548,2.758-5.37,5.685-5.889,2.736-.476,20.367.925,21.116.985l-.106,1.31c-5.055-.408-18.669-1.375-20.781-1C265.4,254.485,263.256,258,262.592,259.324Z" transform="translate(-261.417 -246.184)" fill="#440c01"/>
                  </g>
                  <g id="Group_16394" data-name="Group 16394" transform="translate(0 42.375)">
                    <path id="Path_71233" data-name="Path 71233" d="M274.424,259.947s-6.53-11.507-11.682-9.276-.952,18.413,4.6,21.1a5.873,5.873,0,0,0,8.132-2.4Z" transform="translate(-260.407 -250.384)" fill="#ffb9b9"/>
                  </g>
                </g>
              </g>
            </g>
          </g>
        </g>
        <g id="Device_2" data-name="Device 2" transform="translate(550.274 349.859)">
          <g id="Group_16402" data-name="Group 16402">
            <g id="Group_16399" data-name="Group 16399" transform="translate(0 80.846)">
              <rect id="Rectangle_11043" data-name="Rectangle 11043" width="131.011" height="5.876" fill="#455a64"/>
              <rect id="Rectangle_11044" data-name="Rectangle 11044" width="65.939" height="5.876" fill="#3f3d56"/>
            </g>
            <g id="Group_16401" data-name="Group 16401" transform="translate(64.41)">
              <g id="Group_16400" data-name="Group 16400">
                <path id="Path_71236" data-name="Path 71236" d="M564.061,434.343h127.68l18.041-86.716H582.1Z" transform="translate(-564.061 -347.627)" fill="#3f3d56"/>
              </g>
              <path id="Path_71237" data-name="Path 71237" d="M617.507,387.358a7.519,7.519,0,0,0,7.615,8.509,9.684,9.684,0,0,0,9.4-8.509,7.519,7.519,0,0,0-7.615-8.51A9.684,9.684,0,0,0,617.507,387.358Z" transform="translate(-554.544 -342.063)" fill="#f7f4ee"/>
            </g>
          </g>
        </g>
        <g id="Device_1" data-name="Device 1" transform="translate(24.291 314.876)">
          <g id="Group_16419" data-name="Group 16419">
            <g id="Group_16413" data-name="Group 16413" transform="translate(111.581 118.25)">
              <g id="Group_16412" data-name="Group 16412" transform="translate(1.772 0)">
                <g id="Group_16403" data-name="Group 16403" transform="translate(75.076 2.498)">
                  <rect id="Rectangle_11045" data-name="Rectangle 11045" width="7.237" height="4.725" transform="translate(7.237 4.725) rotate(180)" fill="#7d7989"/>
                </g>
                <g id="Group_16404" data-name="Group 16404" transform="translate(65.692 2.185)">
                  <rect id="Rectangle_11046" data-name="Rectangle 11046" width="7.237" height="4.725" transform="translate(7.237 4.725) rotate(180)" fill="#7d7989"/>
                </g>
                <g id="Group_16405" data-name="Group 16405" transform="translate(56.307 1.873)">
                  <rect id="Rectangle_11047" data-name="Rectangle 11047" width="7.237" height="4.725" transform="translate(7.237 4.725) rotate(180)" fill="#7d7989"/>
                </g>
                <g id="Group_16406" data-name="Group 16406" transform="translate(46.923 1.561)">
                  <rect id="Rectangle_11048" data-name="Rectangle 11048" width="7.237" height="4.725" transform="translate(7.237 4.725) rotate(180)" fill="#7d7989"/>
                </g>
                <g id="Group_16407" data-name="Group 16407" transform="translate(37.538 1.249)">
                  <rect id="Rectangle_11049" data-name="Rectangle 11049" width="7.237" height="4.725" transform="translate(7.237 4.725) rotate(180)" fill="#7d7989"/>
                </g>
                <g id="Group_16408" data-name="Group 16408" transform="translate(28.154 0.937)">
                  <rect id="Rectangle_11050" data-name="Rectangle 11050" width="7.237" height="4.725" transform="translate(7.237 4.725) rotate(180)" fill="#7d7989"/>
                </g>
                <g id="Group_16409" data-name="Group 16409" transform="translate(18.769 0.624)">
                  <rect id="Rectangle_11051" data-name="Rectangle 11051" width="7.237" height="4.725" transform="translate(7.237 4.725) rotate(180)" fill="#7d7989"/>
                </g>
                <g id="Group_16410" data-name="Group 16410" transform="translate(9.384 0.312)">
                  <rect id="Rectangle_11052" data-name="Rectangle 11052" width="7.237" height="4.725" transform="translate(7.237 4.725) rotate(180)" fill="#7d7989"/>
                </g>
                <g id="Group_16411" data-name="Group 16411" transform="translate(0)">
                  <rect id="Rectangle_11053" data-name="Rectangle 11053" width="7.237" height="4.725" transform="translate(7.237 4.725) rotate(180)" fill="#7d7989"/>
                </g>
              </g>
              <path id="Path_71238" data-name="Path 71238" d="M157.675,421.481h85.856v-5.749l-85.856-2.394Z" transform="translate(-157.675 -411.541)" fill="#3f3d56"/>
            </g>
            <g id="Group_16416" data-name="Group 16416">
              <g id="Group_16414" data-name="Group 16414">
                <path id="Path_71239" data-name="Path 71239" d="M89.962,416.968H231.7L209.157,311.449H67.421Z" transform="translate(-62.179 -311.449)" fill="#7d7989"/>
                <path id="Path_71240" data-name="Path 71240" d="M85.512,416.968H227.248l-22.54-105.519H62.972Z" transform="translate(-62.972 -311.449)" fill="#3f3d56"/>
                <path id="Path_71241" data-name="Path 71241" d="M122.307,352.365a10.662,10.662,0,0,0,10.15,8.764,7.293,7.293,0,0,0,7.376-8.764,10.663,10.663,0,0,0-10.152-8.764A7.293,7.293,0,0,0,122.307,352.365Z" transform="translate(-52.417 -305.719)" fill="#f7f4ee"/>
              </g>
              <g id="Group_16415" data-name="Group 16415" transform="translate(37.513 73.942)">
                <path id="Path_71242" data-name="Path 71242" d="M116.125,425.556h69.709v-5.414l-69.709-2.254Z" transform="translate(-91.012 -366.422)" fill="#7d7989"/>
                <path id="Path_71243" data-name="Path 71243" d="M100.039,433.334h37.428l22.541-59.127H122.58Z" transform="translate(-93.879 -374.207)" fill="#7d7989"/>
                <path id="Path_71244" data-name="Path 71244" d="M94.811,433.334h37.428l22.54-59.127H117.352Z" transform="translate(-94.811 -374.207)" fill="#3f3d56"/>
              </g>
            </g>
            <g id="Group_16418" data-name="Group 16418" transform="translate(199.076 109.194)">
              <path id="Path_71245" data-name="Path 71245" d="M232.947,429.447h71.869c6.135,0-2.741-17.465-25.124-24.164S225.887,422.9,232.947,429.447Z" transform="translate(-231.935 -404.126)" fill="#3f3d56"/>
              <g id="Group_16417" data-name="Group 16417" transform="translate(1.012 6.209)">
                <path id="Path_71246" data-name="Path 71246" d="M258.587,428.508a45.427,45.427,0,0,0-1.8-5.578,35.321,35.321,0,0,0-2.556-5.182,25.66,25.66,0,0,0-3.464-4.583l-1.011-1.036-1.1-.945c-.7-.7-1.567-1.144-2.335-1.788a16.633,16.633,0,0,1,5.086,3.107,19.524,19.524,0,0,1,3.833,4.637A23.256,23.256,0,0,1,258.587,428.508Z" transform="translate(-230.384 -409.396)" fill="#7d7989"/>
                <path id="Path_71247" data-name="Path 71247" d="M252.481,411.513c-1.963,1.065-3.883,2.174-5.79,3.291-1.892,1.139-3.769,2.3-5.546,3.581a34.859,34.859,0,0,0-5.006,4.2,12.628,12.628,0,0,0-3.345,5.542,10.49,10.49,0,0,1,2.655-6.15,25.858,25.858,0,0,1,5.013-4.555A43.084,43.084,0,0,1,252.481,411.513Z" transform="translate(-232.794 -409.019)" fill="#7d7989"/>
              </g>
            </g>
          </g>
        </g>
        <g id="Drink" transform="translate(308.263 382.08)">
          <g id="Group_16420" data-name="Group 16420">
            <path id="Path_71248" data-name="Path 71248" d="M353.011,389.006l-5.175,65.067h-35.8l-5.175-65.067Z" transform="translate(-303.477 -372.474)" fill="#3f3d56"/>
            <rect id="Rectangle_11054" data-name="Rectangle 11054" width="52.616" height="9.486" transform="translate(0 10.657)" fill="#7d7989"/>
            <path id="Path_71249" data-name="Path 71249" d="M352.454,385.632h-45.4l2.653-10.657h40.1Z" transform="translate(-303.444 -374.975)" fill="#3f3d56"/>
            <path id="Path_71250" data-name="Path 71250" d="M340.755,419.418c0,8.447-5.565,15.3-12.428,15.3s-12.428-6.849-12.428-15.3,5.564-15.3,12.428-15.3S340.755,410.97,340.755,419.418Z" transform="translate(-301.867 -369.78)" fill="#f7f4ee"/>
          </g>
        </g>
        <g id="Speech_Bubble" data-name="Speech Bubble" transform="translate(336.086 195.851)">
          <g id="Group_16423" data-name="Group 16423">
            <g id="Group_16421" data-name="Group 16421">
              <path id="Path_71251" data-name="Path 71251" d="M332.537,254.862a20.63,20.63,0,0,1-3.529-11.4c0-14.437,15.854-26.142,35.4-26.142s35.382,11.706,35.382,26.142-15.838,26.141-35.382,26.141c-9.476,0-18.067-2.745-24.415-7.233l-12.192,3.1Z" transform="translate(-327.569 -216.842)" fill="#fef8f4"/>
              <path id="Path_71252" data-name="Path 71252" d="M332.571,254.935a20.2,20.2,0,0,1-.854-21.867,27.794,27.794,0,0,1,7.79-8.489,37.11,37.11,0,0,1,10.285-5.256,47.75,47.75,0,0,1,11.336-2.287,48.76,48.76,0,0,1,11.558.579,41.113,41.113,0,0,1,11.063,3.443,34.32,34.32,0,0,1,9.551,6.6,24.361,24.361,0,0,1,6.166,9.869,19.96,19.96,0,0,1,.111,11.646,24.145,24.145,0,0,1-6.011,9.959,34.044,34.044,0,0,1-9.468,6.711,45.592,45.592,0,0,1-22.576,4.169,42,42,0,0,1-21.651-7.344l.22.041-12.226,2.964-.26.064.111-.24Zm0,0L327.95,265.6l-.15-.178,12.158-3.234.117-.032.1.072a41.648,41.648,0,0,0,21.392,6.937,47.412,47.412,0,0,0,11.316-.769,40.77,40.77,0,0,0,10.755-3.489,33.006,33.006,0,0,0,9.143-6.534,23.063,23.063,0,0,0,5.7-9.516,18.892,18.892,0,0,0-.144-10.985,23.211,23.211,0,0,0-5.842-9.42,33.227,33.227,0,0,0-9.216-6.419,40.085,40.085,0,0,0-10.777-3.4A49.233,49.233,0,0,0,361.193,218a46.865,46.865,0,0,0-11.139,2.1,36.4,36.4,0,0,0-10.146,5.026,28.061,28.061,0,0,0-7.754,8.189,20.32,20.32,0,0,0-2.973,10.83A20.75,20.75,0,0,0,332.571,254.935Z" transform="translate(-327.604 -216.915)" fill="#f77d48"/>
            </g>
            <g id="Group_16422" data-name="Group 16422" transform="translate(16.76 22.953)">
              <path id="Path_71253" data-name="Path 71253" d="M369.67,240.066a3.67,3.67,0,1,0,3.67-3.67A3.67,3.67,0,0,0,369.67,240.066Z" transform="translate(-336.867 -236.396)" fill="#f77d48"/>
              <path id="Path_71254" data-name="Path 71254" d="M355.75,240.066a3.67,3.67,0,1,0,3.67-3.67A3.669,3.669,0,0,0,355.75,240.066Z" transform="translate(-339.348 -236.396)" fill="#f77d48"/>
              <path id="Path_71255" data-name="Path 71255" d="M341.829,240.066a3.67,3.67,0,1,0,3.67-3.67A3.67,3.67,0,0,0,341.829,240.066Z" transform="translate(-341.829 -236.396)" fill="#f77d48"/>
            </g>
          </g>
        </g>
      </g>
    </g>
  </g>
</svg>
