<?xml version="1.0" encoding="utf-8"?>
<!-- Generator: Adobe Illustrator 24.0.0, SVG Export Plug-In . SVG Version: 6.00 Build 0)  -->
<svg version="1.1" xmlns="http://www.w3.org/2000/svg" xmlns:xlink="http://www.w3.org/1999/xlink" x="0px" y="0px"
	 viewBox="0 0 155 45" style="enable-background:new 0 0 155 45;" xml:space="preserve">
<style type="text/css">
	.st0{fill-rule:evenodd;clip-rule:evenodd;fill:#2C2F38;}
	.st1{fill:#0084FF;}
	.st2{fill-rule:evenodd;clip-rule:evenodd;fill:#0084FF;}
	.st3{fill-rule:evenodd;clip-rule:evenodd;fill:url(#SVGID_1_);}
	.st4{fill:#2C2F38;}
</style>
<g id="Layer_1">
	<g>
		<g>
			<path class="st0" d="M152,4.4c0,0.8-0.3,1.5-0.9,2.1c-0.6,0.6-1.3,0.9-2.1,0.9c-0.8,0-1.5-0.3-2.1-0.9c-0.6-0.6-0.9-1.3-0.9-2.1
				c0-0.8,0.3-1.5,0.9-2.1c0.6-0.6,1.3-0.9,2.1-0.9c0.8,0,1.5,0.3,2.1,0.9C151.7,2.9,152,3.6,152,4.4L152,4.4z M151.6,4.4
				c0-0.7-0.2-1.3-0.7-1.8c-0.5-0.5-1.1-0.8-1.8-0.8c-0.7,0-1.3,0.3-1.8,0.8c-0.5,0.5-0.7,1.1-0.7,1.8c0,0.7,0.2,1.3,0.7,1.8
				c0.5,0.5,1.1,0.8,1.8,0.8c0.7,0,1.3-0.3,1.8-0.8C151.4,5.7,151.6,5.1,151.6,4.4L151.6,4.4z M151,5.9l-1.3-1.4
				c0.2-0.1,0.4-0.2,0.5-0.3c0.1-0.1,0.2-0.3,0.2-0.5c0-0.2,0-0.3-0.1-0.4c-0.1-0.1-0.2-0.2-0.3-0.3c-0.1-0.1-0.3-0.1-0.4-0.1
				c-0.1,0-0.3,0-0.5,0H148v3.1h0.6V4.7h0.5l1.1,1.2H151L151,5.9z M149.8,3.7c0-0.1,0-0.2,0-0.2c0-0.1-0.1-0.1-0.2-0.2
				c-0.1,0-0.1-0.1-0.2-0.1c-0.1,0-0.2,0-0.3,0h-0.5v1h0.4c0.1,0,0.3,0,0.4,0c0.1,0,0.2-0.1,0.3-0.1c0.1-0.1,0.1-0.1,0.1-0.2
				C149.8,3.9,149.8,3.8,149.8,3.7z"/>
			<g>
				<path class="st1" d="M39.5,7.5h-4l-9,24h7.6l1.2-4h4.3h4.2l1.2,4h7.8l-9-24H39.5z M39.5,22.4h-2.6l2.6-8.6l0,0l2.6,8.6H39.5z"/>
				<polygon class="st1" points="17.3,20.8 8.3,7.5 1.3,7.5 1.3,31.5 8.3,31.5 8.3,18.4 17.3,31.5 24.3,31.5 24.3,7.5 17.3,7.5 				
					"/>
				<path class="st1" d="M74.2,23.1c-0.5-0.6-0.9-1.1-1.2-1.3c-0.4-0.3-1.1-0.6-1.9-0.9c1.1-0.2,2-0.6,2.6-0.9
					c1-0.6,1.8-1.4,2.3-2.4c0.6-1,0.9-2.1,0.9-3.5c0-1.5-0.4-2.8-1.1-3.9C75,9.2,74,8.5,72.8,8.1c-1.2-0.4-3-0.6-5.3-0.6H66H55.1v24
					h7.5v-9.8h0.7c0.7,0,1.3,0.2,1.8,0.6c0.3,0.2,0.6,0.6,0.9,1.1c0.1,0.2,0.3,0.5,0.4,0.8l4,7.3h8.4l-3.6-7
					C75,24.2,74.7,23.7,74.2,23.1z M68.9,16.2c-0.3,0.4-0.7,0.7-1.2,0.8c-0.8,0.2-1.3,0.3-1.7,0.3c-0.1,0-0.2,0-0.3,0h-3.1v-4.9h3.3
					l0.1,0c1.3,0,2.2,0.2,2.6,0.6c0.5,0.4,0.7,1,0.7,1.8C69.4,15.3,69.2,15.8,68.9,16.2z"/>
				<polygon class="st1" points="114.3,7.5 106.8,7.5 106.8,31.5 125.9,31.5 125.9,25.6 114.3,25.6 				"/>
				<path class="st1" d="M144.6,7.5h-4.1h-4l-9,24h7.6l1.2-4h4.3h4.2l1.2,4h7.8L144.6,7.5z M140.5,22.4h-2.6l2.6-8.6l0,0l2.6,8.6
					H140.5z"/>
			</g>
			<g>
				<path class="st2" d="M82.6,5.7c9.9-3.6,22,2.6,22,13.5c0,7-5.7,12.8-12.8,12.8c-7,0-12.8-5.7-12.8-12.8
					c0-6.1,4.4-11.2,10.1-12.5C88.6,6.5,85.6,5.6,82.6,5.7L82.6,5.7z M91.9,12.9c-3.5,0-6.4,2.9-6.4,6.4c0,3.5,2.9,6.4,6.4,6.4
					c3.5,0,6.4-2.9,6.4-6.4C98.3,15.7,95.4,12.9,91.9,12.9z"/>
				<linearGradient id="SVGID_1_" gradientUnits="userSpaceOnUse" x1="82.6439" y1="13.607" x2="99.6675" y2="23.4356">
					<stop  offset="0" style="stop-color:#2194FF"/>
					<stop  offset="1" style="stop-color:#CBEDFF"/>
				</linearGradient>
				<path class="st3" d="M82.6,5.7c9.8-3.7,22,2.6,22,13.5c0,7-5.7,12.8-12.8,12.8c-7,0-12.8-5.7-12.8-12.8c1.1,3.6,3.7,6.1,6.8,7.2
					c4.5,1.6,8.6-0.1,11.2-3.2c1.5-1.8,2.3-3.8,2.5-5.8c0.2-1.9-0.2-3.8-1-5.5C95.9,6.3,88.5,4.6,82.6,5.7z"/>
			</g>
		</g>
		<g>
			<path class="st4" d="M39.9,43.4v-6h0.8v6H39.9z"/>
			<path class="st4" d="M46.3,43.4v-6h0.8l3.2,4.7v-4.7H51v6h-0.8L47,38.7v4.7H46.3z"/>
			<path class="st4" d="M56.6,43.4v-6h4.1v0.7h-3.3v1.9h2.8v0.7h-2.8v2.7H56.6z"/>
			<path class="st4" d="M65.7,40.5c0-1,0.3-1.8,0.8-2.4c0.5-0.6,1.2-0.9,2.1-0.9c0.6,0,1.1,0.1,1.5,0.4c0.4,0.3,0.8,0.6,1,1.1
				c0.2,0.5,0.4,1,0.4,1.6c0,0.6-0.1,1.2-0.4,1.6c-0.2,0.5-0.6,0.8-1.1,1.1c-0.5,0.2-0.9,0.4-1.5,0.4c-0.6,0-1.1-0.1-1.5-0.4
				c-0.4-0.3-0.8-0.6-1-1.1C65.8,41.5,65.7,41,65.7,40.5z M66.5,40.5c0,0.7,0.2,1.3,0.6,1.7c0.4,0.4,0.9,0.6,1.5,0.6
				c0.6,0,1.1-0.2,1.5-0.6c0.4-0.4,0.6-1,0.6-1.8c0-0.5-0.1-0.9-0.2-1.3c-0.2-0.4-0.4-0.7-0.7-0.9c-0.3-0.2-0.7-0.3-1.1-0.3
				c-0.6,0-1.1,0.2-1.5,0.6C66.7,38.9,66.5,39.6,66.5,40.5z"/>
			<path class="st4" d="M78.3,43.4v-5.3h-2v-0.7h4.8v0.7h-2v5.3H78.3z"/>
			<path class="st4" d="M86.1,43.4v-6h4.4v0.7h-3.6v1.8h3.3v0.7h-3.3v2.1h3.7v0.7H86.1z"/>
			<path class="st4" d="M100.3,41.3l0.8,0.2c-0.2,0.7-0.5,1.2-0.9,1.5c-0.4,0.3-1,0.5-1.6,0.5c-0.7,0-1.2-0.1-1.6-0.4
				c-0.4-0.3-0.7-0.6-0.9-1.2c-0.2-0.5-0.3-1-0.3-1.6c0-0.6,0.1-1.2,0.4-1.6c0.2-0.5,0.6-0.8,1-1.1c0.4-0.2,0.9-0.4,1.5-0.4
				c0.6,0,1.1,0.2,1.5,0.5c0.4,0.3,0.7,0.7,0.9,1.3l-0.8,0.2c-0.1-0.4-0.3-0.8-0.6-1c-0.3-0.2-0.6-0.3-1-0.3c-0.5,0-0.9,0.1-1.2,0.3
				c-0.3,0.2-0.5,0.5-0.7,0.9c-0.1,0.4-0.2,0.8-0.2,1.2c0,0.5,0.1,1,0.2,1.3c0.1,0.4,0.4,0.7,0.7,0.9c0.3,0.2,0.7,0.3,1,0.3
				c0.4,0,0.8-0.1,1.1-0.4C100,42.2,100.2,41.8,100.3,41.3z"/>
			<path class="st4" d="M106.3,43.4v-6h0.8v2.5h3.1v-2.5h0.8v6h-0.8v-2.8h-3.1v2.8H106.3z"/>
		</g>
	</g>
</g>
<g id="Layer_2">
</g>
<g id="Layer_3">
</g>
</svg>
